<svg version="1.1" xmlns="http://www.w3.org/2000/svg" width="1000" height="400"><defs><clipPath id="wHWQQMkZfvXN"><path fill="none" stroke="none" d="M 49.5 5.5 L 970.5 5.5 L 970.5 378.5 L 49.5 378.5 L 49.5 5.5 Z"/></clipPath><clipPath id="cAArieWFuizO"><path fill="none" stroke="none" d="M 49.5 5.5 L 970.5 5.5 L 970.5 378.5 L 49.5 378.5 L 49.5 5.5 Z"/></clipPath><clipPath id="HLcdPndMCsoh"><path fill="none" stroke="none" d="M 49.5 5.5 L 970.5 5.5 L 970.5 378.5 L 49.5 378.5 L 49.5 5.5 Z"/></clipPath><clipPath id="iZLrlvvSpboX"><path fill="none" stroke="none" d="M 49.5 5.5 L 970.5 5.5 L 970.5 378.5 L 49.5 378.5 L 49.5 5.5 Z"/></clipPath></defs><path fill="none" stroke="rgb(229,229,229)" paint-order="fill" d="M 49.5 5.5 L 970.5 5.5 L 970.5 378.5 L 49.5 378.5 L 49.5 5.5 Z" stroke-opacity="1" stroke-linejoin="bevel" stroke-miterlimit="10"/><path fill="none" stroke="rgb(229,229,229)" paint-order="fill" d="M 260.5 378.5 L 260.5 5.5 M 476.5 378.5 L 476.5 5.5 M 691.5 378.5 L 691.5 5.5 M 906.5 378.5 L 906.5 5.5" stroke-opacity="1" stroke-linejoin="bevel" stroke-miterlimit="10" clip-path="url(#wHWQQMkZfvXN)"/><path fill="none" stroke="rgb(229,229,229)" paint-order="fill" d="M 49.5 341.5 L 970.5 341.5 M 49.5 272.5 L 970.5 272.5 M 49.5 203.5 L 970.5 203.5 M 49.5 134.5 L 970.5 134.5 M 49.5 65.5 L 970.5 65.5" stroke-opacity="1" stroke-linejoin="bevel" stroke-miterlimit="10" clip-path="url(#cAArieWFuizO)"/><path fill="rgb(213,62,79)" stroke="rgb(213,62,79)" paint-order="fill" d="M 91.36363983154297 287.729736328125 L 91.90180206298828 287.729736328125 L 91.90180206298828 292.3432312011719 L 91.36363983154297 292.3432312011719 L 91.36363983154297 287.729736328125 Z" fill-opacity="1" clip-path="url(#HLcdPndMCsoh)" stroke-opacity="1" stroke-linejoin="bevel" stroke-miterlimit="10"/><path fill="rgb(213,62,79)" stroke="rgb(213,62,79)" paint-order="fill" d="M 91.36363983154297 356.9319763183594 L 92.00942993164062 356.9319763183594 L 92.00942993164062 361.5454406738281 L 91.36363983154297 361.5454406738281 L 91.36363983154297 356.9319763183594 Z" fill-opacity="1" clip-path="url(#HLcdPndMCsoh)" stroke-opacity="1" stroke-linejoin="bevel" stroke-miterlimit="10"/><path fill="rgb(213,62,79)" stroke="rgb(213,62,79)" paint-order="fill" d="M 91.36363983154297 316.5639953613281 L 92.1170654296875 316.5639953613281 L 92.1170654296875 321.177490234375 L 91.36363983154297 321.177490234375 L 91.36363983154297 316.5639953613281 Z" fill-opacity="1" clip-path="url(#HLcdPndMCsoh)" stroke-opacity="1" stroke-linejoin="bevel" stroke-miterlimit="10"/><path fill="rgb(213,62,79)" stroke="rgb(213,62,79)" paint-order="fill" d="M 91.36363983154297 258.8954772949219 L 92.22469329833984 258.8954772949219 L 92.22469329833984 263.50897216796875 L 91.36363983154297 263.50897216796875 L 91.36363983154297 258.8954772949219 Z" fill-opacity="1" clip-path="url(#HLcdPndMCsoh)" stroke-opacity="1" stroke-linejoin="bevel" stroke-miterlimit="10"/><path fill="rgb(213,62,79)" stroke="rgb(213,62,79)" paint-order="fill" d="M 91.36363983154297 218.52752685546875 L 92.33232879638672 218.52752685546875 L 92.33232879638672 223.14100646972656 L 91.36363983154297 223.14100646972656 L 91.36363983154297 218.52752685546875 Z" fill-opacity="1" clip-path="url(#HLcdPndMCsoh)" stroke-opacity="1" stroke-linejoin="bevel" stroke-miterlimit="10"/><path fill="rgb(213,62,79)" stroke="rgb(213,62,79)" paint-order="fill" d="M 93.08575439453125 258.8954772949219 L 93.83917999267578 258.8954772949219 L 93.83917999267578 263.50897216796875 L 93.08575439453125 263.50897216796875 L 93.08575439453125 258.8954772949219 Z" fill-opacity="1" clip-path="url(#HLcdPndMCsoh)" stroke-opacity="1" stroke-linejoin="bevel" stroke-miterlimit="10"/><path fill="rgb(213,62,79)" stroke="rgb(213,62,79)" paint-order="fill" d="M 91.47126770019531 137.79159545898438 L 94.05445098876953 137.79159545898438 L 94.05445098876953 142.4050750732422 L 91.47126770019531 142.4050750732422 L 91.47126770019531 137.79159545898438 Z" fill-opacity="1" clip-path="url(#HLcdPndMCsoh)" stroke-opacity="1" stroke-linejoin="bevel" stroke-miterlimit="10"/><path fill="rgb(213,62,79)" stroke="rgb(213,62,79)" paint-order="fill" d="M 91.36363983154297 178.15956115722656 L 94.16207885742188 178.15956115722656 L 94.16207885742188 182.77304077148438 L 91.36363983154297 182.77304077148438 L 91.36363983154297 178.15956115722656 Z" fill-opacity="1" clip-path="url(#HLcdPndMCsoh)" stroke-opacity="1" stroke-linejoin="bevel" stroke-miterlimit="10"/><path fill="rgb(213,62,79)" stroke="rgb(213,62,79)" paint-order="fill" d="M 93.94681549072266 287.729736328125 L 134.84713745117188 287.729736328125 L 134.84713745117188 292.3432312011719 L 93.94681549072266 292.3432312011719 L 93.94681549072266 287.729736328125 Z" fill-opacity="1" clip-path="url(#HLcdPndMCsoh)" stroke-opacity="1" stroke-linejoin="bevel" stroke-miterlimit="10"/><path fill="rgb(213,62,79)" stroke="rgb(213,62,79)" paint-order="fill" d="M 94.05445098876953 258.8954772949219 L 134.84713745117188 258.8954772949219 L 134.84713745117188 263.50897216796875 L 94.05445098876953 263.50897216796875 L 94.05445098876953 258.8954772949219 Z" fill-opacity="1" clip-path="url(#HLcdPndMCsoh)" stroke-opacity="1" stroke-linejoin="bevel" stroke-miterlimit="10"/><path fill="rgb(213,62,79)" stroke="rgb(213,62,79)" paint-order="fill" d="M 93.94681549072266 247.36178588867188 L 134.84713745117188 247.36178588867188 L 134.84713745117188 251.9752655029297 L 93.94681549072266 251.9752655029297 L 93.94681549072266 247.36178588867188 Z" fill-opacity="1" clip-path="url(#HLcdPndMCsoh)" stroke-opacity="1" stroke-linejoin="bevel" stroke-miterlimit="10"/><path fill="rgb(213,62,79)" stroke="rgb(213,62,79)" paint-order="fill" d="M 93.94681549072266 218.52752685546875 L 134.84713745117188 218.52752685546875 L 134.84713745117188 223.14100646972656 L 93.94681549072266 223.14100646972656 L 93.94681549072266 218.52752685546875 Z" fill-opacity="1" clip-path="url(#HLcdPndMCsoh)" stroke-opacity="1" stroke-linejoin="bevel" stroke-miterlimit="10"/><path fill="rgb(213,62,79)" stroke="rgb(213,62,79)" paint-order="fill" d="M 94.05445098876953 137.79159545898438 L 134.84713745117188 137.79159545898438 L 134.84713745117188 142.4050750732422 L 94.05445098876953 142.4050750732422 L 94.05445098876953 137.79159545898438 Z" fill-opacity="1" clip-path="url(#HLcdPndMCsoh)" stroke-opacity="1" stroke-linejoin="bevel" stroke-miterlimit="10"/><path fill="rgb(213,62,79)" stroke="rgb(213,62,79)" paint-order="fill" d="M 134.84713745117188 287.729736328125 L 177.79248046875 287.729736328125 L 177.79248046875 292.3432312011719 L 134.84713745117188 292.3432312011719 L 134.84713745117188 287.729736328125 Z" fill-opacity="1" clip-path="url(#HLcdPndMCsoh)" stroke-opacity="1" stroke-linejoin="bevel" stroke-miterlimit="10"/><path fill="rgb(213,62,79)" stroke="rgb(213,62,79)" paint-order="fill" d="M 177.79248046875 287.729736328125 L 178.00775146484375 287.729736328125 L 178.00775146484375 292.3432312011719 L 177.79248046875 292.3432312011719 L 177.79248046875 287.729736328125 Z" fill-opacity="1" clip-path="url(#HLcdPndMCsoh)" stroke-opacity="1" stroke-linejoin="bevel" stroke-miterlimit="10"/><path fill="rgb(213,62,79)" stroke="rgb(213,62,79)" paint-order="fill" d="M 177.79248046875 218.52752685546875 L 178.11538696289062 218.52752685546875 L 178.11538696289062 223.14100646972656 L 177.79248046875 223.14100646972656 L 177.79248046875 218.52752685546875 Z" fill-opacity="1" clip-path="url(#HLcdPndMCsoh)" stroke-opacity="1" stroke-linejoin="bevel" stroke-miterlimit="10"/><path fill="rgb(213,62,79)" stroke="rgb(213,62,79)" paint-order="fill" d="M 179.08407592773438 287.729736328125 L 221.92178344726562 287.729736328125 L 221.92178344726562 292.3432312011719 L 179.08407592773438 292.3432312011719 L 179.08407592773438 287.729736328125 Z" fill-opacity="1" clip-path="url(#HLcdPndMCsoh)" stroke-opacity="1" stroke-linejoin="bevel" stroke-miterlimit="10"/><path fill="rgb(213,62,79)" stroke="rgb(213,62,79)" paint-order="fill" d="M 266.1587219238281 258.8954772949219 L 310.07275390625 258.8954772949219 L 310.07275390625 263.50897216796875 L 266.1587219238281 263.50897216796875 L 266.1587219238281 258.8954772949219 Z" fill-opacity="1" clip-path="url(#HLcdPndMCsoh)" stroke-opacity="1" stroke-linejoin="bevel" stroke-miterlimit="10"/><path fill="rgb(213,62,79)" stroke="rgb(213,62,79)" paint-order="fill" d="M 266.1587219238281 189.69325256347656 L 310.07275390625 189.69325256347656 L 310.07275390625 194.30674743652344 L 266.1587219238281 194.30674743652344 L 266.1587219238281 189.69325256347656 Z" fill-opacity="1" clip-path="url(#HLcdPndMCsoh)" stroke-opacity="1" stroke-linejoin="bevel" stroke-miterlimit="10"/><path fill="rgb(213,62,79)" stroke="rgb(213,62,79)" paint-order="fill" d="M 266.05108642578125 137.79159545898438 L 310.07275390625 137.79159545898438 L 310.07275390625 142.4050750732422 L 266.05108642578125 142.4050750732422 L 266.05108642578125 137.79159545898438 Z" fill-opacity="1" clip-path="url(#HLcdPndMCsoh)" stroke-opacity="1" stroke-linejoin="bevel" stroke-miterlimit="10"/><path fill="rgb(213,62,79)" stroke="rgb(213,62,79)" paint-order="fill" d="M 266.1587219238281 120.49103546142578 L 310.07275390625 120.49103546142578 L 310.07275390625 125.1045150756836 L 266.1587219238281 125.1045150756836 L 266.1587219238281 120.49103546142578 Z" fill-opacity="1" clip-path="url(#HLcdPndMCsoh)" stroke-opacity="1" stroke-linejoin="bevel" stroke-miterlimit="10"/><path fill="rgb(213,62,79)" stroke="rgb(213,62,79)" paint-order="fill" d="M 398.2237243652344 120.49103546142578 L 442.35302734375 120.49103546142578 L 442.35302734375 125.1045150756836 L 398.2237243652344 125.1045150756836 L 398.2237243652344 120.49103546142578 Z" fill-opacity="1" clip-path="url(#HLcdPndMCsoh)" stroke-opacity="1" stroke-linejoin="bevel" stroke-miterlimit="10"/><path fill="rgb(213,62,79)" stroke="rgb(213,62,79)" paint-order="fill" d="M 442.35302734375 137.79159545898438 L 487.4510192871094 137.79159545898438 L 487.4510192871094 142.4050750732422 L 442.35302734375 142.4050750732422 L 442.35302734375 137.79159545898438 Z" fill-opacity="1" clip-path="url(#HLcdPndMCsoh)" stroke-opacity="1" stroke-linejoin="bevel" stroke-miterlimit="10"/><path fill="rgb(213,62,79)" stroke="rgb(213,62,79)" paint-order="fill" d="M 442.35302734375 120.49103546142578 L 487.4510192871094 120.49103546142578 L 487.4510192871094 125.1045150756836 L 442.35302734375 125.1045150756836 L 442.35302734375 120.49103546142578 Z" fill-opacity="1" clip-path="url(#HLcdPndMCsoh)" stroke-opacity="1" stroke-linejoin="bevel" stroke-miterlimit="10"/><path fill="rgb(213,62,79)" stroke="rgb(213,62,79)" paint-order="fill" d="M 442.35302734375 68.58936309814453 L 487.4510192871094 68.58936309814453 L 487.4510192871094 73.20284271240234 L 442.35302734375 73.20284271240234 L 442.35302734375 68.58936309814453 Z" fill-opacity="1" clip-path="url(#HLcdPndMCsoh)" stroke-opacity="1" stroke-linejoin="bevel" stroke-miterlimit="10"/><path fill="rgb(213,62,79)" stroke="rgb(213,62,79)" paint-order="fill" d="M 442.35302734375 51.2888069152832 L 487.4510192871094 51.2888069152832 L 487.4510192871094 55.902286529541016 L 442.35302734375 55.902286529541016 L 442.35302734375 51.2888069152832 Z" fill-opacity="1" clip-path="url(#HLcdPndMCsoh)" stroke-opacity="1" stroke-linejoin="bevel" stroke-miterlimit="10"/><path fill="rgb(213,62,79)" stroke="rgb(213,62,79)" paint-order="fill" d="M 442.46063232421875 299.2634582519531 L 487.88153076171875 299.2634582519531 L 487.88153076171875 303.8769226074219 L 442.46063232421875 303.8769226074219 L 442.46063232421875 299.2634582519531 Z" fill-opacity="1" clip-path="url(#HLcdPndMCsoh)" stroke-opacity="1" stroke-linejoin="bevel" stroke-miterlimit="10"/><path fill="rgb(213,62,79)" stroke="rgb(213,62,79)" paint-order="fill" d="M 266.1587219238281 293.4966125488281 L 487.88153076171875 293.4966125488281 L 487.88153076171875 298.1100769042969 L 266.1587219238281 298.1100769042969 L 266.1587219238281 293.4966125488281 Z" fill-opacity="1" clip-path="url(#HLcdPndMCsoh)" stroke-opacity="1" stroke-linejoin="bevel" stroke-miterlimit="10"/><path fill="rgb(213,62,79)" stroke="rgb(213,62,79)" paint-order="fill" d="M 442.46063232421875 287.729736328125 L 487.88153076171875 287.729736328125 L 487.88153076171875 292.3432312011719 L 442.46063232421875 292.3432312011719 L 442.46063232421875 287.729736328125 Z" fill-opacity="1" clip-path="url(#HLcdPndMCsoh)" stroke-opacity="1" stroke-linejoin="bevel" stroke-miterlimit="10"/><path fill="rgb(213,62,79)" stroke="rgb(213,62,79)" paint-order="fill" d="M 442.46063232421875 276.196044921875 L 487.88153076171875 276.196044921875 L 487.88153076171875 280.80950927734375 L 442.46063232421875 280.80950927734375 L 442.46063232421875 276.196044921875 Z" fill-opacity="1" clip-path="url(#HLcdPndMCsoh)" stroke-opacity="1" stroke-linejoin="bevel" stroke-miterlimit="10"/><path fill="rgb(213,62,79)" stroke="rgb(213,62,79)" paint-order="fill" d="M 442.46063232421875 189.69325256347656 L 487.88153076171875 189.69325256347656 L 487.88153076171875 194.30674743652344 L 442.46063232421875 194.30674743652344 L 442.46063232421875 189.69325256347656 Z" fill-opacity="1" clip-path="url(#HLcdPndMCsoh)" stroke-opacity="1" stroke-linejoin="bevel" stroke-miterlimit="10"/><path fill="rgb(213,62,79)" stroke="rgb(213,62,79)" paint-order="fill" d="M 487.4510192871094 160.85899353027344 L 487.88153076171875 160.85899353027344 L 487.88153076171875 165.47247314453125 L 487.4510192871094 165.47247314453125 L 487.4510192871094 160.85899353027344 Z" fill-opacity="1" clip-path="url(#HLcdPndMCsoh)" stroke-opacity="1" stroke-linejoin="bevel" stroke-miterlimit="10"/><path fill="rgb(213,62,79)" stroke="rgb(213,62,79)" paint-order="fill" d="M 398.2237243652344 149.32528686523438 L 487.88153076171875 149.32528686523438 L 487.88153076171875 153.93878173828125 L 398.2237243652344 153.93878173828125 L 398.2237243652344 149.32528686523438 Z" fill-opacity="1" clip-path="url(#HLcdPndMCsoh)" stroke-opacity="1" stroke-linejoin="bevel" stroke-miterlimit="10"/><path fill="rgb(213,62,79)" stroke="rgb(213,62,79)" paint-order="fill" d="M 487.4510192871094 137.79159545898438 L 487.88153076171875 137.79159545898438 L 487.88153076171875 142.4050750732422 L 487.4510192871094 142.4050750732422 L 487.4510192871094 137.79159545898438 Z" fill-opacity="1" clip-path="url(#HLcdPndMCsoh)" stroke-opacity="1" stroke-linejoin="bevel" stroke-miterlimit="10"/><path fill="rgb(213,62,79)" stroke="rgb(213,62,79)" paint-order="fill" d="M 487.3433837890625 91.65676879882812 L 618.6549682617188 91.65676879882812 L 618.6549682617188 96.27025604248047 L 487.3433837890625 96.27025604248047 L 487.3433837890625 91.65676879882812 Z" fill-opacity="1" clip-path="url(#HLcdPndMCsoh)" stroke-opacity="1" stroke-linejoin="bevel" stroke-miterlimit="10"/><path fill="rgb(213,62,79)" stroke="rgb(213,62,79)" paint-order="fill" d="M 487.4510192871094 120.49103546142578 L 618.7625732421875 120.49103546142578 L 618.7625732421875 125.1045150756836 L 487.4510192871094 125.1045150756836 L 487.4510192871094 120.49103546142578 Z" fill-opacity="1" clip-path="url(#HLcdPndMCsoh)" stroke-opacity="1" stroke-linejoin="bevel" stroke-miterlimit="10"/><path fill="rgb(213,62,79)" stroke="rgb(213,62,79)" paint-order="fill" d="M 487.4510192871094 68.58936309814453 L 618.7625732421875 68.58936309814453 L 618.7625732421875 73.20284271240234 L 487.4510192871094 73.20284271240234 L 487.4510192871094 68.58936309814453 Z" fill-opacity="1" clip-path="url(#HLcdPndMCsoh)" stroke-opacity="1" stroke-linejoin="bevel" stroke-miterlimit="10"/><path fill="rgb(213,62,79)" stroke="rgb(213,62,79)" paint-order="fill" d="M 487.4510192871094 51.2888069152832 L 618.7625732421875 51.2888069152832 L 618.7625732421875 55.902286529541016 L 487.4510192871094 55.902286529541016 L 487.4510192871094 51.2888069152832 Z" fill-opacity="1" clip-path="url(#HLcdPndMCsoh)" stroke-opacity="1" stroke-linejoin="bevel" stroke-miterlimit="10"/><path fill="rgb(213,62,79)" stroke="rgb(213,62,79)" paint-order="fill" d="M 487.3433837890625 22.454545974731445 L 618.7625732421875 22.454545974731445 L 618.7625732421875 27.06802749633789 L 487.3433837890625 27.06802749633789 L 487.3433837890625 22.454545974731445 Z" fill-opacity="1" clip-path="url(#HLcdPndMCsoh)" stroke-opacity="1" stroke-linejoin="bevel" stroke-miterlimit="10"/><path fill="rgb(213,62,79)" stroke="rgb(213,62,79)" paint-order="fill" d="M 618.8702392578125 51.2888069152832 L 618.9778442382812 51.2888069152832 L 618.9778442382812 55.902286529541016 L 618.8702392578125 55.902286529541016 L 618.8702392578125 51.2888069152832 Z" fill-opacity="1" clip-path="url(#HLcdPndMCsoh)" stroke-opacity="1" stroke-linejoin="bevel" stroke-miterlimit="10"/><path fill="rgb(213,62,79)" stroke="rgb(213,62,79)" paint-order="fill" d="M 619.08544921875 276.196044921875 L 619.193115234375 276.196044921875 L 619.193115234375 280.80950927734375 L 619.08544921875 280.80950927734375 L 619.08544921875 276.196044921875 Z" fill-opacity="1" clip-path="url(#HLcdPndMCsoh)" stroke-opacity="1" stroke-linejoin="bevel" stroke-miterlimit="10"/><path fill="rgb(213,62,79)" stroke="rgb(213,62,79)" paint-order="fill" d="M 618.6549682617188 91.65676879882812 L 620.5923461914062 91.65676879882812 L 620.5923461914062 96.27025604248047 L 618.6549682617188 96.27025604248047 L 618.6549682617188 91.65676879882812 Z" fill-opacity="1" clip-path="url(#HLcdPndMCsoh)" stroke-opacity="1" stroke-linejoin="bevel" stroke-miterlimit="10"/><path fill="rgb(213,62,79)" stroke="rgb(213,62,79)" paint-order="fill" d="M 618.6549682617188 132.0247344970703 L 621.8839111328125 132.0247344970703 L 621.8839111328125 136.63821411132812 L 618.6549682617188 136.63821411132812 L 618.6549682617188 132.0247344970703 Z" fill-opacity="1" clip-path="url(#HLcdPndMCsoh)" stroke-opacity="1" stroke-linejoin="bevel" stroke-miterlimit="10"/><path fill="rgb(213,62,79)" stroke="rgb(213,62,79)" paint-order="fill" d="M 618.6549682617188 108.95732879638672 L 621.8839111328125 108.95732879638672 L 621.8839111328125 113.57080841064453 L 618.6549682617188 113.57080841064453 L 618.6549682617188 108.95732879638672 Z" fill-opacity="1" clip-path="url(#HLcdPndMCsoh)" stroke-opacity="1" stroke-linejoin="bevel" stroke-miterlimit="10"/><path fill="rgb(213,62,79)" stroke="rgb(213,62,79)" paint-order="fill" d="M 618.6549682617188 160.85899353027344 L 621.8839111328125 160.85899353027344 L 621.8839111328125 165.47247314453125 L 618.6549682617188 165.47247314453125 L 618.6549682617188 160.85899353027344 Z" fill-opacity="1" clip-path="url(#HLcdPndMCsoh)" stroke-opacity="1" stroke-linejoin="bevel" stroke-miterlimit="10"/><path fill="rgb(213,62,79)" stroke="rgb(213,62,79)" paint-order="fill" d="M 618.6549682617188 62.822509765625 L 621.8839111328125 62.822509765625 L 621.8839111328125 67.43598937988281 L 618.6549682617188 67.43598937988281 L 618.6549682617188 62.822509765625 Z" fill-opacity="1" clip-path="url(#HLcdPndMCsoh)" stroke-opacity="1" stroke-linejoin="bevel" stroke-miterlimit="10"/><path fill="rgb(213,62,79)" stroke="rgb(213,62,79)" paint-order="fill" d="M 618.6549682617188 230.06121826171875 L 621.8839111328125 230.06121826171875 L 621.8839111328125 234.67471313476562 L 618.6549682617188 234.67471313476562 L 618.6549682617188 230.06121826171875 Z" fill-opacity="1" clip-path="url(#HLcdPndMCsoh)" stroke-opacity="1" stroke-linejoin="bevel" stroke-miterlimit="10"/><path fill="rgb(213,62,79)" stroke="rgb(213,62,79)" paint-order="fill" d="M 620.3770751953125 22.454545974731445 L 621.8839111328125 22.454545974731445 L 621.8839111328125 27.06802749633789 L 620.3770751953125 27.06802749633789 L 620.3770751953125 22.454545974731445 Z" fill-opacity="1" clip-path="url(#HLcdPndMCsoh)" stroke-opacity="1" stroke-linejoin="bevel" stroke-miterlimit="10"/><path fill="rgb(213,62,79)" stroke="rgb(213,62,79)" paint-order="fill" d="M 618.6549682617188 299.2634582519531 L 621.8839111328125 299.2634582519531 L 621.8839111328125 303.8769226074219 L 618.6549682617188 303.8769226074219 L 618.6549682617188 299.2634582519531 Z" fill-opacity="1" clip-path="url(#HLcdPndMCsoh)" stroke-opacity="1" stroke-linejoin="bevel" stroke-miterlimit="10"/><path fill="rgb(213,62,79)" stroke="rgb(213,62,79)" paint-order="fill" d="M 618.6549682617188 270.42919921875 L 621.8839111328125 270.42919921875 L 621.8839111328125 275.04266357421875 L 618.6549682617188 275.04266357421875 L 618.6549682617188 270.42919921875 Z" fill-opacity="1" clip-path="url(#HLcdPndMCsoh)" stroke-opacity="1" stroke-linejoin="bevel" stroke-miterlimit="10"/><path fill="rgb(213,62,79)" stroke="rgb(213,62,79)" paint-order="fill" d="M 621.8839111328125 108.95732879638672 L 928.0982055664062 108.95732879638672 L 928.0982055664062 113.57080841064453 L 621.8839111328125 113.57080841064453 L 621.8839111328125 108.95732879638672 Z" fill-opacity="1" clip-path="url(#HLcdPndMCsoh)" stroke-opacity="1" stroke-linejoin="bevel" stroke-miterlimit="10"/><path fill="rgb(213,62,79)" stroke="rgb(213,62,79)" paint-order="fill" d="M 621.8839111328125 132.0247344970703 L 928.0982055664062 132.0247344970703 L 928.0982055664062 136.63821411132812 L 621.8839111328125 136.63821411132812 L 621.8839111328125 132.0247344970703 Z" fill-opacity="1" clip-path="url(#HLcdPndMCsoh)" stroke-opacity="1" stroke-linejoin="bevel" stroke-miterlimit="10"/><path fill="rgb(213,62,79)" stroke="rgb(213,62,79)" paint-order="fill" d="M 621.8839111328125 299.2634582519531 L 928.5287475585938 299.2634582519531 L 928.5287475585938 303.8769226074219 L 621.8839111328125 303.8769226074219 L 621.8839111328125 299.2634582519531 Z" fill-opacity="1" clip-path="url(#HLcdPndMCsoh)" stroke-opacity="1" stroke-linejoin="bevel" stroke-miterlimit="10"/><path fill="rgb(213,62,79)" stroke="rgb(213,62,79)" paint-order="fill" d="M 622.314453125 276.196044921875 L 928.5287475585938 276.196044921875 L 928.5287475585938 280.80950927734375 L 622.314453125 280.80950927734375 L 622.314453125 276.196044921875 Z" fill-opacity="1" clip-path="url(#HLcdPndMCsoh)" stroke-opacity="1" stroke-linejoin="bevel" stroke-miterlimit="10"/><path fill="rgb(213,62,79)" stroke="rgb(213,62,79)" paint-order="fill" d="M 621.8839111328125 62.822509765625 L 928.5287475585938 62.822509765625 L 928.5287475585938 67.43598937988281 L 621.8839111328125 67.43598937988281 L 621.8839111328125 62.822509765625 Z" fill-opacity="1" clip-path="url(#HLcdPndMCsoh)" stroke-opacity="1" stroke-linejoin="bevel" stroke-miterlimit="10"/><path fill="rgb(213,62,79)" stroke="rgb(213,62,79)" paint-order="fill" d="M 94.05445098876953 316.5639953613281 L 928.6363525390625 316.5639953613281 L 928.6363525390625 321.177490234375 L 94.05445098876953 321.177490234375 L 94.05445098876953 316.5639953613281 Z" fill-opacity="1" clip-path="url(#HLcdPndMCsoh)" stroke-opacity="1" stroke-linejoin="bevel" stroke-miterlimit="10"/><path fill="rgb(213,62,79)" stroke="rgb(213,62,79)" paint-order="fill" d="M 134.739501953125 345.39825439453125 L 928.6363525390625 345.39825439453125 L 928.6363525390625 350.0117492675781 L 134.739501953125 350.0117492675781 L 134.739501953125 345.39825439453125 Z" fill-opacity="1" clip-path="url(#HLcdPndMCsoh)" stroke-opacity="1" stroke-linejoin="bevel" stroke-miterlimit="10"/><path fill="rgb(213,62,79)" stroke="rgb(213,62,79)" paint-order="fill" d="M 266.1587219238281 328.09771728515625 L 928.6363525390625 328.09771728515625 L 928.6363525390625 332.711181640625 L 266.1587219238281 332.711181640625 L 266.1587219238281 328.09771728515625 Z" fill-opacity="1" clip-path="url(#HLcdPndMCsoh)" stroke-opacity="1" stroke-linejoin="bevel" stroke-miterlimit="10"/><path fill="rgb(213,62,79)" stroke="rgb(213,62,79)" paint-order="fill" d="M 266.266357421875 310.7971496582031 L 928.6363525390625 310.7971496582031 L 928.6363525390625 315.41064453125 L 266.266357421875 315.41064453125 L 266.266357421875 310.7971496582031 Z" fill-opacity="1" clip-path="url(#HLcdPndMCsoh)" stroke-opacity="1" stroke-linejoin="bevel" stroke-miterlimit="10"/><path fill="rgb(213,62,79)" stroke="rgb(213,62,79)" paint-order="fill" d="M 620.5923461914062 39.75510025024414 L 928.6363525390625 39.75510025024414 L 928.6363525390625 44.36858367919922 L 620.5923461914062 44.36858367919922 L 620.5923461914062 39.75510025024414 Z" fill-opacity="1" clip-path="url(#HLcdPndMCsoh)" stroke-opacity="1" stroke-linejoin="bevel" stroke-miterlimit="10"/><path fill="rgb(213,62,79)" stroke="rgb(213,62,79)" paint-order="fill" d="M 621.8839111328125 91.65676879882812 L 928.6363525390625 91.65676879882812 L 928.6363525390625 96.27025604248047 L 621.8839111328125 96.27025604248047 L 621.8839111328125 91.65676879882812 Z" fill-opacity="1" clip-path="url(#HLcdPndMCsoh)" stroke-opacity="1" stroke-linejoin="bevel" stroke-miterlimit="10"/><path fill="rgb(213,62,79)" stroke="rgb(213,62,79)" paint-order="fill" d="M 621.8839111328125 160.85899353027344 L 928.6363525390625 160.85899353027344 L 928.6363525390625 165.47247314453125 L 621.8839111328125 165.47247314453125 L 621.8839111328125 160.85899353027344 Z" fill-opacity="1" clip-path="url(#HLcdPndMCsoh)" stroke-opacity="1" stroke-linejoin="bevel" stroke-miterlimit="10"/><path fill="rgb(213,62,79)" stroke="rgb(213,62,79)" paint-order="fill" d="M 621.8839111328125 230.06121826171875 L 928.6363525390625 230.06121826171875 L 928.6363525390625 234.67471313476562 L 621.8839111328125 234.67471313476562 L 621.8839111328125 230.06121826171875 Z" fill-opacity="1" clip-path="url(#HLcdPndMCsoh)" stroke-opacity="1" stroke-linejoin="bevel" stroke-miterlimit="10"/><path fill="rgb(213,62,79)" stroke="rgb(213,62,79)" paint-order="fill" d="M 621.8839111328125 22.454545974731445 L 928.6363525390625 22.454545974731445 L 928.6363525390625 27.06802749633789 L 621.8839111328125 27.06802749633789 L 621.8839111328125 22.454545974731445 Z" fill-opacity="1" clip-path="url(#HLcdPndMCsoh)" stroke-opacity="1" stroke-linejoin="bevel" stroke-miterlimit="10"/><path fill="rgb(213,62,79)" stroke="rgb(213,62,79)" paint-order="fill" d="M 621.8839111328125 270.42919921875 L 928.6363525390625 270.42919921875 L 928.6363525390625 275.04266357421875 L 621.8839111328125 275.04266357421875 L 621.8839111328125 270.42919921875 Z" fill-opacity="1" clip-path="url(#HLcdPndMCsoh)" stroke-opacity="1" stroke-linejoin="bevel" stroke-miterlimit="10"/><path fill="rgb(213,62,79)" stroke="rgb(213,62,79)" paint-order="fill" d="M 928.0982055664062 108.95732879638672 L 928.6363525390625 108.95732879638672 L 928.6363525390625 113.57080841064453 L 928.0982055664062 113.57080841064453 L 928.0982055664062 108.95732879638672 Z" fill-opacity="1" clip-path="url(#HLcdPndMCsoh)" stroke-opacity="1" stroke-linejoin="bevel" stroke-miterlimit="10"/><path fill="rgb(213,62,79)" stroke="rgb(213,62,79)" paint-order="fill" d="M 928.0982055664062 132.0247344970703 L 928.6363525390625 132.0247344970703 L 928.6363525390625 136.63821411132812 L 928.0982055664062 136.63821411132812 L 928.0982055664062 132.0247344970703 Z" fill-opacity="1" clip-path="url(#HLcdPndMCsoh)" stroke-opacity="1" stroke-linejoin="bevel" stroke-miterlimit="10"/><path fill="rgb(213,62,79)" stroke="rgb(213,62,79)" paint-order="fill" d="M 928.205810546875 149.32528686523438 L 928.6363525390625 149.32528686523438 L 928.6363525390625 153.93878173828125 L 928.205810546875 153.93878173828125 L 928.205810546875 149.32528686523438 Z" fill-opacity="1" clip-path="url(#HLcdPndMCsoh)" stroke-opacity="1" stroke-linejoin="bevel" stroke-miterlimit="10"/><path fill="rgb(213,62,79)" stroke="rgb(213,62,79)" paint-order="fill" d="M 928.3134765625 218.52752685546875 L 928.6363525390625 218.52752685546875 L 928.6363525390625 223.14100646972656 L 928.3134765625 223.14100646972656 L 928.3134765625 218.52752685546875 Z" fill-opacity="1" clip-path="url(#HLcdPndMCsoh)" stroke-opacity="1" stroke-linejoin="bevel" stroke-miterlimit="10"/><path fill="rgb(213,62,79)" stroke="rgb(213,62,79)" paint-order="fill" d="M 928.3134765625 189.69325256347656 L 928.6363525390625 189.69325256347656 L 928.6363525390625 194.30674743652344 L 928.3134765625 194.30674743652344 L 928.3134765625 189.69325256347656 Z" fill-opacity="1" clip-path="url(#HLcdPndMCsoh)" stroke-opacity="1" stroke-linejoin="bevel" stroke-miterlimit="10"/><path fill="rgb(213,62,79)" stroke="rgb(213,62,79)" paint-order="fill" d="M 928.4210815429688 137.79159545898438 L 928.6363525390625 137.79159545898438 L 928.6363525390625 142.4050750732422 L 928.4210815429688 142.4050750732422 L 928.4210815429688 137.79159545898438 Z" fill-opacity="1" clip-path="url(#HLcdPndMCsoh)" stroke-opacity="1" stroke-linejoin="bevel" stroke-miterlimit="10"/><path fill="rgb(213,62,79)" stroke="rgb(213,62,79)" paint-order="fill" d="M 928.5287475585938 299.2634582519531 L 928.6363525390625 299.2634582519531 L 928.6363525390625 303.8769226074219 L 928.5287475585938 303.8769226074219 L 928.5287475585938 299.2634582519531 Z" fill-opacity="1" clip-path="url(#HLcdPndMCsoh)" stroke-opacity="1" stroke-linejoin="bevel" stroke-miterlimit="10"/><path fill="none" stroke="rgb(0,0,0)" paint-order="fill" d="M 49.5 378.5 L 970.5 378.5" stroke-opacity="1" stroke-linejoin="bevel" stroke-miterlimit="10"/><path fill="none" stroke="rgb(0,0,0)" paint-order="fill" d="M 260.5 384.5 L 260.5 376.5 M 476.5 384.5 L 476.5 376.5 M 691.5 384.5 L 691.5 376.5 M 906.5 384.5 L 906.5 376.5" stroke-opacity="1" stroke-linejoin="bevel" stroke-miterlimit="10"/><path fill="none" stroke="rgb(0,0,0)" paint-order="fill" d="M 217.5 382.5 L 217.5 378.5 M 174.5 382.5 L 174.5 378.5 M 131.5 382.5 L 131.5 378.5 M 88.5 382.5 L 88.5 378.5 M 260.5 382.5 L 260.5 378.5 M 303.5 382.5 L 303.5 378.5 M 346.5 382.5 L 346.5 378.5 M 390.5 382.5 L 390.5 378.5 M 433.5 382.5 L 433.5 378.5 M 476.5 382.5 L 476.5 378.5 M 519.5 382.5 L 519.5 378.5 M 562.5 382.5 L 562.5 378.5 M 605.5 382.5 L 605.5 378.5 M 648.5 382.5 L 648.5 378.5 M 691.5 382.5 L 691.5 378.5 M 734.5 382.5 L 734.5 378.5 M 777.5 382.5 L 777.5 378.5 M 820.5 382.5 L 820.5 378.5 M 863.5 382.5 L 863.5 378.5 M 906.5 382.5 L 906.5 378.5 M 949.5 382.5 L 949.5 378.5" stroke-opacity="1" stroke-linejoin="bevel" stroke-miterlimit="10"/><text fill="rgb(68,68,68)" stroke="none" font-family="helvetica" font-size="11px" font-style="normal" font-weight="normal" text-decoration="normal" x="254.26705932617188" y="397" text-anchor="start" dominant-baseline="alphabetic" transform="matrix(1, 0, 0, 1, 0.5, 0.5)" fill-opacity="1">20</text><text fill="none" stroke="rgb(0,0,0)" font-family="helvetica" font-size="11px" font-style="normal" font-weight="normal" text-decoration="normal" x="254.26705932617188" y="397" text-anchor="start" dominant-baseline="alphabetic" transform="matrix(1, 0, 0, 1, 0.5, 0.5)" stroke-opacity="0" stroke-linejoin="bevel" stroke-miterlimit="10">20</text><text fill="rgb(68,68,68)" stroke="none" font-family="helvetica" font-size="11px" font-style="normal" font-weight="normal" text-decoration="normal" x="469.53192138671875" y="397" text-anchor="start" dominant-baseline="alphabetic" transform="matrix(1, 0, 0, 1, 0.5, 0.5)" fill-opacity="1">40</text><text fill="none" stroke="rgb(0,0,0)" font-family="helvetica" font-size="11px" font-style="normal" font-weight="normal" text-decoration="normal" x="469.53192138671875" y="397" text-anchor="start" dominant-baseline="alphabetic" transform="matrix(1, 0, 0, 1, 0.5, 0.5)" stroke-opacity="0" stroke-linejoin="bevel" stroke-miterlimit="10">40</text><text fill="rgb(68,68,68)" stroke="none" font-family="helvetica" font-size="11px" font-style="normal" font-weight="normal" text-decoration="normal" x="684.7968139648438" y="397" text-anchor="start" dominant-baseline="alphabetic" transform="matrix(1, 0, 0, 1, 0.5, 0.5)" fill-opacity="1">60</text><text fill="none" stroke="rgb(0,0,0)" font-family="helvetica" font-size="11px" font-style="normal" font-weight="normal" text-decoration="normal" x="684.7968139648438" y="397" text-anchor="start" dominant-baseline="alphabetic" transform="matrix(1, 0, 0, 1, 0.5, 0.5)" stroke-opacity="0" stroke-linejoin="bevel" stroke-miterlimit="10">60</text><text fill="rgb(68,68,68)" stroke="none" font-family="helvetica" font-size="11px" font-style="normal" font-weight="normal" text-decoration="normal" x="900.0616455078125" y="397" text-anchor="start" dominant-baseline="alphabetic" transform="matrix(1, 0, 0, 1, 0.5, 0.5)" fill-opacity="1">80</text><text fill="none" stroke="rgb(0,0,0)" font-family="helvetica" font-size="11px" font-style="normal" font-weight="normal" text-decoration="normal" x="900.0616455078125" y="397" text-anchor="start" dominant-baseline="alphabetic" transform="matrix(1, 0, 0, 1, 0.5, 0.5)" stroke-opacity="0" stroke-linejoin="bevel" stroke-miterlimit="10">80</text><text fill="rgb(68,68,68)" stroke="none" font-family="helvetica" font-size="13px" font-style="italic" font-weight="normal" text-decoration="normal" x="509.5" y="414" text-anchor="start" dominant-baseline="alphabetic" transform="matrix(1, 0, 0, 1, 0.5, 0.5)" fill-opacity="1"></text><text fill="none" stroke="rgb(0,0,0)" font-family="helvetica" font-size="13px" font-style="italic" font-weight="normal" text-decoration="normal" x="509.5" y="414" text-anchor="start" dominant-baseline="alphabetic" transform="matrix(1, 0, 0, 1, 0.5, 0.5)" stroke-opacity="0" stroke-linejoin="bevel" stroke-miterlimit="10"></text><path fill="none" stroke="rgb(0,0,0)" paint-order="fill" d="M 49.5 378.5 L 49.5 5.5" stroke-opacity="1" stroke-linejoin="bevel" stroke-miterlimit="10"/><path fill="none" stroke="rgb(0,0,0)" paint-order="fill" d="M 43.5 341.5 L 51.5 341.5 M 43.5 272.5 L 51.5 272.5 M 43.5 203.5 L 51.5 203.5 M 43.5 134.5 L 51.5 134.5 M 43.5 65.5 L 51.5 65.5" stroke-opacity="1" stroke-linejoin="bevel" stroke-miterlimit="10"/><path fill="none" stroke="rgb(0,0,0)" paint-order="fill" d="M 45.5 355.5 L 49.5 355.5 M 45.5 369.5 L 49.5 369.5 M 45.5 341.5 L 49.5 341.5 M 45.5 328.5 L 49.5 328.5 M 45.5 314.5 L 49.5 314.5 M 45.5 300.5 L 49.5 300.5 M 45.5 286.5 L 49.5 286.5 M 45.5 272.5 L 49.5 272.5 M 45.5 258.5 L 49.5 258.5 M 45.5 245.5 L 49.5 245.5 M 45.5 231.5 L 49.5 231.5 M 45.5 217.5 L 49.5 217.5 M 45.5 203.5 L 49.5 203.5 M 45.5 189.5 L 49.5 189.5 M 45.5 175.5 L 49.5 175.5 M 45.5 162.5 L 49.5 162.5 M 45.5 148.5 L 49.5 148.5 M 45.5 134.5 L 49.5 134.5 M 45.5 120.5 L 49.5 120.5 M 45.5 106.5 L 49.5 106.5 M 45.5 92.5 L 49.5 92.5 M 45.5 78.5 L 49.5 78.5 M 45.5 65.5 L 49.5 65.5 M 45.5 51.5 L 49.5 51.5 M 45.5 37.5 L 49.5 37.5 M 45.5 23.5 L 49.5 23.5 M 45.5 9.5 L 49.5 9.5" stroke-opacity="1" stroke-linejoin="bevel" stroke-miterlimit="10"/><text fill="rgb(68,68,68)" stroke="none" font-family="helvetica" font-size="11px" font-style="normal" font-weight="normal" text-decoration="normal" x="25.7646484375" y="345.43817138671875" text-anchor="start" dominant-baseline="alphabetic" transform="matrix(1, 0, 0, 1, 0.5, 0.5)" fill-opacity="1">24</text><text fill="none" stroke="rgb(0,0,0)" font-family="helvetica" font-size="11px" font-style="normal" font-weight="normal" text-decoration="normal" x="25.7646484375" y="345.43817138671875" text-anchor="start" dominant-baseline="alphabetic" transform="matrix(1, 0, 0, 1, 0.5, 0.5)" stroke-opacity="0" stroke-linejoin="bevel" stroke-miterlimit="10">24</text><text fill="rgb(68,68,68)" stroke="none" font-family="helvetica" font-size="11px" font-style="normal" font-weight="normal" text-decoration="normal" x="25.7646484375" y="276.2359313964844" text-anchor="start" dominant-baseline="alphabetic" transform="matrix(1, 0, 0, 1, 0.5, 0.5)" fill-opacity="1">36</text><text fill="none" stroke="rgb(0,0,0)" font-family="helvetica" font-size="11px" font-style="normal" font-weight="normal" text-decoration="normal" x="25.7646484375" y="276.2359313964844" text-anchor="start" dominant-baseline="alphabetic" transform="matrix(1, 0, 0, 1, 0.5, 0.5)" stroke-opacity="0" stroke-linejoin="bevel" stroke-miterlimit="10">36</text><text fill="rgb(68,68,68)" stroke="none" font-family="helvetica" font-size="11px" font-style="normal" font-weight="normal" text-decoration="normal" x="25.7646484375" y="207.03370666503906" text-anchor="start" dominant-baseline="alphabetic" transform="matrix(1, 0, 0, 1, 0.5, 0.5)" fill-opacity="1">48</text><text fill="none" stroke="rgb(0,0,0)" font-family="helvetica" font-size="11px" font-style="normal" font-weight="normal" text-decoration="normal" x="25.7646484375" y="207.03370666503906" text-anchor="start" dominant-baseline="alphabetic" transform="matrix(1, 0, 0, 1, 0.5, 0.5)" stroke-opacity="0" stroke-linejoin="bevel" stroke-miterlimit="10">48</text><text fill="rgb(68,68,68)" stroke="none" font-family="helvetica" font-size="11px" font-style="normal" font-weight="normal" text-decoration="normal" x="25.7646484375" y="137.83148193359375" text-anchor="start" dominant-baseline="alphabetic" transform="matrix(1, 0, 0, 1, 0.5, 0.5)" fill-opacity="1">60</text><text fill="none" stroke="rgb(0,0,0)" font-family="helvetica" font-size="11px" font-style="normal" font-weight="normal" text-decoration="normal" x="25.7646484375" y="137.83148193359375" text-anchor="start" dominant-baseline="alphabetic" transform="matrix(1, 0, 0, 1, 0.5, 0.5)" stroke-opacity="0" stroke-linejoin="bevel" stroke-miterlimit="10">60</text><text fill="rgb(68,68,68)" stroke="none" font-family="helvetica" font-size="11px" font-style="normal" font-weight="normal" text-decoration="normal" x="25.7646484375" y="68.6292495727539" text-anchor="start" dominant-baseline="alphabetic" transform="matrix(1, 0, 0, 1, 0.5, 0.5)" fill-opacity="1">72</text><text fill="none" stroke="rgb(0,0,0)" font-family="helvetica" font-size="11px" font-style="normal" font-weight="normal" text-decoration="normal" x="25.7646484375" y="68.6292495727539" text-anchor="start" dominant-baseline="alphabetic" transform="matrix(1, 0, 0, 1, 0.5, 0.5)" stroke-opacity="0" stroke-linejoin="bevel" stroke-miterlimit="10">72</text><text fill="rgb(68,68,68)" stroke="none" font-family="helvetica" font-size="13px" font-style="italic" font-weight="normal" text-decoration="normal" x="4.03466796875" y="188.5" text-anchor="start" dominant-baseline="alphabetic" transform="matrix(6.123233995736766e-17, -1, 1, 6.123233995736766e-17, -173.2353515625, 209.7646484375)" fill-opacity="1">pitch</text><text fill="none" stroke="rgb(0,0,0)" font-family="helvetica" font-size="13px" font-style="italic" font-weight="normal" text-decoration="normal" x="4.03466796875" y="188.5" text-anchor="start" dominant-baseline="alphabetic" transform="matrix(6.123233995736766e-17, -1, 1, 6.123233995736766e-17, -173.2353515625, 209.7646484375)" stroke-opacity="0" stroke-linejoin="bevel" stroke-miterlimit="10">pitch</text></svg>