<svg version="1.1" xmlns="http://www.w3.org/2000/svg" width="1000" height="400"><defs><clipPath id="GFwFcnLpFHQh"><path fill="none" stroke="none" d="M 55.5 5.5 L 970.5 5.5 L 970.5 378.5 L 55.5 378.5 L 55.5 5.5 Z"/></clipPath><clipPath id="DmNmXKfrCoPW"><path fill="none" stroke="none" d="M 55.5 5.5 L 970.5 5.5 L 970.5 378.5 L 55.5 378.5 L 55.5 5.5 Z"/></clipPath><clipPath id="xPeqDLTLBABX"><path fill="none" stroke="none" d="M 55.5 5.5 L 970.5 5.5 L 970.5 378.5 L 55.5 378.5 L 55.5 5.5 Z"/></clipPath><clipPath id="LDnCSFlmDqgg"><path fill="none" stroke="none" d="M 55.5 5.5 L 970.5 5.5 L 970.5 378.5 L 55.5 378.5 L 55.5 5.5 Z"/></clipPath></defs><path fill="none" stroke="rgb(229,229,229)" paint-order="fill" d="M 55.5 5.5 L 970.5 5.5 L 970.5 378.5 L 55.5 378.5 L 55.5 5.5 Z" stroke-opacity="1" stroke-linejoin="bevel" stroke-miterlimit="10"/><path fill="none" stroke="rgb(229,229,229)" paint-order="fill" d="M 95.5 378.5 L 95.5 5.5 M 234.5 378.5 L 234.5 5.5 M 373.5 378.5 L 373.5 5.5 M 512.5 378.5 L 512.5 5.5 M 651.5 378.5 L 651.5 5.5 M 790.5 378.5 L 790.5 5.5 M 928.5 378.5 L 928.5 5.5" stroke-opacity="1" stroke-linejoin="bevel" stroke-miterlimit="10" clip-path="url(#GFwFcnLpFHQh)"/><path fill="none" stroke="rgb(229,229,229)" paint-order="fill" d="M 55.5 341.5 L 970.5 341.5 M 55.5 286.5 L 970.5 286.5 M 55.5 231.5 L 970.5 231.5 M 55.5 175.5 L 970.5 175.5 M 55.5 120.5 L 970.5 120.5 M 55.5 65.5 L 970.5 65.5 M 55.5 10.5 L 970.5 10.5" stroke-opacity="1" stroke-linejoin="bevel" stroke-miterlimit="10" clip-path="url(#DmNmXKfrCoPW)"/><path fill="rgb(213,62,79)" stroke="rgb(213,62,79)" paint-order="fill" d="M 97.09091186523438 59.21236801147461 L 98.47958374023438 59.21236801147461 L 98.47958374023438 62.88814926147461 L 97.09091186523438 62.88814926147461 L 97.09091186523438 59.21236801147461 Z" fill-opacity="1" clip-path="url(#xPeqDLTLBABX)" stroke-opacity="1" stroke-linejoin="bevel" stroke-miterlimit="10"/><path fill="rgb(213,62,79)" stroke="rgb(213,62,79)" paint-order="fill" d="M 97.09091186523438 50.022911071777344 L 98.47958374023438 50.022911071777344 L 98.47958374023438 53.69869613647461 L 97.09091186523438 53.69869613647461 L 97.09091186523438 50.022911071777344 Z" fill-opacity="1" clip-path="url(#xPeqDLTLBABX)" stroke-opacity="1" stroke-linejoin="bevel" stroke-miterlimit="10"/><path fill="rgb(213,62,79)" stroke="rgb(213,62,79)" paint-order="fill" d="M 97.09091186523438 36.23872756958008 L 98.47958374023438 36.23872756958008 L 98.47958374023438 39.914512634277344 L 97.09091186523438 39.914512634277344 L 97.09091186523438 36.23872756958008 Z" fill-opacity="1" clip-path="url(#xPeqDLTLBABX)" stroke-opacity="1" stroke-linejoin="bevel" stroke-miterlimit="10"/><path fill="rgb(213,62,79)" stroke="rgb(213,62,79)" paint-order="fill" d="M 110.97769165039062 31.644001007080078 L 113.75504302978516 31.644001007080078 L 113.75504302978516 35.31978225708008 L 110.97769165039062 35.31978225708008 L 110.97769165039062 31.644001007080078 Z" fill-opacity="1" clip-path="url(#xPeqDLTLBABX)" stroke-opacity="1" stroke-linejoin="bevel" stroke-miterlimit="10"/><path fill="rgb(213,62,79)" stroke="rgb(213,62,79)" paint-order="fill" d="M 109.5890121459961 50.022911071777344 L 115.14372253417969 50.022911071777344 L 115.14372253417969 53.69869613647461 L 109.5890121459961 53.69869613647461 L 109.5890121459961 50.022911071777344 Z" fill-opacity="1" clip-path="url(#xPeqDLTLBABX)" stroke-opacity="1" stroke-linejoin="bevel" stroke-miterlimit="10"/><path fill="rgb(213,62,79)" stroke="rgb(213,62,79)" paint-order="fill" d="M 116.53240203857422 36.23872756958008 L 117.92108154296875 36.23872756958008 L 117.92108154296875 39.914512634277344 L 116.53240203857422 39.914512634277344 L 116.53240203857422 36.23872756958008 Z" fill-opacity="1" clip-path="url(#xPeqDLTLBABX)" stroke-opacity="1" stroke-linejoin="bevel" stroke-miterlimit="10"/><path fill="rgb(213,62,79)" stroke="rgb(213,62,79)" paint-order="fill" d="M 124.86447143554688 22.454545974731445 L 127.64183044433594 22.454545974731445 L 127.64183044433594 26.130327224731445 L 124.86447143554688 26.130327224731445 L 124.86447143554688 22.454545974731445 Z" fill-opacity="1" clip-path="url(#xPeqDLTLBABX)" stroke-opacity="1" stroke-linejoin="bevel" stroke-miterlimit="10"/><path fill="rgb(213,62,79)" stroke="rgb(213,62,79)" paint-order="fill" d="M 126.2531509399414 109.7543716430664 L 129.03050231933594 109.7543716430664 L 129.03050231933594 113.4301528930664 L 126.2531509399414 113.4301528930664 L 126.2531509399414 109.7543716430664 Z" fill-opacity="1" clip-path="url(#xPeqDLTLBABX)" stroke-opacity="1" stroke-linejoin="bevel" stroke-miterlimit="10"/><path fill="rgb(213,62,79)" stroke="rgb(213,62,79)" paint-order="fill" d="M 130.419189453125 59.21236801147461 L 131.807861328125 59.21236801147461 L 131.807861328125 62.88814926147461 L 130.419189453125 62.88814926147461 L 130.419189453125 59.21236801147461 Z" fill-opacity="1" clip-path="url(#xPeqDLTLBABX)" stroke-opacity="1" stroke-linejoin="bevel" stroke-miterlimit="10"/><path fill="rgb(213,62,79)" stroke="rgb(213,62,79)" paint-order="fill" d="M 142.9172821044922 54.61764144897461 L 148.4720001220703 54.61764144897461 L 148.4720001220703 58.29342269897461 L 142.9172821044922 58.29342269897461 L 142.9172821044922 54.61764144897461 Z" fill-opacity="1" clip-path="url(#xPeqDLTLBABX)" stroke-opacity="1" stroke-linejoin="bevel" stroke-miterlimit="10"/><path fill="rgb(213,62,79)" stroke="rgb(213,62,79)" paint-order="fill" d="M 142.9172821044922 357.8696594238281 L 149.8606719970703 357.8696594238281 L 149.8606719970703 361.5454406738281 L 142.9172821044922 361.5454406738281 L 142.9172821044922 357.8696594238281 Z" fill-opacity="1" clip-path="url(#xPeqDLTLBABX)" stroke-opacity="1" stroke-linejoin="bevel" stroke-miterlimit="10"/><path fill="rgb(213,62,79)" stroke="rgb(213,62,79)" paint-order="fill" d="M 147.0833282470703 36.23872756958008 L 149.8606719970703 36.23872756958008 L 149.8606719970703 39.914512634277344 L 147.0833282470703 39.914512634277344 L 147.0833282470703 36.23872756958008 Z" fill-opacity="1" clip-path="url(#xPeqDLTLBABX)" stroke-opacity="1" stroke-linejoin="bevel" stroke-miterlimit="10"/><path fill="rgb(213,62,79)" stroke="rgb(213,62,79)" paint-order="fill" d="M 141.5286102294922 109.7543716430664 L 151.24935913085938 109.7543716430664 L 151.24935913085938 113.4301528930664 L 141.5286102294922 113.4301528930664 L 141.5286102294922 109.7543716430664 Z" fill-opacity="1" clip-path="url(#xPeqDLTLBABX)" stroke-opacity="1" stroke-linejoin="bevel" stroke-miterlimit="10"/><path fill="rgb(213,62,79)" stroke="rgb(213,62,79)" paint-order="fill" d="M 142.9172821044922 59.21236801147461 L 151.24935913085938 59.21236801147461 L 151.24935913085938 62.88814926147461 L 142.9172821044922 62.88814926147461 L 142.9172821044922 59.21236801147461 Z" fill-opacity="1" clip-path="url(#xPeqDLTLBABX)" stroke-opacity="1" stroke-linejoin="bevel" stroke-miterlimit="10"/><path fill="rgb(213,62,79)" stroke="rgb(213,62,79)" paint-order="fill" d="M 148.4720001220703 54.61764144897461 L 151.24935913085938 54.61764144897461 L 151.24935913085938 58.29342269897461 L 148.4720001220703 58.29342269897461 L 148.4720001220703 54.61764144897461 Z" fill-opacity="1" clip-path="url(#xPeqDLTLBABX)" stroke-opacity="1" stroke-linejoin="bevel" stroke-miterlimit="10"/><path fill="rgb(213,62,79)" stroke="rgb(213,62,79)" paint-order="fill" d="M 144.30596923828125 82.18600463867188 L 152.63803100585938 82.18600463867188 L 152.63803100585938 85.86178588867188 L 144.30596923828125 85.86178588867188 L 144.30596923828125 82.18600463867188 Z" fill-opacity="1" clip-path="url(#xPeqDLTLBABX)" stroke-opacity="1" stroke-linejoin="bevel" stroke-miterlimit="10"/><path fill="rgb(213,62,79)" stroke="rgb(213,62,79)" paint-order="fill" d="M 149.8606719970703 36.23872756958008 L 152.63803100585938 36.23872756958008 L 152.63803100585938 39.914512634277344 L 149.8606719970703 39.914512634277344 L 149.8606719970703 36.23872756958008 Z" fill-opacity="1" clip-path="url(#xPeqDLTLBABX)" stroke-opacity="1" stroke-linejoin="bevel" stroke-miterlimit="10"/><path fill="rgb(213,62,79)" stroke="rgb(213,62,79)" paint-order="fill" d="M 151.24935913085938 357.8696594238281 L 163.74745178222656 357.8696594238281 L 163.74745178222656 361.5454406738281 L 151.24935913085938 361.5454406738281 L 151.24935913085938 357.8696594238281 Z" fill-opacity="1" clip-path="url(#xPeqDLTLBABX)" stroke-opacity="1" stroke-linejoin="bevel" stroke-miterlimit="10"/><path fill="rgb(213,62,79)" stroke="rgb(213,62,79)" paint-order="fill" d="M 162.35877990722656 50.022911071777344 L 165.13613891601562 50.022911071777344 L 165.13613891601562 53.69869613647461 L 162.35877990722656 53.69869613647461 L 162.35877990722656 50.022911071777344 Z" fill-opacity="1" clip-path="url(#xPeqDLTLBABX)" stroke-opacity="1" stroke-linejoin="bevel" stroke-miterlimit="10"/><path fill="rgb(213,62,79)" stroke="rgb(213,62,79)" paint-order="fill" d="M 160.97010803222656 36.23872756958008 L 165.13613891601562 36.23872756958008 L 165.13613891601562 39.914512634277344 L 160.97010803222656 39.914512634277344 L 160.97010803222656 36.23872756958008 Z" fill-opacity="1" clip-path="url(#xPeqDLTLBABX)" stroke-opacity="1" stroke-linejoin="bevel" stroke-miterlimit="10"/><path fill="rgb(213,62,79)" stroke="rgb(213,62,79)" paint-order="fill" d="M 159.5814208984375 91.3754653930664 L 166.52481079101562 91.3754653930664 L 166.52481079101562 95.0512466430664 L 159.5814208984375 95.0512466430664 L 159.5814208984375 91.3754653930664 Z" fill-opacity="1" clip-path="url(#xPeqDLTLBABX)" stroke-opacity="1" stroke-linejoin="bevel" stroke-miterlimit="10"/><path fill="rgb(213,62,79)" stroke="rgb(213,62,79)" paint-order="fill" d="M 167.9134979248047 27.049272537231445 L 169.3021697998047 27.049272537231445 L 169.3021697998047 30.725055694580078 L 167.9134979248047 30.725055694580078 L 167.9134979248047 27.049272537231445 Z" fill-opacity="1" clip-path="url(#xPeqDLTLBABX)" stroke-opacity="1" stroke-linejoin="bevel" stroke-miterlimit="10"/><path fill="rgb(213,62,79)" stroke="rgb(213,62,79)" paint-order="fill" d="M 177.6342315673828 357.8696594238281 L 184.57763671875 357.8696594238281 L 184.57763671875 361.5454406738281 L 177.6342315673828 361.5454406738281 L 177.6342315673828 357.8696594238281 Z" fill-opacity="1" clip-path="url(#xPeqDLTLBABX)" stroke-opacity="1" stroke-linejoin="bevel" stroke-miterlimit="10"/><path fill="rgb(213,62,79)" stroke="rgb(213,62,79)" paint-order="fill" d="M 181.80027770996094 50.022911071777344 L 188.74366760253906 50.022911071777344 L 188.74366760253906 53.69869613647461 L 181.80027770996094 53.69869613647461 L 181.80027770996094 50.022911071777344 Z" fill-opacity="1" clip-path="url(#xPeqDLTLBABX)" stroke-opacity="1" stroke-linejoin="bevel" stroke-miterlimit="10"/><path fill="rgb(213,62,79)" stroke="rgb(213,62,79)" paint-order="fill" d="M 183.18894958496094 36.23872756958008 L 190.13233947753906 36.23872756958008 L 190.13233947753906 39.914512634277344 L 183.18894958496094 39.914512634277344 L 183.18894958496094 36.23872756958008 Z" fill-opacity="1" clip-path="url(#xPeqDLTLBABX)" stroke-opacity="1" stroke-linejoin="bevel" stroke-miterlimit="10"/><path fill="rgb(213,62,79)" stroke="rgb(213,62,79)" paint-order="fill" d="M 198.46441650390625 54.61764144897461 L 201.24176025390625 54.61764144897461 L 201.24176025390625 58.29342269897461 L 198.46441650390625 58.29342269897461 L 198.46441650390625 54.61764144897461 Z" fill-opacity="1" clip-path="url(#xPeqDLTLBABX)" stroke-opacity="1" stroke-linejoin="bevel" stroke-miterlimit="10"/><path fill="rgb(213,62,79)" stroke="rgb(213,62,79)" paint-order="fill" d="M 199.85308837890625 109.7543716430664 L 202.6304473876953 109.7543716430664 L 202.6304473876953 113.4301528930664 L 199.85308837890625 113.4301528930664 L 199.85308837890625 109.7543716430664 Z" fill-opacity="1" clip-path="url(#xPeqDLTLBABX)" stroke-opacity="1" stroke-linejoin="bevel" stroke-miterlimit="10"/><path fill="rgb(213,62,79)" stroke="rgb(213,62,79)" paint-order="fill" d="M 204.0191192626953 59.21236801147461 L 206.79647827148438 59.21236801147461 L 206.79647827148438 62.88814926147461 L 204.0191192626953 62.88814926147461 L 204.0191192626953 59.21236801147461 Z" fill-opacity="1" clip-path="url(#xPeqDLTLBABX)" stroke-opacity="1" stroke-linejoin="bevel" stroke-miterlimit="10"/><path fill="rgb(213,62,79)" stroke="rgb(213,62,79)" paint-order="fill" d="M 215.1285400390625 357.8696594238281 L 219.29458618164062 357.8696594238281 L 219.29458618164062 361.5454406738281 L 215.1285400390625 361.5454406738281 L 215.1285400390625 357.8696594238281 Z" fill-opacity="1" clip-path="url(#xPeqDLTLBABX)" stroke-opacity="1" stroke-linejoin="bevel" stroke-miterlimit="10"/><path fill="rgb(213,62,79)" stroke="rgb(213,62,79)" paint-order="fill" d="M 215.1285400390625 105.1596450805664 L 220.68325805664062 105.1596450805664 L 220.68325805664062 108.8354263305664 L 215.1285400390625 108.8354263305664 L 215.1285400390625 105.1596450805664 Z" fill-opacity="1" clip-path="url(#xPeqDLTLBABX)" stroke-opacity="1" stroke-linejoin="bevel" stroke-miterlimit="10"/><path fill="rgb(213,62,79)" stroke="rgb(213,62,79)" paint-order="fill" d="M 215.1285400390625 50.022911071777344 L 220.68325805664062 50.022911071777344 L 220.68325805664062 53.69869613647461 L 215.1285400390625 53.69869613647461 L 215.1285400390625 50.022911071777344 Z" fill-opacity="1" clip-path="url(#xPeqDLTLBABX)" stroke-opacity="1" stroke-linejoin="bevel" stroke-miterlimit="10"/><path fill="rgb(213,62,79)" stroke="rgb(213,62,79)" paint-order="fill" d="M 222.0719451904297 27.049272537231445 L 223.4606170654297 27.049272537231445 L 223.4606170654297 30.725055694580078 L 222.0719451904297 30.725055694580078 L 222.0719451904297 27.049272537231445 Z" fill-opacity="1" clip-path="url(#xPeqDLTLBABX)" stroke-opacity="1" stroke-linejoin="bevel" stroke-miterlimit="10"/><path fill="rgb(213,62,79)" stroke="rgb(213,62,79)" paint-order="fill" d="M 217.90589904785156 36.23872756958008 L 223.4606170654297 36.23872756958008 L 223.4606170654297 39.914512634277344 L 217.90589904785156 39.914512634277344 L 217.90589904785156 36.23872756958008 Z" fill-opacity="1" clip-path="url(#xPeqDLTLBABX)" stroke-opacity="1" stroke-linejoin="bevel" stroke-miterlimit="10"/><path fill="rgb(213,62,79)" stroke="rgb(213,62,79)" paint-order="fill" d="M 226.23797607421875 54.61764144897461 L 231.7926788330078 54.61764144897461 L 231.7926788330078 58.29342269897461 L 226.23797607421875 58.29342269897461 L 226.23797607421875 54.61764144897461 Z" fill-opacity="1" clip-path="url(#xPeqDLTLBABX)" stroke-opacity="1" stroke-linejoin="bevel" stroke-miterlimit="10"/><path fill="rgb(213,62,79)" stroke="rgb(213,62,79)" paint-order="fill" d="M 233.18136596679688 357.8696594238281 L 237.34739685058594 357.8696594238281 L 237.34739685058594 361.5454406738281 L 233.18136596679688 361.5454406738281 L 233.18136596679688 357.8696594238281 Z" fill-opacity="1" clip-path="url(#xPeqDLTLBABX)" stroke-opacity="1" stroke-linejoin="bevel" stroke-miterlimit="10"/><path fill="rgb(213,62,79)" stroke="rgb(213,62,79)" paint-order="fill" d="M 235.95872497558594 50.022911071777344 L 238.73606872558594 50.022911071777344 L 238.73606872558594 53.69869613647461 L 235.95872497558594 53.69869613647461 L 235.95872497558594 50.022911071777344 Z" fill-opacity="1" clip-path="url(#xPeqDLTLBABX)" stroke-opacity="1" stroke-linejoin="bevel" stroke-miterlimit="10"/><path fill="rgb(213,62,79)" stroke="rgb(213,62,79)" paint-order="fill" d="M 240.124755859375 105.1596450805664 L 242.90211486816406 105.1596450805664 L 242.90211486816406 108.8354263305664 L 240.124755859375 108.8354263305664 L 240.124755859375 105.1596450805664 Z" fill-opacity="1" clip-path="url(#xPeqDLTLBABX)" stroke-opacity="1" stroke-linejoin="bevel" stroke-miterlimit="10"/><path fill="rgb(213,62,79)" stroke="rgb(213,62,79)" paint-order="fill" d="M 256.78887939453125 54.61764144897461 L 258.1775817871094 54.61764144897461 L 258.1775817871094 58.29342269897461 L 256.78887939453125 58.29342269897461 L 256.78887939453125 54.61764144897461 Z" fill-opacity="1" clip-path="url(#xPeqDLTLBABX)" stroke-opacity="1" stroke-linejoin="bevel" stroke-miterlimit="10"/><path fill="rgb(213,62,79)" stroke="rgb(213,62,79)" paint-order="fill" d="M 255.40020751953125 50.022911071777344 L 259.5662536621094 50.022911071777344 L 259.5662536621094 53.69869613647461 L 255.40020751953125 53.69869613647461 L 255.40020751953125 50.022911071777344 Z" fill-opacity="1" clip-path="url(#xPeqDLTLBABX)" stroke-opacity="1" stroke-linejoin="bevel" stroke-miterlimit="10"/><path fill="rgb(213,62,79)" stroke="rgb(213,62,79)" paint-order="fill" d="M 260.9549255371094 27.049272537231445 L 262.3435974121094 27.049272537231445 L 262.3435974121094 30.725055694580078 L 260.9549255371094 30.725055694580078 L 260.9549255371094 27.049272537231445 Z" fill-opacity="1" clip-path="url(#xPeqDLTLBABX)" stroke-opacity="1" stroke-linejoin="bevel" stroke-miterlimit="10"/><path fill="rgb(213,62,79)" stroke="rgb(213,62,79)" paint-order="fill" d="M 269.2869873046875 128.13328552246094 L 273.4530334472656 128.13328552246094 L 273.4530334472656 131.80906677246094 L 269.2869873046875 131.80906677246094 L 269.2869873046875 128.13328552246094 Z" fill-opacity="1" clip-path="url(#xPeqDLTLBABX)" stroke-opacity="1" stroke-linejoin="bevel" stroke-miterlimit="10"/><path fill="rgb(213,62,79)" stroke="rgb(213,62,79)" paint-order="fill" d="M 276.2303771972656 105.1596450805664 L 280.39642333984375 105.1596450805664 L 280.39642333984375 108.8354263305664 L 276.2303771972656 108.8354263305664 L 276.2303771972656 105.1596450805664 Z" fill-opacity="1" clip-path="url(#xPeqDLTLBABX)" stroke-opacity="1" stroke-linejoin="bevel" stroke-miterlimit="10"/><path fill="rgb(213,62,79)" stroke="rgb(213,62,79)" paint-order="fill" d="M 287.3398132324219 100.5649185180664 L 288.7284851074219 100.5649185180664 L 288.7284851074219 104.2406997680664 L 287.3398132324219 104.2406997680664 L 287.3398132324219 100.5649185180664 Z" fill-opacity="1" clip-path="url(#xPeqDLTLBABX)" stroke-opacity="1" stroke-linejoin="bevel" stroke-miterlimit="10"/><path fill="rgb(213,62,79)" stroke="rgb(213,62,79)" paint-order="fill" d="M 287.3398132324219 50.022911071777344 L 290.1171569824219 50.022911071777344 L 290.1171569824219 53.69869613647461 L 287.3398132324219 53.69869613647461 L 287.3398132324219 50.022911071777344 Z" fill-opacity="1" clip-path="url(#xPeqDLTLBABX)" stroke-opacity="1" stroke-linejoin="bevel" stroke-miterlimit="10"/><path fill="rgb(213,62,79)" stroke="rgb(213,62,79)" paint-order="fill" d="M 288.7284851074219 100.5649185180664 L 291.5058288574219 100.5649185180664 L 291.5058288574219 104.2406997680664 L 288.7284851074219 104.2406997680664 L 288.7284851074219 100.5649185180664 Z" fill-opacity="1" clip-path="url(#xPeqDLTLBABX)" stroke-opacity="1" stroke-linejoin="bevel" stroke-miterlimit="10"/><path fill="rgb(213,62,79)" stroke="rgb(213,62,79)" paint-order="fill" d="M 288.7284851074219 45.428184509277344 L 292.89453125 45.428184509277344 L 292.89453125 49.103965759277344 L 288.7284851074219 49.103965759277344 L 288.7284851074219 45.428184509277344 Z" fill-opacity="1" clip-path="url(#xPeqDLTLBABX)" stroke-opacity="1" stroke-linejoin="bevel" stroke-miterlimit="10"/><path fill="rgb(213,62,79)" stroke="rgb(213,62,79)" paint-order="fill" d="M 292.89453125 54.61764144897461 L 298.44921875 54.61764144897461 L 298.44921875 58.29342269897461 L 292.89453125 58.29342269897461 L 292.89453125 54.61764144897461 Z" fill-opacity="1" clip-path="url(#xPeqDLTLBABX)" stroke-opacity="1" stroke-linejoin="bevel" stroke-miterlimit="10"/><path fill="rgb(213,62,79)" stroke="rgb(213,62,79)" paint-order="fill" d="M 292.89453125 36.23872756958008 L 298.44921875 36.23872756958008 L 298.44921875 39.914512634277344 L 292.89453125 39.914512634277344 L 292.89453125 36.23872756958008 Z" fill-opacity="1" clip-path="url(#xPeqDLTLBABX)" stroke-opacity="1" stroke-linejoin="bevel" stroke-miterlimit="10"/><path fill="rgb(213,62,79)" stroke="rgb(213,62,79)" paint-order="fill" d="M 292.89453125 137.32273864746094 L 299.8379211425781 137.32273864746094 L 299.8379211425781 140.99851989746094 L 292.89453125 140.99851989746094 L 292.89453125 137.32273864746094 Z" fill-opacity="1" clip-path="url(#xPeqDLTLBABX)" stroke-opacity="1" stroke-linejoin="bevel" stroke-miterlimit="10"/><path fill="rgb(213,62,79)" stroke="rgb(213,62,79)" paint-order="fill" d="M 308.16998291015625 50.022911071777344 L 309.55865478515625 50.022911071777344 L 309.55865478515625 53.69869613647461 L 308.16998291015625 53.69869613647461 L 308.16998291015625 50.022911071777344 Z" fill-opacity="1" clip-path="url(#xPeqDLTLBABX)" stroke-opacity="1" stroke-linejoin="bevel" stroke-miterlimit="10"/><path fill="rgb(213,62,79)" stroke="rgb(213,62,79)" paint-order="fill" d="M 306.78131103515625 128.13328552246094 L 310.94732666015625 128.13328552246094 L 310.94732666015625 131.80906677246094 L 306.78131103515625 131.80906677246094 L 306.78131103515625 128.13328552246094 Z" fill-opacity="1" clip-path="url(#xPeqDLTLBABX)" stroke-opacity="1" stroke-linejoin="bevel" stroke-miterlimit="10"/><path fill="rgb(213,62,79)" stroke="rgb(213,62,79)" paint-order="fill" d="M 312.3360290527344 137.32273864746094 L 313.7247009277344 137.32273864746094 L 313.7247009277344 140.99851989746094 L 312.3360290527344 140.99851989746094 L 312.3360290527344 137.32273864746094 Z" fill-opacity="1" clip-path="url(#xPeqDLTLBABX)" stroke-opacity="1" stroke-linejoin="bevel" stroke-miterlimit="10"/><path fill="rgb(213,62,79)" stroke="rgb(213,62,79)" paint-order="fill" d="M 316.5020446777344 100.5649185180664 L 317.8907165527344 100.5649185180664 L 317.8907165527344 104.2406997680664 L 316.5020446777344 104.2406997680664 L 316.5020446777344 100.5649185180664 Z" fill-opacity="1" clip-path="url(#xPeqDLTLBABX)" stroke-opacity="1" stroke-linejoin="bevel" stroke-miterlimit="10"/><path fill="rgb(213,62,79)" stroke="rgb(213,62,79)" paint-order="fill" d="M 323.4454345703125 50.022911071777344 L 329.0001525878906 50.022911071777344 L 329.0001525878906 53.69869613647461 L 323.4454345703125 53.69869613647461 L 323.4454345703125 50.022911071777344 Z" fill-opacity="1" clip-path="url(#xPeqDLTLBABX)" stroke-opacity="1" stroke-linejoin="bevel" stroke-miterlimit="10"/><path fill="rgb(213,62,79)" stroke="rgb(213,62,79)" paint-order="fill" d="M 327.6114807128906 357.8696594238281 L 330.3888244628906 357.8696594238281 L 330.3888244628906 361.5454406738281 L 327.6114807128906 361.5454406738281 L 327.6114807128906 357.8696594238281 Z" fill-opacity="1" clip-path="url(#xPeqDLTLBABX)" stroke-opacity="1" stroke-linejoin="bevel" stroke-miterlimit="10"/><path fill="rgb(213,62,79)" stroke="rgb(213,62,79)" paint-order="fill" d="M 342.8869323730469 100.5649185180664 L 348.441650390625 100.5649185180664 L 348.441650390625 104.2406997680664 L 342.8869323730469 104.2406997680664 L 342.8869323730469 100.5649185180664 Z" fill-opacity="1" clip-path="url(#xPeqDLTLBABX)" stroke-opacity="1" stroke-linejoin="bevel" stroke-miterlimit="10"/><path fill="rgb(213,62,79)" stroke="rgb(213,62,79)" paint-order="fill" d="M 345.6642761230469 95.9701919555664 L 349.830322265625 95.9701919555664 L 349.830322265625 99.6459732055664 L 345.6642761230469 99.6459732055664 L 345.6642761230469 95.9701919555664 Z" fill-opacity="1" clip-path="url(#xPeqDLTLBABX)" stroke-opacity="1" stroke-linejoin="bevel" stroke-miterlimit="10"/><path fill="rgb(213,62,79)" stroke="rgb(213,62,79)" paint-order="fill" d="M 359.5510559082031 348.6802062988281 L 365.10577392578125 348.6802062988281 L 365.10577392578125 352.3559875488281 L 359.5510559082031 352.3559875488281 L 359.5510559082031 348.6802062988281 Z" fill-opacity="1" clip-path="url(#xPeqDLTLBABX)" stroke-opacity="1" stroke-linejoin="bevel" stroke-miterlimit="10"/><path fill="rgb(213,62,79)" stroke="rgb(213,62,79)" paint-order="fill" d="M 359.5510559082031 54.61764144897461 L 366.49444580078125 54.61764144897461 L 366.49444580078125 58.29342269897461 L 359.5510559082031 58.29342269897461 L 359.5510559082031 54.61764144897461 Z" fill-opacity="1" clip-path="url(#xPeqDLTLBABX)" stroke-opacity="1" stroke-linejoin="bevel" stroke-miterlimit="10"/><path fill="rgb(213,62,79)" stroke="rgb(213,62,79)" paint-order="fill" d="M 365.10577392578125 50.022911071777344 L 373.4378662109375 50.022911071777344 L 373.4378662109375 53.69869613647461 L 365.10577392578125 53.69869613647461 L 365.10577392578125 50.022911071777344 Z" fill-opacity="1" clip-path="url(#xPeqDLTLBABX)" stroke-opacity="1" stroke-linejoin="bevel" stroke-miterlimit="10"/><path fill="rgb(213,62,79)" stroke="rgb(213,62,79)" paint-order="fill" d="M 366.49444580078125 36.23872756958008 L 374.8265380859375 36.23872756958008 L 374.8265380859375 39.914512634277344 L 366.49444580078125 39.914512634277344 L 366.49444580078125 36.23872756958008 Z" fill-opacity="1" clip-path="url(#xPeqDLTLBABX)" stroke-opacity="1" stroke-linejoin="bevel" stroke-miterlimit="10"/><path fill="rgb(213,62,79)" stroke="rgb(213,62,79)" paint-order="fill" d="M 376.2152099609375 27.049272537231445 L 383.1585998535156 27.049272537231445 L 383.1585998535156 30.725055694580078 L 376.2152099609375 30.725055694580078 L 376.2152099609375 27.049272537231445 Z" fill-opacity="1" clip-path="url(#xPeqDLTLBABX)" stroke-opacity="1" stroke-linejoin="bevel" stroke-miterlimit="10"/><path fill="rgb(213,62,79)" stroke="rgb(213,62,79)" paint-order="fill" d="M 365.10577392578125 348.6802062988281 L 385.9359436035156 348.6802062988281 L 385.9359436035156 352.3559875488281 L 365.10577392578125 352.3559875488281 L 365.10577392578125 348.6802062988281 Z" fill-opacity="1" clip-path="url(#xPeqDLTLBABX)" stroke-opacity="1" stroke-linejoin="bevel" stroke-miterlimit="10"/><path fill="rgb(213,62,79)" stroke="rgb(213,62,79)" paint-order="fill" d="M 385.9359436035156 348.6802062988281 L 387.32464599609375 348.6802062988281 L 387.32464599609375 352.3559875488281 L 385.9359436035156 352.3559875488281 L 385.9359436035156 348.6802062988281 Z" fill-opacity="1" clip-path="url(#xPeqDLTLBABX)" stroke-opacity="1" stroke-linejoin="bevel" stroke-miterlimit="10"/><path fill="rgb(213,62,79)" stroke="rgb(213,62,79)" paint-order="fill" d="M 381.7699279785156 357.8696594238281 L 388.71331787109375 357.8696594238281 L 388.71331787109375 361.5454406738281 L 381.7699279785156 361.5454406738281 L 381.7699279785156 357.8696594238281 Z" fill-opacity="1" clip-path="url(#xPeqDLTLBABX)" stroke-opacity="1" stroke-linejoin="bevel" stroke-miterlimit="10"/><path fill="rgb(213,62,79)" stroke="rgb(213,62,79)" paint-order="fill" d="M 395.6567077636719 357.8696594238281 L 398.4340515136719 357.8696594238281 L 398.4340515136719 361.5454406738281 L 395.6567077636719 361.5454406738281 L 395.6567077636719 357.8696594238281 Z" fill-opacity="1" clip-path="url(#xPeqDLTLBABX)" stroke-opacity="1" stroke-linejoin="bevel" stroke-miterlimit="10"/><path fill="rgb(213,62,79)" stroke="rgb(213,62,79)" paint-order="fill" d="M 395.6567077636719 54.61764144897461 L 401.21142578125 54.61764144897461 L 401.21142578125 58.29342269897461 L 395.6567077636719 58.29342269897461 L 395.6567077636719 54.61764144897461 Z" fill-opacity="1" clip-path="url(#xPeqDLTLBABX)" stroke-opacity="1" stroke-linejoin="bevel" stroke-miterlimit="10"/><path fill="rgb(213,62,79)" stroke="rgb(213,62,79)" paint-order="fill" d="M 415.09820556640625 50.022911071777344 L 419.26422119140625 50.022911071777344 L 419.26422119140625 53.69869613647461 L 415.09820556640625 53.69869613647461 L 415.09820556640625 50.022911071777344 Z" fill-opacity="1" clip-path="url(#xPeqDLTLBABX)" stroke-opacity="1" stroke-linejoin="bevel" stroke-miterlimit="10"/><path fill="rgb(213,62,79)" stroke="rgb(213,62,79)" paint-order="fill" d="M 416.48687744140625 36.23872756958008 L 420.65289306640625 36.23872756958008 L 420.65289306640625 39.914512634277344 L 416.48687744140625 39.914512634277344 L 416.48687744140625 36.23872756958008 Z" fill-opacity="1" clip-path="url(#xPeqDLTLBABX)" stroke-opacity="1" stroke-linejoin="bevel" stroke-miterlimit="10"/><path fill="rgb(213,62,79)" stroke="rgb(213,62,79)" paint-order="fill" d="M 413.7095031738281 357.8696594238281 L 422.0415954589844 357.8696594238281 L 422.0415954589844 361.5454406738281 L 413.7095031738281 361.5454406738281 L 413.7095031738281 357.8696594238281 Z" fill-opacity="1" clip-path="url(#xPeqDLTLBABX)" stroke-opacity="1" stroke-linejoin="bevel" stroke-miterlimit="10"/><path fill="rgb(213,62,79)" stroke="rgb(213,62,79)" paint-order="fill" d="M 430.3736572265625 357.8696594238281 L 437.3170471191406 357.8696594238281 L 437.3170471191406 361.5454406738281 L 430.3736572265625 361.5454406738281 L 430.3736572265625 357.8696594238281 Z" fill-opacity="1" clip-path="url(#xPeqDLTLBABX)" stroke-opacity="1" stroke-linejoin="bevel" stroke-miterlimit="10"/><path fill="rgb(213,62,79)" stroke="rgb(213,62,79)" paint-order="fill" d="M 431.7623291015625 109.7543716430664 L 438.7057189941406 109.7543716430664 L 438.7057189941406 113.4301528930664 L 431.7623291015625 113.4301528930664 L 431.7623291015625 109.7543716430664 Z" fill-opacity="1" clip-path="url(#xPeqDLTLBABX)" stroke-opacity="1" stroke-linejoin="bevel" stroke-miterlimit="10"/><path fill="rgb(213,62,79)" stroke="rgb(213,62,79)" paint-order="fill" d="M 438.7057189941406 59.21236801147461 L 440.0943908691406 59.21236801147461 L 440.0943908691406 62.88814926147461 L 438.7057189941406 62.88814926147461 L 438.7057189941406 59.21236801147461 Z" fill-opacity="1" clip-path="url(#xPeqDLTLBABX)" stroke-opacity="1" stroke-linejoin="bevel" stroke-miterlimit="10"/><path fill="rgb(213,62,79)" stroke="rgb(213,62,79)" paint-order="fill" d="M 431.7623291015625 54.61764144897461 L 442.87176513671875 54.61764144897461 L 442.87176513671875 58.29342269897461 L 431.7623291015625 58.29342269897461 L 431.7623291015625 54.61764144897461 Z" fill-opacity="1" clip-path="url(#xPeqDLTLBABX)" stroke-opacity="1" stroke-linejoin="bevel" stroke-miterlimit="10"/><path fill="rgb(213,62,79)" stroke="rgb(213,62,79)" paint-order="fill" d="M 359.5510559082031 40.833457946777344 L 451.2038269042969 40.833457946777344 L 451.2038269042969 44.509239196777344 L 359.5510559082031 44.509239196777344 L 359.5510559082031 40.833457946777344 Z" fill-opacity="1" clip-path="url(#xPeqDLTLBABX)" stroke-opacity="1" stroke-linejoin="bevel" stroke-miterlimit="10"/><path fill="rgb(213,62,79)" stroke="rgb(213,62,79)" paint-order="fill" d="M 451.2038269042969 40.833457946777344 L 453.9811706542969 40.833457946777344 L 453.9811706542969 44.509239196777344 L 451.2038269042969 44.509239196777344 L 451.2038269042969 40.833457946777344 Z" fill-opacity="1" clip-path="url(#xPeqDLTLBABX)" stroke-opacity="1" stroke-linejoin="bevel" stroke-miterlimit="10"/><path fill="rgb(213,62,79)" stroke="rgb(213,62,79)" paint-order="fill" d="M 449.8151550292969 54.61764144897461 L 456.758544921875 54.61764144897461 L 456.758544921875 58.29342269897461 L 449.8151550292969 58.29342269897461 L 449.8151550292969 54.61764144897461 Z" fill-opacity="1" clip-path="url(#xPeqDLTLBABX)" stroke-opacity="1" stroke-linejoin="bevel" stroke-miterlimit="10"/><path fill="rgb(213,62,79)" stroke="rgb(213,62,79)" paint-order="fill" d="M 452.5924987792969 91.3754653930664 L 458.147216796875 91.3754653930664 L 458.147216796875 95.0512466430664 L 452.5924987792969 95.0512466430664 L 452.5924987792969 91.3754653930664 Z" fill-opacity="1" clip-path="url(#xPeqDLTLBABX)" stroke-opacity="1" stroke-linejoin="bevel" stroke-miterlimit="10"/><path fill="rgb(213,62,79)" stroke="rgb(213,62,79)" paint-order="fill" d="M 455.369873046875 82.18600463867188 L 459.535888671875 82.18600463867188 L 459.535888671875 85.86178588867188 L 455.369873046875 85.86178588867188 L 455.369873046875 82.18600463867188 Z" fill-opacity="1" clip-path="url(#xPeqDLTLBABX)" stroke-opacity="1" stroke-linejoin="bevel" stroke-miterlimit="10"/><path fill="rgb(213,62,79)" stroke="rgb(213,62,79)" paint-order="fill" d="M 460.924560546875 357.8696594238281 L 462.3132629394531 357.8696594238281 L 462.3132629394531 361.5454406738281 L 460.924560546875 361.5454406738281 L 460.924560546875 357.8696594238281 Z" fill-opacity="1" clip-path="url(#xPeqDLTLBABX)" stroke-opacity="1" stroke-linejoin="bevel" stroke-miterlimit="10"/><path fill="rgb(213,62,79)" stroke="rgb(213,62,79)" paint-order="fill" d="M 467.8679504394531 54.61764144897461 L 473.42266845703125 54.61764144897461 L 473.42266845703125 58.29342269897461 L 467.8679504394531 58.29342269897461 L 467.8679504394531 54.61764144897461 Z" fill-opacity="1" clip-path="url(#xPeqDLTLBABX)" stroke-opacity="1" stroke-linejoin="bevel" stroke-miterlimit="10"/><path fill="rgb(213,62,79)" stroke="rgb(213,62,79)" paint-order="fill" d="M 484.5321044921875 357.8696594238281 L 488.6981201171875 357.8696594238281 L 488.6981201171875 361.5454406738281 L 484.5321044921875 361.5454406738281 L 484.5321044921875 357.8696594238281 Z" fill-opacity="1" clip-path="url(#xPeqDLTLBABX)" stroke-opacity="1" stroke-linejoin="bevel" stroke-miterlimit="10"/><path fill="rgb(213,62,79)" stroke="rgb(213,62,79)" paint-order="fill" d="M 485.9207763671875 109.7543716430664 L 490.0868225097656 109.7543716430664 L 490.0868225097656 113.4301528930664 L 485.9207763671875 113.4301528930664 L 485.9207763671875 109.7543716430664 Z" fill-opacity="1" clip-path="url(#xPeqDLTLBABX)" stroke-opacity="1" stroke-linejoin="bevel" stroke-miterlimit="10"/><path fill="rgb(213,62,79)" stroke="rgb(213,62,79)" paint-order="fill" d="M 491.4754943847656 82.18600463867188 L 492.8641662597656 82.18600463867188 L 492.8641662597656 85.86178588867188 L 491.4754943847656 85.86178588867188 L 491.4754943847656 82.18600463867188 Z" fill-opacity="1" clip-path="url(#xPeqDLTLBABX)" stroke-opacity="1" stroke-linejoin="bevel" stroke-miterlimit="10"/><path fill="rgb(213,62,79)" stroke="rgb(213,62,79)" paint-order="fill" d="M 503.9736022949219 357.8696594238281 L 508.1396179199219 357.8696594238281 L 508.1396179199219 361.5454406738281 L 503.9736022949219 361.5454406738281 L 503.9736022949219 357.8696594238281 Z" fill-opacity="1" clip-path="url(#xPeqDLTLBABX)" stroke-opacity="1" stroke-linejoin="bevel" stroke-miterlimit="10"/><path fill="rgb(213,62,79)" stroke="rgb(213,62,79)" paint-order="fill" d="M 505.3622741699219 105.1596450805664 L 509.5282897949219 105.1596450805664 L 509.5282897949219 108.8354263305664 L 505.3622741699219 108.8354263305664 L 505.3622741699219 105.1596450805664 Z" fill-opacity="1" clip-path="url(#xPeqDLTLBABX)" stroke-opacity="1" stroke-linejoin="bevel" stroke-miterlimit="10"/><path fill="rgb(213,62,79)" stroke="rgb(213,62,79)" paint-order="fill" d="M 505.3622741699219 54.61764144897461 L 510.9169921875 54.61764144897461 L 510.9169921875 58.29342269897461 L 505.3622741699219 58.29342269897461 L 505.3622741699219 54.61764144897461 Z" fill-opacity="1" clip-path="url(#xPeqDLTLBABX)" stroke-opacity="1" stroke-linejoin="bevel" stroke-miterlimit="10"/><path fill="rgb(213,62,79)" stroke="rgb(213,62,79)" paint-order="fill" d="M 509.5282897949219 82.18600463867188 L 512.3056640625 82.18600463867188 L 512.3056640625 85.86178588867188 L 509.5282897949219 85.86178588867188 L 509.5282897949219 82.18600463867188 Z" fill-opacity="1" clip-path="url(#xPeqDLTLBABX)" stroke-opacity="1" stroke-linejoin="bevel" stroke-miterlimit="10"/><path fill="rgb(213,62,79)" stroke="rgb(213,62,79)" paint-order="fill" d="M 515.0830078125 348.6802062988281 L 516.4716796875 348.6802062988281 L 516.4716796875 352.3559875488281 L 515.0830078125 352.3559875488281 L 515.0830078125 348.6802062988281 Z" fill-opacity="1" clip-path="url(#xPeqDLTLBABX)" stroke-opacity="1" stroke-linejoin="bevel" stroke-miterlimit="10"/><path fill="rgb(213,62,79)" stroke="rgb(213,62,79)" paint-order="fill" d="M 541.4678955078125 54.61764144897461 L 545.6339111328125 54.61764144897461 L 545.6339111328125 58.29342269897461 L 541.4678955078125 58.29342269897461 L 541.4678955078125 54.61764144897461 Z" fill-opacity="1" clip-path="url(#xPeqDLTLBABX)" stroke-opacity="1" stroke-linejoin="bevel" stroke-miterlimit="10"/><path fill="rgb(213,62,79)" stroke="rgb(213,62,79)" paint-order="fill" d="M 538.6905517578125 357.8696594238281 L 556.7433471679688 357.8696594238281 L 556.7433471679688 361.5454406738281 L 538.6905517578125 361.5454406738281 L 538.6905517578125 357.8696594238281 Z" fill-opacity="1" clip-path="url(#xPeqDLTLBABX)" stroke-opacity="1" stroke-linejoin="bevel" stroke-miterlimit="10"/><path fill="rgb(213,62,79)" stroke="rgb(213,62,79)" paint-order="fill" d="M 555.3546752929688 105.1596450805664 L 559.5206909179688 105.1596450805664 L 559.5206909179688 108.8354263305664 L 555.3546752929688 108.8354263305664 L 555.3546752929688 105.1596450805664 Z" fill-opacity="1" clip-path="url(#xPeqDLTLBABX)" stroke-opacity="1" stroke-linejoin="bevel" stroke-miterlimit="10"/><path fill="rgb(213,62,79)" stroke="rgb(213,62,79)" paint-order="fill" d="M 562.298095703125 348.6802062988281 L 563.686767578125 348.6802062988281 L 563.686767578125 352.3559875488281 L 562.298095703125 352.3559875488281 L 562.298095703125 348.6802062988281 Z" fill-opacity="1" clip-path="url(#xPeqDLTLBABX)" stroke-opacity="1" stroke-linejoin="bevel" stroke-miterlimit="10"/><path fill="rgb(213,62,79)" stroke="rgb(213,62,79)" paint-order="fill" d="M 558.1320190429688 357.8696594238281 L 563.686767578125 357.8696594238281 L 563.686767578125 361.5454406738281 L 558.1320190429688 361.5454406738281 L 558.1320190429688 357.8696594238281 Z" fill-opacity="1" clip-path="url(#xPeqDLTLBABX)" stroke-opacity="1" stroke-linejoin="bevel" stroke-miterlimit="10"/><path fill="rgb(213,62,79)" stroke="rgb(213,62,79)" paint-order="fill" d="M 566.464111328125 100.5649185180664 L 567.852783203125 100.5649185180664 L 567.852783203125 104.2406997680664 L 566.464111328125 104.2406997680664 L 566.464111328125 100.5649185180664 Z" fill-opacity="1" clip-path="url(#xPeqDLTLBABX)" stroke-opacity="1" stroke-linejoin="bevel" stroke-miterlimit="10"/><path fill="rgb(213,62,79)" stroke="rgb(213,62,79)" paint-order="fill" d="M 576.1848754882812 357.8696594238281 L 583.1282348632812 357.8696594238281 L 583.1282348632812 361.5454406738281 L 576.1848754882812 361.5454406738281 L 576.1848754882812 357.8696594238281 Z" fill-opacity="1" clip-path="url(#xPeqDLTLBABX)" stroke-opacity="1" stroke-linejoin="bevel" stroke-miterlimit="10"/><path fill="rgb(213,62,79)" stroke="rgb(213,62,79)" paint-order="fill" d="M 576.1848754882812 100.5649185180664 L 583.1282348632812 100.5649185180664 L 583.1282348632812 104.2406997680664 L 576.1848754882812 104.2406997680664 L 576.1848754882812 100.5649185180664 Z" fill-opacity="1" clip-path="url(#xPeqDLTLBABX)" stroke-opacity="1" stroke-linejoin="bevel" stroke-miterlimit="10"/><path fill="rgb(213,62,79)" stroke="rgb(213,62,79)" paint-order="fill" d="M 578.9622192382812 45.428184509277344 L 584.5169067382812 45.428184509277344 L 584.5169067382812 49.103965759277344 L 578.9622192382812 49.103965759277344 L 578.9622192382812 45.428184509277344 Z" fill-opacity="1" clip-path="url(#xPeqDLTLBABX)" stroke-opacity="1" stroke-linejoin="bevel" stroke-miterlimit="10"/><path fill="rgb(213,62,79)" stroke="rgb(213,62,79)" paint-order="fill" d="M 683.113037109375 68.40182495117188 L 690.0564575195312 68.40182495117188 L 690.0564575195312 72.07760620117188 L 683.113037109375 72.07760620117188 L 683.113037109375 68.40182495117188 Z" fill-opacity="1" clip-path="url(#xPeqDLTLBABX)" stroke-opacity="1" stroke-linejoin="bevel" stroke-miterlimit="10"/><path fill="rgb(213,62,79)" stroke="rgb(213,62,79)" paint-order="fill" d="M 681.724365234375 50.022911071777344 L 690.0564575195312 50.022911071777344 L 690.0564575195312 53.69869613647461 L 681.724365234375 53.69869613647461 L 681.724365234375 50.022911071777344 Z" fill-opacity="1" clip-path="url(#xPeqDLTLBABX)" stroke-opacity="1" stroke-linejoin="bevel" stroke-miterlimit="10"/><path fill="rgb(213,62,79)" stroke="rgb(213,62,79)" paint-order="fill" d="M 690.0564575195312 68.40182495117188 L 699.7772216796875 68.40182495117188 L 699.7772216796875 72.07760620117188 L 690.0564575195312 72.07760620117188 L 690.0564575195312 68.40182495117188 Z" fill-opacity="1" clip-path="url(#xPeqDLTLBABX)" stroke-opacity="1" stroke-linejoin="bevel" stroke-miterlimit="10"/><path fill="rgb(213,62,79)" stroke="rgb(213,62,79)" paint-order="fill" d="M 702.5545654296875 105.1596450805664 L 706.7205810546875 105.1596450805664 L 706.7205810546875 108.8354263305664 L 702.5545654296875 108.8354263305664 L 702.5545654296875 105.1596450805664 Z" fill-opacity="1" clip-path="url(#xPeqDLTLBABX)" stroke-opacity="1" stroke-linejoin="bevel" stroke-miterlimit="10"/><path fill="rgb(213,62,79)" stroke="rgb(213,62,79)" paint-order="fill" d="M 703.9432373046875 54.61764144897461 L 710.8866577148438 54.61764144897461 L 710.8866577148438 58.29342269897461 L 703.9432373046875 58.29342269897461 L 703.9432373046875 54.61764144897461 Z" fill-opacity="1" clip-path="url(#xPeqDLTLBABX)" stroke-opacity="1" stroke-linejoin="bevel" stroke-miterlimit="10"/><path fill="rgb(213,62,79)" stroke="rgb(213,62,79)" paint-order="fill" d="M 726.162109375 302.7329406738281 L 727.55078125 302.7329406738281 L 727.55078125 306.4087219238281 L 726.162109375 306.4087219238281 L 726.162109375 302.7329406738281 Z" fill-opacity="1" clip-path="url(#xPeqDLTLBABX)" stroke-opacity="1" stroke-linejoin="bevel" stroke-miterlimit="10"/><path fill="rgb(213,62,79)" stroke="rgb(213,62,79)" paint-order="fill" d="M 723.3847045898438 109.7543716430664 L 727.55078125 109.7543716430664 L 727.55078125 113.4301528930664 L 723.3847045898438 113.4301528930664 L 723.3847045898438 109.7543716430664 Z" fill-opacity="1" clip-path="url(#xPeqDLTLBABX)" stroke-opacity="1" stroke-linejoin="bevel" stroke-miterlimit="10"/><path fill="rgb(213,62,79)" stroke="rgb(213,62,79)" paint-order="fill" d="M 723.3847045898438 54.61764144897461 L 728.939453125 54.61764144897461 L 728.939453125 58.29342269897461 L 723.3847045898438 58.29342269897461 L 723.3847045898438 54.61764144897461 Z" fill-opacity="1" clip-path="url(#xPeqDLTLBABX)" stroke-opacity="1" stroke-linejoin="bevel" stroke-miterlimit="10"/><path fill="rgb(213,62,79)" stroke="rgb(213,62,79)" paint-order="fill" d="M 724.7734375 146.51219177246094 L 728.939453125 146.51219177246094 L 728.939453125 150.18797302246094 L 724.7734375 150.18797302246094 L 724.7734375 146.51219177246094 Z" fill-opacity="1" clip-path="url(#xPeqDLTLBABX)" stroke-opacity="1" stroke-linejoin="bevel" stroke-miterlimit="10"/><path fill="rgb(213,62,79)" stroke="rgb(213,62,79)" paint-order="fill" d="M 740.0488891601562 105.1596450805664 L 745.6035766601562 105.1596450805664 L 745.6035766601562 108.8354263305664 L 740.0488891601562 108.8354263305664 L 740.0488891601562 105.1596450805664 Z" fill-opacity="1" clip-path="url(#xPeqDLTLBABX)" stroke-opacity="1" stroke-linejoin="bevel" stroke-miterlimit="10"/><path fill="rgb(213,62,79)" stroke="rgb(213,62,79)" paint-order="fill" d="M 741.4375610351562 68.40182495117188 L 746.9922485351562 68.40182495117188 L 746.9922485351562 72.07760620117188 L 741.4375610351562 72.07760620117188 L 741.4375610351562 68.40182495117188 Z" fill-opacity="1" clip-path="url(#xPeqDLTLBABX)" stroke-opacity="1" stroke-linejoin="bevel" stroke-miterlimit="10"/><path fill="rgb(213,62,79)" stroke="rgb(213,62,79)" paint-order="fill" d="M 758.1016845703125 68.40182495117188 L 763.6563720703125 68.40182495117188 L 763.6563720703125 72.07760620117188 L 758.1016845703125 72.07760620117188 L 758.1016845703125 68.40182495117188 Z" fill-opacity="1" clip-path="url(#xPeqDLTLBABX)" stroke-opacity="1" stroke-linejoin="bevel" stroke-miterlimit="10"/><path fill="rgb(213,62,79)" stroke="rgb(213,62,79)" paint-order="fill" d="M 776.1544799804688 114.3490982055664 L 781.709228515625 114.3490982055664 L 781.709228515625 118.0248794555664 L 776.1544799804688 118.0248794555664 L 776.1544799804688 114.3490982055664 Z" fill-opacity="1" clip-path="url(#xPeqDLTLBABX)" stroke-opacity="1" stroke-linejoin="bevel" stroke-miterlimit="10"/><path fill="rgb(213,62,79)" stroke="rgb(213,62,79)" paint-order="fill" d="M 777.5431518554688 59.21236801147461 L 784.486572265625 59.21236801147461 L 784.486572265625 62.88814926147461 L 777.5431518554688 62.88814926147461 L 777.5431518554688 59.21236801147461 Z" fill-opacity="1" clip-path="url(#xPeqDLTLBABX)" stroke-opacity="1" stroke-linejoin="bevel" stroke-miterlimit="10"/><path fill="rgb(213,62,79)" stroke="rgb(213,62,79)" paint-order="fill" d="M 796.9846801757812 160.29637145996094 L 798.3733520507812 160.29637145996094 L 798.3733520507812 163.97216796875 L 796.9846801757812 163.97216796875 L 796.9846801757812 160.29637145996094 Z" fill-opacity="1" clip-path="url(#xPeqDLTLBABX)" stroke-opacity="1" stroke-linejoin="bevel" stroke-miterlimit="10"/><path fill="rgb(213,62,79)" stroke="rgb(213,62,79)" paint-order="fill" d="M 795.5960083007812 105.1596450805664 L 799.7620239257812 105.1596450805664 L 799.7620239257812 108.8354263305664 L 795.5960083007812 108.8354263305664 L 795.5960083007812 105.1596450805664 Z" fill-opacity="1" clip-path="url(#xPeqDLTLBABX)" stroke-opacity="1" stroke-linejoin="bevel" stroke-miterlimit="10"/><path fill="rgb(213,62,79)" stroke="rgb(213,62,79)" paint-order="fill" d="M 796.9846801757812 50.022911071777344 L 799.7620239257812 50.022911071777344 L 799.7620239257812 53.69869613647461 L 796.9846801757812 53.69869613647461 L 796.9846801757812 50.022911071777344 Z" fill-opacity="1" clip-path="url(#xPeqDLTLBABX)" stroke-opacity="1" stroke-linejoin="bevel" stroke-miterlimit="10"/><path fill="rgb(213,62,79)" stroke="rgb(213,62,79)" paint-order="fill" d="M 801.1506958007812 54.61764144897461 L 802.5393676757812 54.61764144897461 L 802.5393676757812 58.29342269897461 L 801.1506958007812 58.29342269897461 L 801.1506958007812 54.61764144897461 Z" fill-opacity="1" clip-path="url(#xPeqDLTLBABX)" stroke-opacity="1" stroke-linejoin="bevel" stroke-miterlimit="10"/><path fill="rgb(213,62,79)" stroke="rgb(213,62,79)" paint-order="fill" d="M 803.9280395507812 63.80709457397461 L 805.3167114257812 63.80709457397461 L 805.3167114257812 67.48287963867188 L 803.9280395507812 67.48287963867188 L 803.9280395507812 63.80709457397461 Z" fill-opacity="1" clip-path="url(#xPeqDLTLBABX)" stroke-opacity="1" stroke-linejoin="bevel" stroke-miterlimit="10"/><path fill="rgb(213,62,79)" stroke="rgb(213,62,79)" paint-order="fill" d="M 810.8714599609375 109.7543716430664 L 816.4261474609375 109.7543716430664 L 816.4261474609375 113.4301528930664 L 810.8714599609375 113.4301528930664 L 810.8714599609375 109.7543716430664 Z" fill-opacity="1" clip-path="url(#xPeqDLTLBABX)" stroke-opacity="1" stroke-linejoin="bevel" stroke-miterlimit="10"/><path fill="rgb(213,62,79)" stroke="rgb(213,62,79)" paint-order="fill" d="M 819.2034912109375 68.40182495117188 L 823.3695678710938 68.40182495117188 L 823.3695678710938 72.07760620117188 L 819.2034912109375 72.07760620117188 L 819.2034912109375 68.40182495117188 Z" fill-opacity="1" clip-path="url(#xPeqDLTLBABX)" stroke-opacity="1" stroke-linejoin="bevel" stroke-miterlimit="10"/><path fill="rgb(213,62,79)" stroke="rgb(213,62,79)" paint-order="fill" d="M 831.7015991210938 114.3490982055664 L 838.64501953125 114.3490982055664 L 838.64501953125 118.0248794555664 L 831.7015991210938 118.0248794555664 L 831.7015991210938 114.3490982055664 Z" fill-opacity="1" clip-path="url(#xPeqDLTLBABX)" stroke-opacity="1" stroke-linejoin="bevel" stroke-miterlimit="10"/><path fill="rgb(213,62,79)" stroke="rgb(213,62,79)" paint-order="fill" d="M 834.47900390625 68.40182495117188 L 841.42236328125 68.40182495117188 L 841.42236328125 72.07760620117188 L 834.47900390625 72.07760620117188 L 834.47900390625 68.40182495117188 Z" fill-opacity="1" clip-path="url(#xPeqDLTLBABX)" stroke-opacity="1" stroke-linejoin="bevel" stroke-miterlimit="10"/><path fill="rgb(213,62,79)" stroke="rgb(213,62,79)" paint-order="fill" d="M 849.7544555664062 105.1596450805664 L 867.8072509765625 105.1596450805664 L 867.8072509765625 108.8354263305664 L 849.7544555664062 108.8354263305664 L 849.7544555664062 105.1596450805664 Z" fill-opacity="1" clip-path="url(#xPeqDLTLBABX)" stroke-opacity="1" stroke-linejoin="bevel" stroke-miterlimit="10"/><path fill="rgb(213,62,79)" stroke="rgb(213,62,79)" paint-order="fill" d="M 867.8072509765625 105.1596450805664 L 871.9732666015625 105.1596450805664 L 871.9732666015625 108.8354263305664 L 867.8072509765625 108.8354263305664 L 867.8072509765625 105.1596450805664 Z" fill-opacity="1" clip-path="url(#xPeqDLTLBABX)" stroke-opacity="1" stroke-linejoin="bevel" stroke-miterlimit="10"/><path fill="rgb(213,62,79)" stroke="rgb(213,62,79)" paint-order="fill" d="M 867.8072509765625 68.40182495117188 L 873.3619384765625 68.40182495117188 L 873.3619384765625 72.07760620117188 L 867.8072509765625 72.07760620117188 L 867.8072509765625 68.40182495117188 Z" fill-opacity="1" clip-path="url(#xPeqDLTLBABX)" stroke-opacity="1" stroke-linejoin="bevel" stroke-miterlimit="10"/><path fill="rgb(213,62,79)" stroke="rgb(213,62,79)" paint-order="fill" d="M 870.5845947265625 137.32273864746094 L 874.7506713867188 137.32273864746094 L 874.7506713867188 140.99851989746094 L 870.5845947265625 140.99851989746094 L 870.5845947265625 137.32273864746094 Z" fill-opacity="1" clip-path="url(#xPeqDLTLBABX)" stroke-opacity="1" stroke-linejoin="bevel" stroke-miterlimit="10"/><path fill="rgb(213,62,79)" stroke="rgb(213,62,79)" paint-order="fill" d="M 869.1959228515625 45.428184509277344 L 876.1393432617188 45.428184509277344 L 876.1393432617188 49.103965759277344 L 869.1959228515625 49.103965759277344 L 869.1959228515625 45.428184509277344 Z" fill-opacity="1" clip-path="url(#xPeqDLTLBABX)" stroke-opacity="1" stroke-linejoin="bevel" stroke-miterlimit="10"/><path fill="rgb(213,62,79)" stroke="rgb(213,62,79)" paint-order="fill" d="M 884.4713745117188 45.428184509277344 L 891.414794921875 45.428184509277344 L 891.414794921875 49.103965759277344 L 884.4713745117188 49.103965759277344 L 884.4713745117188 45.428184509277344 Z" fill-opacity="1" clip-path="url(#xPeqDLTLBABX)" stroke-opacity="1" stroke-linejoin="bevel" stroke-miterlimit="10"/><path fill="rgb(213,62,79)" stroke="rgb(213,62,79)" paint-order="fill" d="M 888.637451171875 68.40182495117188 L 898.358154296875 68.40182495117188 L 898.358154296875 72.07760620117188 L 888.637451171875 72.07760620117188 L 888.637451171875 68.40182495117188 Z" fill-opacity="1" clip-path="url(#xPeqDLTLBABX)" stroke-opacity="1" stroke-linejoin="bevel" stroke-miterlimit="10"/><path fill="rgb(213,62,79)" stroke="rgb(213,62,79)" paint-order="fill" d="M 905.3015747070312 68.40182495117188 L 915.0223388671875 68.40182495117188 L 915.0223388671875 72.07760620117188 L 905.3015747070312 72.07760620117188 L 905.3015747070312 68.40182495117188 Z" fill-opacity="1" clip-path="url(#xPeqDLTLBABX)" stroke-opacity="1" stroke-linejoin="bevel" stroke-miterlimit="10"/><path fill="rgb(213,62,79)" stroke="rgb(213,62,79)" paint-order="fill" d="M 920.5770263671875 105.1596450805664 L 926.1317138671875 105.1596450805664 L 926.1317138671875 108.8354263305664 L 920.5770263671875 108.8354263305664 L 920.5770263671875 105.1596450805664 Z" fill-opacity="1" clip-path="url(#xPeqDLTLBABX)" stroke-opacity="1" stroke-linejoin="bevel" stroke-miterlimit="10"/><path fill="rgb(213,62,79)" stroke="rgb(213,62,79)" paint-order="fill" d="M 923.3543701171875 45.428184509277344 L 928.9091186523438 45.428184509277344 L 928.9091186523438 49.103965759277344 L 923.3543701171875 49.103965759277344 L 923.3543701171875 45.428184509277344 Z" fill-opacity="1" clip-path="url(#xPeqDLTLBABX)" stroke-opacity="1" stroke-linejoin="bevel" stroke-miterlimit="10"/><path fill="rgb(213,62,79)" stroke="rgb(213,62,79)" paint-order="fill" d="M 360.93975830078125 86.78073120117188 L 928.9091186523438 86.78073120117188 L 928.9091186523438 90.4565200805664 L 360.93975830078125 90.4565200805664 L 360.93975830078125 86.78073120117188 Z" fill-opacity="1" clip-path="url(#xPeqDLTLBABX)" stroke-opacity="1" stroke-linejoin="bevel" stroke-miterlimit="10"/><path fill="rgb(213,62,79)" stroke="rgb(213,62,79)" paint-order="fill" d="M 852.5317993164062 54.61764144897461 L 928.9091186523438 54.61764144897461 L 928.9091186523438 58.29342269897461 L 852.5317993164062 58.29342269897461 L 852.5317993164062 54.61764144897461 Z" fill-opacity="1" clip-path="url(#xPeqDLTLBABX)" stroke-opacity="1" stroke-linejoin="bevel" stroke-miterlimit="10"/><path fill="none" stroke="rgb(0,0,0)" paint-order="fill" d="M 55.5 378.5 L 970.5 378.5" stroke-opacity="1" stroke-linejoin="bevel" stroke-miterlimit="10"/><path fill="none" stroke="rgb(0,0,0)" paint-order="fill" d="M 95.5 384.5 L 95.5 376.5 M 234.5 384.5 L 234.5 376.5 M 373.5 384.5 L 373.5 376.5 M 512.5 384.5 L 512.5 376.5 M 651.5 384.5 L 651.5 376.5 M 790.5 384.5 L 790.5 376.5 M 928.5 384.5 L 928.5 376.5" stroke-opacity="1" stroke-linejoin="bevel" stroke-miterlimit="10"/><path fill="none" stroke="rgb(0,0,0)" paint-order="fill" d="M 67.5 382.5 L 67.5 378.5 M 95.5 382.5 L 95.5 378.5 M 123.5 382.5 L 123.5 378.5 M 151.5 382.5 L 151.5 378.5 M 179.5 382.5 L 179.5 378.5 M 206.5 382.5 L 206.5 378.5 M 234.5 382.5 L 234.5 378.5 M 262.5 382.5 L 262.5 378.5 M 290.5 382.5 L 290.5 378.5 M 317.5 382.5 L 317.5 378.5 M 345.5 382.5 L 345.5 378.5 M 373.5 382.5 L 373.5 378.5 M 401.5 382.5 L 401.5 378.5 M 428.5 382.5 L 428.5 378.5 M 456.5 382.5 L 456.5 378.5 M 484.5 382.5 L 484.5 378.5 M 512.5 382.5 L 512.5 378.5 M 540.5 382.5 L 540.5 378.5 M 567.5 382.5 L 567.5 378.5 M 595.5 382.5 L 595.5 378.5 M 623.5 382.5 L 623.5 378.5 M 651.5 382.5 L 651.5 378.5 M 678.5 382.5 L 678.5 378.5 M 706.5 382.5 L 706.5 378.5 M 734.5 382.5 L 734.5 378.5 M 762.5 382.5 L 762.5 378.5 M 790.5 382.5 L 790.5 378.5 M 817.5 382.5 L 817.5 378.5 M 845.5 382.5 L 845.5 378.5 M 873.5 382.5 L 873.5 378.5 M 901.5 382.5 L 901.5 378.5 M 928.5 382.5 L 928.5 378.5 M 956.5 382.5 L 956.5 378.5" stroke-opacity="1" stroke-linejoin="bevel" stroke-miterlimit="10"/><text fill="rgb(68,68,68)" stroke="none" font-family="helvetica" font-size="11px" font-style="normal" font-weight="normal" text-decoration="normal" x="89.08455657958984" y="397" text-anchor="start" dominant-baseline="alphabetic" transform="matrix(1, 0, 0, 1, 0.5, 0.5)" fill-opacity="1">86</text><text fill="none" stroke="rgb(0,0,0)" font-family="helvetica" font-size="11px" font-style="normal" font-weight="normal" text-decoration="normal" x="89.08455657958984" y="397" text-anchor="start" dominant-baseline="alphabetic" transform="matrix(1, 0, 0, 1, 0.5, 0.5)" stroke-opacity="0" stroke-linejoin="bevel" stroke-miterlimit="10">86</text><text fill="rgb(68,68,68)" stroke="none" font-family="helvetica" font-size="11px" font-style="normal" font-weight="normal" text-decoration="normal" x="227.95236206054688" y="397" text-anchor="start" dominant-baseline="alphabetic" transform="matrix(1, 0, 0, 1, 0.5, 0.5)" fill-opacity="1">87</text><text fill="none" stroke="rgb(0,0,0)" font-family="helvetica" font-size="11px" font-style="normal" font-weight="normal" text-decoration="normal" x="227.95236206054688" y="397" text-anchor="start" dominant-baseline="alphabetic" transform="matrix(1, 0, 0, 1, 0.5, 0.5)" stroke-opacity="0" stroke-linejoin="bevel" stroke-miterlimit="10">87</text><text fill="rgb(68,68,68)" stroke="none" font-family="helvetica" font-size="11px" font-style="normal" font-weight="normal" text-decoration="normal" x="366.8201904296875" y="397" text-anchor="start" dominant-baseline="alphabetic" transform="matrix(1, 0, 0, 1, 0.5, 0.5)" fill-opacity="1">88</text><text fill="none" stroke="rgb(0,0,0)" font-family="helvetica" font-size="11px" font-style="normal" font-weight="normal" text-decoration="normal" x="366.8201904296875" y="397" text-anchor="start" dominant-baseline="alphabetic" transform="matrix(1, 0, 0, 1, 0.5, 0.5)" stroke-opacity="0" stroke-linejoin="bevel" stroke-miterlimit="10">88</text><text fill="rgb(68,68,68)" stroke="none" font-family="helvetica" font-size="11px" font-style="normal" font-weight="normal" text-decoration="normal" x="505.68798828125" y="397" text-anchor="start" dominant-baseline="alphabetic" transform="matrix(1, 0, 0, 1, 0.5, 0.5)" fill-opacity="1">89</text><text fill="none" stroke="rgb(0,0,0)" font-family="helvetica" font-size="11px" font-style="normal" font-weight="normal" text-decoration="normal" x="505.68798828125" y="397" text-anchor="start" dominant-baseline="alphabetic" transform="matrix(1, 0, 0, 1, 0.5, 0.5)" stroke-opacity="0" stroke-linejoin="bevel" stroke-miterlimit="10">89</text><text fill="rgb(68,68,68)" stroke="none" font-family="helvetica" font-size="11px" font-style="normal" font-weight="normal" text-decoration="normal" x="644.5557861328125" y="397" text-anchor="start" dominant-baseline="alphabetic" transform="matrix(1, 0, 0, 1, 0.5, 0.5)" fill-opacity="1">90</text><text fill="none" stroke="rgb(0,0,0)" font-family="helvetica" font-size="11px" font-style="normal" font-weight="normal" text-decoration="normal" x="644.5557861328125" y="397" text-anchor="start" dominant-baseline="alphabetic" transform="matrix(1, 0, 0, 1, 0.5, 0.5)" stroke-opacity="0" stroke-linejoin="bevel" stroke-miterlimit="10">90</text><text fill="rgb(68,68,68)" stroke="none" font-family="helvetica" font-size="11px" font-style="normal" font-weight="normal" text-decoration="normal" x="783.423583984375" y="397" text-anchor="start" dominant-baseline="alphabetic" transform="matrix(1, 0, 0, 1, 0.5, 0.5)" fill-opacity="1">91</text><text fill="none" stroke="rgb(0,0,0)" font-family="helvetica" font-size="11px" font-style="normal" font-weight="normal" text-decoration="normal" x="783.423583984375" y="397" text-anchor="start" dominant-baseline="alphabetic" transform="matrix(1, 0, 0, 1, 0.5, 0.5)" stroke-opacity="0" stroke-linejoin="bevel" stroke-miterlimit="10">91</text><text fill="rgb(68,68,68)" stroke="none" font-family="helvetica" font-size="11px" font-style="normal" font-weight="normal" text-decoration="normal" x="922.2914428710938" y="397" text-anchor="start" dominant-baseline="alphabetic" transform="matrix(1, 0, 0, 1, 0.5, 0.5)" fill-opacity="1">92</text><text fill="none" stroke="rgb(0,0,0)" font-family="helvetica" font-size="11px" font-style="normal" font-weight="normal" text-decoration="normal" x="922.2914428710938" y="397" text-anchor="start" dominant-baseline="alphabetic" transform="matrix(1, 0, 0, 1, 0.5, 0.5)" stroke-opacity="0" stroke-linejoin="bevel" stroke-miterlimit="10">92</text><text fill="rgb(68,68,68)" stroke="none" font-family="helvetica" font-size="13px" font-style="italic" font-weight="normal" text-decoration="normal" x="512.5" y="414" text-anchor="start" dominant-baseline="alphabetic" transform="matrix(1, 0, 0, 1, 0.5, 0.5)" fill-opacity="1"></text><text fill="none" stroke="rgb(0,0,0)" font-family="helvetica" font-size="13px" font-style="italic" font-weight="normal" text-decoration="normal" x="512.5" y="414" text-anchor="start" dominant-baseline="alphabetic" transform="matrix(1, 0, 0, 1, 0.5, 0.5)" stroke-opacity="0" stroke-linejoin="bevel" stroke-miterlimit="10"></text><path fill="none" stroke="rgb(0,0,0)" paint-order="fill" d="M 55.5 378.5 L 55.5 5.5" stroke-opacity="1" stroke-linejoin="bevel" stroke-miterlimit="10"/><path fill="none" stroke="rgb(0,0,0)" paint-order="fill" d="M 49.5 341.5 L 57.5 341.5 M 49.5 286.5 L 57.5 286.5 M 49.5 231.5 L 57.5 231.5 M 49.5 175.5 L 57.5 175.5 M 49.5 120.5 L 57.5 120.5 M 49.5 65.5 L 57.5 65.5 M 49.5 10.5 L 57.5 10.5" stroke-opacity="1" stroke-linejoin="bevel" stroke-miterlimit="10"/><path fill="none" stroke="rgb(0,0,0)" paint-order="fill" d="M 51.5 352.5 L 55.5 352.5 M 51.5 363.5 L 55.5 363.5 M 51.5 374.5 L 55.5 374.5 M 51.5 341.5 L 55.5 341.5 M 51.5 330.5 L 55.5 330.5 M 51.5 319.5 L 55.5 319.5 M 51.5 308.5 L 55.5 308.5 M 51.5 297.5 L 55.5 297.5 M 51.5 286.5 L 55.5 286.5 M 51.5 275.5 L 55.5 275.5 M 51.5 264.5 L 55.5 264.5 M 51.5 253.5 L 55.5 253.5 M 51.5 242.5 L 55.5 242.5 M 51.5 231.5 L 55.5 231.5 M 51.5 220.5 L 55.5 220.5 M 51.5 209.5 L 55.5 209.5 M 51.5 197.5 L 55.5 197.5 M 51.5 186.5 L 55.5 186.5 M 51.5 175.5 L 55.5 175.5 M 51.5 164.5 L 55.5 164.5 M 51.5 153.5 L 55.5 153.5 M 51.5 142.5 L 55.5 142.5 M 51.5 131.5 L 55.5 131.5 M 51.5 120.5 L 55.5 120.5 M 51.5 109.5 L 55.5 109.5 M 51.5 98.5 L 55.5 98.5 M 51.5 87.5 L 55.5 87.5 M 51.5 76.5 L 55.5 76.5 M 51.5 65.5 L 55.5 65.5 M 51.5 54.5 L 55.5 54.5 M 51.5 43.5 L 55.5 43.5 M 51.5 32.5 L 55.5 32.5 M 51.5 21.5 L 55.5 21.5 M 51.5 10.5 L 55.5 10.5" stroke-opacity="1" stroke-linejoin="bevel" stroke-miterlimit="10"/><text fill="rgb(68,68,68)" stroke="none" font-family="helvetica" font-size="11px" font-style="normal" font-weight="normal" text-decoration="normal" x="31.7646484375" y="344.8286437988281" text-anchor="start" dominant-baseline="alphabetic" transform="matrix(1, 0, 0, 1, 0.5, 0.5)" fill-opacity="1">36</text><text fill="none" stroke="rgb(0,0,0)" font-family="helvetica" font-size="11px" font-style="normal" font-weight="normal" text-decoration="normal" x="31.7646484375" y="344.8286437988281" text-anchor="start" dominant-baseline="alphabetic" transform="matrix(1, 0, 0, 1, 0.5, 0.5)" stroke-opacity="0" stroke-linejoin="bevel" stroke-miterlimit="10">36</text><text fill="rgb(68,68,68)" stroke="none" font-family="helvetica" font-size="11px" font-style="normal" font-weight="normal" text-decoration="normal" x="31.7646484375" y="289.6919250488281" text-anchor="start" dominant-baseline="alphabetic" transform="matrix(1, 0, 0, 1, 0.5, 0.5)" fill-opacity="1">48</text><text fill="none" stroke="rgb(0,0,0)" font-family="helvetica" font-size="11px" font-style="normal" font-weight="normal" text-decoration="normal" x="31.7646484375" y="289.6919250488281" text-anchor="start" dominant-baseline="alphabetic" transform="matrix(1, 0, 0, 1, 0.5, 0.5)" stroke-opacity="0" stroke-linejoin="bevel" stroke-miterlimit="10">48</text><text fill="rgb(68,68,68)" stroke="none" font-family="helvetica" font-size="11px" font-style="normal" font-weight="normal" text-decoration="normal" x="31.7646484375" y="234.55519104003906" text-anchor="start" dominant-baseline="alphabetic" transform="matrix(1, 0, 0, 1, 0.5, 0.5)" fill-opacity="1">60</text><text fill="none" stroke="rgb(0,0,0)" font-family="helvetica" font-size="11px" font-style="normal" font-weight="normal" text-decoration="normal" x="31.7646484375" y="234.55519104003906" text-anchor="start" dominant-baseline="alphabetic" transform="matrix(1, 0, 0, 1, 0.5, 0.5)" stroke-opacity="0" stroke-linejoin="bevel" stroke-miterlimit="10">60</text><text fill="rgb(68,68,68)" stroke="none" font-family="helvetica" font-size="11px" font-style="normal" font-weight="normal" text-decoration="normal" x="31.7646484375" y="179.41845703125" text-anchor="start" dominant-baseline="alphabetic" transform="matrix(1, 0, 0, 1, 0.5, 0.5)" fill-opacity="1">72</text><text fill="none" stroke="rgb(0,0,0)" font-family="helvetica" font-size="11px" font-style="normal" font-weight="normal" text-decoration="normal" x="31.7646484375" y="179.41845703125" text-anchor="start" dominant-baseline="alphabetic" transform="matrix(1, 0, 0, 1, 0.5, 0.5)" stroke-opacity="0" stroke-linejoin="bevel" stroke-miterlimit="10">72</text><text fill="rgb(68,68,68)" stroke="none" font-family="helvetica" font-size="11px" font-style="normal" font-weight="normal" text-decoration="normal" x="31.7646484375" y="124.28172302246094" text-anchor="start" dominant-baseline="alphabetic" transform="matrix(1, 0, 0, 1, 0.5, 0.5)" fill-opacity="1">84</text><text fill="none" stroke="rgb(0,0,0)" font-family="helvetica" font-size="11px" font-style="normal" font-weight="normal" text-decoration="normal" x="31.7646484375" y="124.28172302246094" text-anchor="start" dominant-baseline="alphabetic" transform="matrix(1, 0, 0, 1, 0.5, 0.5)" stroke-opacity="0" stroke-linejoin="bevel" stroke-miterlimit="10">84</text><text fill="rgb(68,68,68)" stroke="none" font-family="helvetica" font-size="11px" font-style="normal" font-weight="normal" text-decoration="normal" x="31.7646484375" y="69.14498901367188" text-anchor="start" dominant-baseline="alphabetic" transform="matrix(1, 0, 0, 1, 0.5, 0.5)" fill-opacity="1">96</text><text fill="none" stroke="rgb(0,0,0)" font-family="helvetica" font-size="11px" font-style="normal" font-weight="normal" text-decoration="normal" x="31.7646484375" y="69.14498901367188" text-anchor="start" dominant-baseline="alphabetic" transform="matrix(1, 0, 0, 1, 0.5, 0.5)" stroke-opacity="0" stroke-linejoin="bevel" stroke-miterlimit="10">96</text><text fill="rgb(68,68,68)" stroke="none" font-family="helvetica" font-size="11px" font-style="normal" font-weight="normal" text-decoration="normal" x="25.64697265625" y="14.00825309753418" text-anchor="start" dominant-baseline="alphabetic" transform="matrix(1, 0, 0, 1, 0.5, 0.5)" fill-opacity="1">108</text><text fill="none" stroke="rgb(0,0,0)" font-family="helvetica" font-size="11px" font-style="normal" font-weight="normal" text-decoration="normal" x="25.64697265625" y="14.00825309753418" text-anchor="start" dominant-baseline="alphabetic" transform="matrix(1, 0, 0, 1, 0.5, 0.5)" stroke-opacity="0" stroke-linejoin="bevel" stroke-miterlimit="10">108</text><text fill="rgb(68,68,68)" stroke="none" font-family="helvetica" font-size="13px" font-style="italic" font-weight="normal" text-decoration="normal" x="3.9169921875" y="188.5" text-anchor="start" dominant-baseline="alphabetic" transform="matrix(6.123233995736766e-17, -1, 1, 6.123233995736766e-17, -173.35302734375, 209.64697265625)" fill-opacity="1">pitch</text><text fill="none" stroke="rgb(0,0,0)" font-family="helvetica" font-size="13px" font-style="italic" font-weight="normal" text-decoration="normal" x="3.9169921875" y="188.5" text-anchor="start" dominant-baseline="alphabetic" transform="matrix(6.123233995736766e-17, -1, 1, 6.123233995736766e-17, -173.35302734375, 209.64697265625)" stroke-opacity="0" stroke-linejoin="bevel" stroke-miterlimit="10">pitch</text></svg>