<svg version="1.1" xmlns="http://www.w3.org/2000/svg" width="1000" height="400"><defs><clipPath id="vUASQFMsfTdw"><path fill="none" stroke="none" d="M 49.5 5.5 L 970.5 5.5 L 970.5 378.5 L 49.5 378.5 L 49.5 5.5 Z"/></clipPath><clipPath id="UkTgsBbFVxaH"><path fill="none" stroke="none" d="M 49.5 5.5 L 970.5 5.5 L 970.5 378.5 L 49.5 378.5 L 49.5 5.5 Z"/></clipPath><clipPath id="dKFDLLrnBqmV"><path fill="none" stroke="none" d="M 49.5 5.5 L 970.5 5.5 L 970.5 378.5 L 49.5 378.5 L 49.5 5.5 Z"/></clipPath><clipPath id="RTmdQhAxTLZl"><path fill="none" stroke="none" d="M 49.5 5.5 L 970.5 5.5 L 970.5 378.5 L 49.5 378.5 L 49.5 5.5 Z"/></clipPath></defs><path fill="none" stroke="rgb(229,229,229)" paint-order="fill" d="M 49.5 5.5 L 970.5 5.5 L 970.5 378.5 L 49.5 378.5 L 49.5 5.5 Z" stroke-opacity="1" stroke-linejoin="bevel" stroke-miterlimit="10"/><path fill="none" stroke="rgb(229,229,229)" paint-order="fill" d="M 171.5 378.5 L 171.5 5.5 M 308.5 378.5 L 308.5 5.5 M 445.5 378.5 L 445.5 5.5 M 582.5 378.5 L 582.5 5.5 M 719.5 378.5 L 719.5 5.5 M 856.5 378.5 L 856.5 5.5" stroke-opacity="1" stroke-linejoin="bevel" stroke-miterlimit="10" clip-path="url(#vUASQFMsfTdw)"/><path fill="none" stroke="rgb(229,229,229)" paint-order="fill" d="M 49.5 364.5 L 970.5 364.5 M 49.5 299.5 L 970.5 299.5 M 49.5 235.5 L 970.5 235.5 M 49.5 170.5 L 970.5 170.5 M 49.5 105.5 L 970.5 105.5 M 49.5 40.5 L 970.5 40.5" stroke-opacity="1" stroke-linejoin="bevel" stroke-miterlimit="10" clip-path="url(#UkTgsBbFVxaH)"/><path fill="rgb(213,62,79)" stroke="rgb(213,62,79)" paint-order="fill" d="M 91.36363983154297 173.64157104492188 L 95.0656509399414 173.64157104492188 L 95.0656509399414 177.96119689941406 L 91.36363983154297 177.96119689941406 L 91.36363983154297 173.64157104492188 Z" fill-opacity="1" clip-path="url(#dKFDLLrnBqmV)" stroke-opacity="1" stroke-linejoin="bevel" stroke-miterlimit="10"/><path fill="rgb(213,62,79)" stroke="rgb(213,62,79)" paint-order="fill" d="M 148.9505615234375 179.04110717773438 L 150.39022827148438 179.04110717773438 L 150.39022827148438 183.36074829101562 L 148.9505615234375 183.36074829101562 L 148.9505615234375 179.04110717773438 Z" fill-opacity="1" clip-path="url(#dKFDLLrnBqmV)" stroke-opacity="1" stroke-linejoin="bevel" stroke-miterlimit="10"/><path fill="rgb(213,62,79)" stroke="rgb(213,62,79)" paint-order="fill" d="M 148.9505615234375 162.84249877929688 L 150.4587860107422 162.84249877929688 L 150.4587860107422 167.16212463378906 L 148.9505615234375 167.16212463378906 L 148.9505615234375 162.84249877929688 Z" fill-opacity="1" clip-path="url(#dKFDLLrnBqmV)" stroke-opacity="1" stroke-linejoin="bevel" stroke-miterlimit="10"/><path fill="rgb(213,62,79)" stroke="rgb(213,62,79)" paint-order="fill" d="M 149.15621948242188 135.84481811523438 L 150.4587860107422 135.84481811523438 L 150.4587860107422 140.16444396972656 L 149.15621948242188 140.16444396972656 L 149.15621948242188 135.84481811523438 Z" fill-opacity="1" clip-path="url(#dKFDLLrnBqmV)" stroke-opacity="1" stroke-linejoin="bevel" stroke-miterlimit="10"/><path fill="rgb(213,62,79)" stroke="rgb(213,62,79)" paint-order="fill" d="M 150.39022827148438 179.04110717773438 L 154.1608123779297 179.04110717773438 L 154.1608123779297 183.36074829101562 L 150.39022827148438 183.36074829101562 L 150.39022827148438 179.04110717773438 Z" fill-opacity="1" clip-path="url(#dKFDLLrnBqmV)" stroke-opacity="1" stroke-linejoin="bevel" stroke-miterlimit="10"/><path fill="rgb(213,62,79)" stroke="rgb(213,62,79)" paint-order="fill" d="M 150.4587860107422 162.84249877929688 L 154.1608123779297 162.84249877929688 L 154.1608123779297 167.16212463378906 L 150.4587860107422 167.16212463378906 L 150.4587860107422 162.84249877929688 Z" fill-opacity="1" clip-path="url(#dKFDLLrnBqmV)" stroke-opacity="1" stroke-linejoin="bevel" stroke-miterlimit="10"/><path fill="rgb(213,62,79)" stroke="rgb(213,62,79)" paint-order="fill" d="M 150.4587860107422 135.84481811523438 L 154.1608123779297 135.84481811523438 L 154.1608123779297 140.16444396972656 L 150.4587860107422 140.16444396972656 L 150.4587860107422 135.84481811523438 Z" fill-opacity="1" clip-path="url(#dKFDLLrnBqmV)" stroke-opacity="1" stroke-linejoin="bevel" stroke-miterlimit="10"/><path fill="rgb(213,62,79)" stroke="rgb(213,62,79)" paint-order="fill" d="M 203.24679565429688 22.454545974731445 L 203.65814208984375 22.454545974731445 L 203.65814208984375 26.7741756439209 L 203.24679565429688 26.7741756439209 L 203.24679565429688 22.454545974731445 Z" fill-opacity="1" clip-path="url(#dKFDLLrnBqmV)" stroke-opacity="1" stroke-linejoin="bevel" stroke-miterlimit="10"/><path fill="rgb(213,62,79)" stroke="rgb(213,62,79)" paint-order="fill" d="M 203.86380004882812 292.431396484375 L 231.8345947265625 292.431396484375 L 231.8345947265625 296.7510070800781 L 203.86380004882812 296.7510070800781 L 203.86380004882812 292.431396484375 Z" fill-opacity="1" clip-path="url(#dKFDLLrnBqmV)" stroke-opacity="1" stroke-linejoin="bevel" stroke-miterlimit="10"/><path fill="rgb(213,62,79)" stroke="rgb(213,62,79)" paint-order="fill" d="M 204.00091552734375 98.04805755615234 L 231.8345947265625 98.04805755615234 L 231.8345947265625 102.36769104003906 L 204.00091552734375 102.36769104003906 L 204.00091552734375 98.04805755615234 Z" fill-opacity="1" clip-path="url(#dKFDLLrnBqmV)" stroke-opacity="1" stroke-linejoin="bevel" stroke-miterlimit="10"/><path fill="rgb(213,62,79)" stroke="rgb(213,62,79)" paint-order="fill" d="M 232.10882568359375 216.83787536621094 L 232.45159912109375 216.83787536621094 L 232.45159912109375 221.15750122070312 L 232.10882568359375 221.15750122070312 L 232.10882568359375 216.83787536621094 Z" fill-opacity="1" clip-path="url(#dKFDLLrnBqmV)" stroke-opacity="1" stroke-linejoin="bevel" stroke-miterlimit="10"/><path fill="rgb(213,62,79)" stroke="rgb(213,62,79)" paint-order="fill" d="M 232.31448364257812 200.63925170898438 L 232.52015686035156 200.63925170898438 L 232.52015686035156 204.95889282226562 L 232.31448364257812 204.95889282226562 L 232.31448364257812 200.63925170898438 Z" fill-opacity="1" clip-path="url(#dKFDLLrnBqmV)" stroke-opacity="1" stroke-linejoin="bevel" stroke-miterlimit="10"/><path fill="rgb(213,62,79)" stroke="rgb(213,62,79)" paint-order="fill" d="M 203.93235778808594 357.225830078125 L 237.5247344970703 357.225830078125 L 237.5247344970703 361.5454406738281 L 203.93235778808594 361.5454406738281 L 203.93235778808594 357.225830078125 Z" fill-opacity="1" clip-path="url(#dKFDLLrnBqmV)" stroke-opacity="1" stroke-linejoin="bevel" stroke-miterlimit="10"/><path fill="rgb(213,62,79)" stroke="rgb(213,62,79)" paint-order="fill" d="M 237.5247344970703 357.225830078125 L 238.27883911132812 357.225830078125 L 238.27883911132812 361.5454406738281 L 237.5247344970703 361.5454406738281 L 237.5247344970703 357.225830078125 Z" fill-opacity="1" clip-path="url(#dKFDLLrnBqmV)" stroke-opacity="1" stroke-linejoin="bevel" stroke-miterlimit="10"/><path fill="rgb(213,62,79)" stroke="rgb(213,62,79)" paint-order="fill" d="M 237.66184997558594 335.627685546875 L 238.27883911132812 335.627685546875 L 238.27883911132812 339.9472961425781 L 237.66184997558594 339.9472961425781 L 237.66184997558594 335.627685546875 Z" fill-opacity="1" clip-path="url(#dKFDLLrnBqmV)" stroke-opacity="1" stroke-linejoin="bevel" stroke-miterlimit="10"/><path fill="rgb(213,62,79)" stroke="rgb(213,62,79)" paint-order="fill" d="M 238.00462341308594 227.63694763183594 L 238.27883911132812 227.63694763183594 L 238.27883911132812 231.95657348632812 L 238.00462341308594 231.95657348632812 L 238.00462341308594 227.63694763183594 Z" fill-opacity="1" clip-path="url(#dKFDLLrnBqmV)" stroke-opacity="1" stroke-linejoin="bevel" stroke-miterlimit="10"/><path fill="rgb(213,62,79)" stroke="rgb(213,62,79)" paint-order="fill" d="M 237.8675079345703 189.84017944335938 L 238.27883911132812 189.84017944335938 L 238.27883911132812 194.15982055664062 L 237.8675079345703 194.15982055664062 L 237.8675079345703 189.84017944335938 Z" fill-opacity="1" clip-path="url(#dKFDLLrnBqmV)" stroke-opacity="1" stroke-linejoin="bevel" stroke-miterlimit="10"/><path fill="rgb(213,62,79)" stroke="rgb(213,62,79)" paint-order="fill" d="M 238.07318115234375 206.03880310058594 L 238.34739685058594 206.03880310058594 L 238.34739685058594 210.35842895507812 L 238.07318115234375 210.35842895507812 L 238.07318115234375 206.03880310058594 Z" fill-opacity="1" clip-path="url(#dKFDLLrnBqmV)" stroke-opacity="1" stroke-linejoin="bevel" stroke-miterlimit="10"/><path fill="rgb(213,62,79)" stroke="rgb(213,62,79)" paint-order="fill" d="M 259.05126953125 179.04110717773438 L 288.1875 179.04110717773438 L 288.1875 183.36074829101562 L 259.05126953125 183.36074829101562 L 259.05126953125 179.04110717773438 Z" fill-opacity="1" clip-path="url(#dKFDLLrnBqmV)" stroke-opacity="1" stroke-linejoin="bevel" stroke-miterlimit="10"/><path fill="rgb(213,62,79)" stroke="rgb(213,62,79)" paint-order="fill" d="M 259.05126953125 135.84481811523438 L 288.1875 135.84481811523438 L 288.1875 140.16444396972656 L 259.05126953125 140.16444396972656 L 259.05126953125 135.84481811523438 Z" fill-opacity="1" clip-path="url(#dKFDLLrnBqmV)" stroke-opacity="1" stroke-linejoin="bevel" stroke-miterlimit="10"/><path fill="rgb(213,62,79)" stroke="rgb(213,62,79)" paint-order="fill" d="M 259.05126953125 114.24667358398438 L 288.1875 114.24667358398438 L 288.1875 118.56629943847656 L 259.05126953125 118.56629943847656 L 259.05126953125 114.24667358398438 Z" fill-opacity="1" clip-path="url(#dKFDLLrnBqmV)" stroke-opacity="1" stroke-linejoin="bevel" stroke-miterlimit="10"/><path fill="rgb(213,62,79)" stroke="rgb(213,62,79)" paint-order="fill" d="M 427.90435791015625 146.64389038085938 L 429.3440246582031 146.64389038085938 L 429.3440246582031 150.96351623535156 L 427.90435791015625 150.96351623535156 L 427.90435791015625 146.64389038085938 Z" fill-opacity="1" clip-path="url(#dKFDLLrnBqmV)" stroke-opacity="1" stroke-linejoin="bevel" stroke-miterlimit="10"/><path fill="rgb(213,62,79)" stroke="rgb(213,62,79)" paint-order="fill" d="M 428.24713134765625 125.04574584960938 L 429.41259765625 125.04574584960938 L 429.41259765625 129.36537170410156 L 428.24713134765625 129.36537170410156 L 428.24713134765625 125.04574584960938 Z" fill-opacity="1" clip-path="url(#dKFDLLrnBqmV)" stroke-opacity="1" stroke-linejoin="bevel" stroke-miterlimit="10"/><path fill="rgb(213,62,79)" stroke="rgb(213,62,79)" paint-order="fill" d="M 429.3440246582031 146.64389038085938 L 430.6466064453125 146.64389038085938 L 430.6466064453125 150.96351623535156 L 429.3440246582031 150.96351623535156 L 429.3440246582031 146.64389038085938 Z" fill-opacity="1" clip-path="url(#dKFDLLrnBqmV)" stroke-opacity="1" stroke-linejoin="bevel" stroke-miterlimit="10"/><path fill="rgb(213,62,79)" stroke="rgb(213,62,79)" paint-order="fill" d="M 429.41259765625 125.04574584960938 L 430.71514892578125 125.04574584960938 L 430.71514892578125 129.36537170410156 L 429.41259765625 129.36537170410156 L 429.41259765625 125.04574584960938 Z" fill-opacity="1" clip-path="url(#dKFDLLrnBqmV)" stroke-opacity="1" stroke-linejoin="bevel" stroke-miterlimit="10"/><path fill="rgb(213,62,79)" stroke="rgb(213,62,79)" paint-order="fill" d="M 430.09814453125 98.04805755615234 L 431.05792236328125 98.04805755615234 L 431.05792236328125 102.36769104003906 L 430.09814453125 102.36769104003906 L 430.09814453125 98.04805755615234 Z" fill-opacity="1" clip-path="url(#dKFDLLrnBqmV)" stroke-opacity="1" stroke-linejoin="bevel" stroke-miterlimit="10"/><path fill="rgb(213,62,79)" stroke="rgb(213,62,79)" paint-order="fill" d="M 430.6466064453125 146.64389038085938 L 431.7434997558594 146.64389038085938 L 431.7434997558594 150.96351623535156 L 430.6466064453125 150.96351623535156 L 430.6466064453125 146.64389038085938 Z" fill-opacity="1" clip-path="url(#dKFDLLrnBqmV)" stroke-opacity="1" stroke-linejoin="bevel" stroke-miterlimit="10"/><path fill="rgb(213,62,79)" stroke="rgb(213,62,79)" paint-order="fill" d="M 430.71514892578125 125.04574584960938 L 431.8120422363281 125.04574584960938 L 431.8120422363281 129.36537170410156 L 430.71514892578125 129.36537170410156 L 430.71514892578125 125.04574584960938 Z" fill-opacity="1" clip-path="url(#dKFDLLrnBqmV)" stroke-opacity="1" stroke-linejoin="bevel" stroke-miterlimit="10"/><path fill="rgb(213,62,79)" stroke="rgb(213,62,79)" paint-order="fill" d="M 431.05792236328125 98.04805755615234 L 432.223388671875 98.04805755615234 L 432.223388671875 102.36769104003906 L 431.05792236328125 102.36769104003906 L 431.05792236328125 98.04805755615234 Z" fill-opacity="1" clip-path="url(#dKFDLLrnBqmV)" stroke-opacity="1" stroke-linejoin="bevel" stroke-miterlimit="10"/><path fill="rgb(213,62,79)" stroke="rgb(213,62,79)" paint-order="fill" d="M 431.8120422363281 125.04574584960938 L 432.63470458984375 125.04574584960938 L 432.63470458984375 129.36537170410156 L 431.8120422363281 129.36537170410156 L 431.8120422363281 125.04574584960938 Z" fill-opacity="1" clip-path="url(#dKFDLLrnBqmV)" stroke-opacity="1" stroke-linejoin="bevel" stroke-miterlimit="10"/><path fill="rgb(213,62,79)" stroke="rgb(213,62,79)" paint-order="fill" d="M 432.223388671875 98.04805755615234 L 433.0460510253906 98.04805755615234 L 433.0460510253906 102.36769104003906 L 432.223388671875 102.36769104003906 L 432.223388671875 98.04805755615234 Z" fill-opacity="1" clip-path="url(#dKFDLLrnBqmV)" stroke-opacity="1" stroke-linejoin="bevel" stroke-miterlimit="10"/><path fill="rgb(213,62,79)" stroke="rgb(213,62,79)" paint-order="fill" d="M 431.7434997558594 146.64389038085938 L 433.52593994140625 146.64389038085938 L 433.52593994140625 150.96351623535156 L 431.7434997558594 150.96351623535156 L 431.7434997558594 146.64389038085938 Z" fill-opacity="1" clip-path="url(#dKFDLLrnBqmV)" stroke-opacity="1" stroke-linejoin="bevel" stroke-miterlimit="10"/><path fill="rgb(213,62,79)" stroke="rgb(213,62,79)" paint-order="fill" d="M 432.63470458984375 125.04574584960938 L 433.594482421875 125.04574584960938 L 433.594482421875 129.36537170410156 L 432.63470458984375 129.36537170410156 L 432.63470458984375 125.04574584960938 Z" fill-opacity="1" clip-path="url(#dKFDLLrnBqmV)" stroke-opacity="1" stroke-linejoin="bevel" stroke-miterlimit="10"/><path fill="rgb(213,62,79)" stroke="rgb(213,62,79)" paint-order="fill" d="M 433.0460510253906 98.04805755615234 L 434.0743713378906 98.04805755615234 L 434.0743713378906 102.36769104003906 L 433.0460510253906 102.36769104003906 L 433.0460510253906 98.04805755615234 Z" fill-opacity="1" clip-path="url(#dKFDLLrnBqmV)" stroke-opacity="1" stroke-linejoin="bevel" stroke-miterlimit="10"/><path fill="rgb(213,62,79)" stroke="rgb(213,62,79)" paint-order="fill" d="M 433.594482421875 125.04574584960938 L 434.55426025390625 125.04574584960938 L 434.55426025390625 129.36537170410156 L 433.594482421875 129.36537170410156 L 433.594482421875 125.04574584960938 Z" fill-opacity="1" clip-path="url(#dKFDLLrnBqmV)" stroke-opacity="1" stroke-linejoin="bevel" stroke-miterlimit="10"/><path fill="rgb(213,62,79)" stroke="rgb(213,62,79)" paint-order="fill" d="M 433.52593994140625 146.64389038085938 L 434.8970642089844 146.64389038085938 L 434.8970642089844 150.96351623535156 L 433.52593994140625 150.96351623535156 L 433.52593994140625 146.64389038085938 Z" fill-opacity="1" clip-path="url(#dKFDLLrnBqmV)" stroke-opacity="1" stroke-linejoin="bevel" stroke-miterlimit="10"/><path fill="rgb(213,62,79)" stroke="rgb(213,62,79)" paint-order="fill" d="M 434.0743713378906 98.04805755615234 L 434.9656066894531 98.04805755615234 L 434.9656066894531 102.36769104003906 L 434.0743713378906 102.36769104003906 L 434.0743713378906 98.04805755615234 Z" fill-opacity="1" clip-path="url(#dKFDLLrnBqmV)" stroke-opacity="1" stroke-linejoin="bevel" stroke-miterlimit="10"/><path fill="rgb(213,62,79)" stroke="rgb(213,62,79)" paint-order="fill" d="M 434.55426025390625 125.04574584960938 L 435.44549560546875 125.04574584960938 L 435.44549560546875 129.36537170410156 L 434.55426025390625 129.36537170410156 L 434.55426025390625 125.04574584960938 Z" fill-opacity="1" clip-path="url(#dKFDLLrnBqmV)" stroke-opacity="1" stroke-linejoin="bevel" stroke-miterlimit="10"/><path fill="rgb(213,62,79)" stroke="rgb(213,62,79)" paint-order="fill" d="M 434.9656066894531 98.04805755615234 L 436.1310729980469 98.04805755615234 L 436.1310729980469 102.36769104003906 L 434.9656066894531 102.36769104003906 L 434.9656066894531 98.04805755615234 Z" fill-opacity="1" clip-path="url(#dKFDLLrnBqmV)" stroke-opacity="1" stroke-linejoin="bevel" stroke-miterlimit="10"/><path fill="rgb(213,62,79)" stroke="rgb(213,62,79)" paint-order="fill" d="M 434.8970642089844 146.64389038085938 L 436.2681579589844 146.64389038085938 L 436.2681579589844 150.96351623535156 L 434.8970642089844 150.96351623535156 L 434.8970642089844 146.64389038085938 Z" fill-opacity="1" clip-path="url(#dKFDLLrnBqmV)" stroke-opacity="1" stroke-linejoin="bevel" stroke-miterlimit="10"/><path fill="rgb(213,62,79)" stroke="rgb(213,62,79)" paint-order="fill" d="M 435.44549560546875 125.04574584960938 L 436.5423889160156 125.04574584960938 L 436.5423889160156 129.36537170410156 L 435.44549560546875 129.36537170410156 L 435.44549560546875 125.04574584960938 Z" fill-opacity="1" clip-path="url(#dKFDLLrnBqmV)" stroke-opacity="1" stroke-linejoin="bevel" stroke-miterlimit="10"/><path fill="rgb(213,62,79)" stroke="rgb(213,62,79)" paint-order="fill" d="M 436.1310729980469 98.04805755615234 L 437.5021667480469 98.04805755615234 L 437.5021667480469 102.36769104003906 L 436.1310729980469 102.36769104003906 L 436.1310729980469 98.04805755615234 Z" fill-opacity="1" clip-path="url(#dKFDLLrnBqmV)" stroke-opacity="1" stroke-linejoin="bevel" stroke-miterlimit="10"/><path fill="rgb(213,62,79)" stroke="rgb(213,62,79)" paint-order="fill" d="M 436.2681579589844 146.64389038085938 L 437.844970703125 146.64389038085938 L 437.844970703125 150.96351623535156 L 436.2681579589844 150.96351623535156 L 436.2681579589844 146.64389038085938 Z" fill-opacity="1" clip-path="url(#dKFDLLrnBqmV)" stroke-opacity="1" stroke-linejoin="bevel" stroke-miterlimit="10"/><path fill="rgb(213,62,79)" stroke="rgb(213,62,79)" paint-order="fill" d="M 436.5423889160156 125.04574584960938 L 437.91351318359375 125.04574584960938 L 437.91351318359375 129.36537170410156 L 436.5423889160156 129.36537170410156 L 436.5423889160156 125.04574584960938 Z" fill-opacity="1" clip-path="url(#dKFDLLrnBqmV)" stroke-opacity="1" stroke-linejoin="bevel" stroke-miterlimit="10"/><path fill="rgb(213,62,79)" stroke="rgb(213,62,79)" paint-order="fill" d="M 437.5021667480469 98.04805755615234 L 438.3934020996094 98.04805755615234 L 438.3934020996094 102.36769104003906 L 437.5021667480469 102.36769104003906 L 437.5021667480469 98.04805755615234 Z" fill-opacity="1" clip-path="url(#dKFDLLrnBqmV)" stroke-opacity="1" stroke-linejoin="bevel" stroke-miterlimit="10"/><path fill="rgb(213,62,79)" stroke="rgb(213,62,79)" paint-order="fill" d="M 437.844970703125 146.64389038085938 L 438.530517578125 146.64389038085938 L 438.530517578125 150.96351623535156 L 437.844970703125 150.96351623535156 L 437.844970703125 146.64389038085938 Z" fill-opacity="1" clip-path="url(#dKFDLLrnBqmV)" stroke-opacity="1" stroke-linejoin="bevel" stroke-miterlimit="10"/><path fill="rgb(213,62,79)" stroke="rgb(213,62,79)" paint-order="fill" d="M 437.91351318359375 125.04574584960938 L 438.9418640136719 125.04574584960938 L 438.9418640136719 129.36537170410156 L 437.91351318359375 129.36537170410156 L 437.91351318359375 125.04574584960938 Z" fill-opacity="1" clip-path="url(#dKFDLLrnBqmV)" stroke-opacity="1" stroke-linejoin="bevel" stroke-miterlimit="10"/><path fill="rgb(213,62,79)" stroke="rgb(213,62,79)" paint-order="fill" d="M 432.29193115234375 292.431396484375 L 439.0789489746094 292.431396484375 L 439.0789489746094 296.7510070800781 L 432.29193115234375 296.7510070800781 L 432.29193115234375 292.431396484375 Z" fill-opacity="1" clip-path="url(#dKFDLLrnBqmV)" stroke-opacity="1" stroke-linejoin="bevel" stroke-miterlimit="10"/><path fill="rgb(213,62,79)" stroke="rgb(213,62,79)" paint-order="fill" d="M 438.3934020996094 98.04805755615234 L 439.2846374511719 98.04805755615234 L 439.2846374511719 102.36769104003906 L 438.3934020996094 102.36769104003906 L 438.3934020996094 98.04805755615234 Z" fill-opacity="1" clip-path="url(#dKFDLLrnBqmV)" stroke-opacity="1" stroke-linejoin="bevel" stroke-miterlimit="10"/><path fill="rgb(213,62,79)" stroke="rgb(213,62,79)" paint-order="fill" d="M 438.9418640136719 125.04574584960938 L 440.03875732421875 125.04574584960938 L 440.03875732421875 129.36537170410156 L 438.9418640136719 129.36537170410156 L 438.9418640136719 125.04574584960938 Z" fill-opacity="1" clip-path="url(#dKFDLLrnBqmV)" stroke-opacity="1" stroke-linejoin="bevel" stroke-miterlimit="10"/><path fill="rgb(213,62,79)" stroke="rgb(213,62,79)" paint-order="fill" d="M 438.530517578125 146.64389038085938 L 440.38153076171875 146.64389038085938 L 440.38153076171875 150.96351623535156 L 438.530517578125 150.96351623535156 L 438.530517578125 146.64389038085938 Z" fill-opacity="1" clip-path="url(#dKFDLLrnBqmV)" stroke-opacity="1" stroke-linejoin="bevel" stroke-miterlimit="10"/><path fill="rgb(213,62,79)" stroke="rgb(213,62,79)" paint-order="fill" d="M 439.0789489746094 292.431396484375 L 440.38153076171875 292.431396484375 L 440.38153076171875 296.7510070800781 L 439.0789489746094 296.7510070800781 L 439.0789489746094 292.431396484375 Z" fill-opacity="1" clip-path="url(#dKFDLLrnBqmV)" stroke-opacity="1" stroke-linejoin="bevel" stroke-miterlimit="10"/><path fill="rgb(213,62,79)" stroke="rgb(213,62,79)" paint-order="fill" d="M 439.2846374511719 98.04805755615234 L 440.5186462402344 98.04805755615234 L 440.5186462402344 102.36769104003906 L 439.2846374511719 102.36769104003906 L 439.2846374511719 98.04805755615234 Z" fill-opacity="1" clip-path="url(#dKFDLLrnBqmV)" stroke-opacity="1" stroke-linejoin="bevel" stroke-miterlimit="10"/><path fill="rgb(213,62,79)" stroke="rgb(213,62,79)" paint-order="fill" d="M 440.38153076171875 292.431396484375 L 440.9299621582031 292.431396484375 L 440.9299621582031 296.7510070800781 L 440.38153076171875 296.7510070800781 L 440.38153076171875 292.431396484375 Z" fill-opacity="1" clip-path="url(#dKFDLLrnBqmV)" stroke-opacity="1" stroke-linejoin="bevel" stroke-miterlimit="10"/><path fill="rgb(213,62,79)" stroke="rgb(213,62,79)" paint-order="fill" d="M 434.0058288574219 189.84017944335938 L 440.9299621582031 189.84017944335938 L 440.9299621582031 194.15982055664062 L 434.0058288574219 194.15982055664062 L 434.0058288574219 189.84017944335938 Z" fill-opacity="1" clip-path="url(#dKFDLLrnBqmV)" stroke-opacity="1" stroke-linejoin="bevel" stroke-miterlimit="10"/><path fill="rgb(213,62,79)" stroke="rgb(213,62,79)" paint-order="fill" d="M 440.38153076171875 146.64389038085938 L 440.9299621582031 146.64389038085938 L 440.9299621582031 150.96351623535156 L 440.38153076171875 150.96351623535156 L 440.38153076171875 146.64389038085938 Z" fill-opacity="1" clip-path="url(#dKFDLLrnBqmV)" stroke-opacity="1" stroke-linejoin="bevel" stroke-miterlimit="10"/><path fill="rgb(213,62,79)" stroke="rgb(213,62,79)" paint-order="fill" d="M 440.03875732421875 125.04574584960938 L 440.9299621582031 125.04574584960938 L 440.9299621582031 129.36537170410156 L 440.03875732421875 129.36537170410156 L 440.03875732421875 125.04574584960938 Z" fill-opacity="1" clip-path="url(#dKFDLLrnBqmV)" stroke-opacity="1" stroke-linejoin="bevel" stroke-miterlimit="10"/><path fill="rgb(213,62,79)" stroke="rgb(213,62,79)" paint-order="fill" d="M 440.5186462402344 98.04805755615234 L 440.9299621582031 98.04805755615234 L 440.9299621582031 102.36769104003906 L 440.5186462402344 102.36769104003906 L 440.5186462402344 98.04805755615234 Z" fill-opacity="1" clip-path="url(#dKFDLLrnBqmV)" stroke-opacity="1" stroke-linejoin="bevel" stroke-miterlimit="10"/><path fill="rgb(213,62,79)" stroke="rgb(213,62,79)" paint-order="fill" d="M 440.99853515625 162.84249877929688 L 483.7773742675781 162.84249877929688 L 483.7773742675781 167.16212463378906 L 440.99853515625 167.16212463378906 L 440.99853515625 162.84249877929688 Z" fill-opacity="1" clip-path="url(#dKFDLLrnBqmV)" stroke-opacity="1" stroke-linejoin="bevel" stroke-miterlimit="10"/><path fill="rgb(213,62,79)" stroke="rgb(213,62,79)" paint-order="fill" d="M 483.7088317871094 179.04110717773438 L 486.65673828125 179.04110717773438 L 486.65673828125 183.36074829101562 L 483.7088317871094 183.36074829101562 L 483.7088317871094 179.04110717773438 Z" fill-opacity="1" clip-path="url(#dKFDLLrnBqmV)" stroke-opacity="1" stroke-linejoin="bevel" stroke-miterlimit="10"/><path fill="rgb(213,62,79)" stroke="rgb(213,62,79)" paint-order="fill" d="M 483.7773742675781 200.63925170898438 L 486.65673828125 200.63925170898438 L 486.65673828125 204.95889282226562 L 483.7773742675781 204.95889282226562 L 483.7773742675781 200.63925170898438 Z" fill-opacity="1" clip-path="url(#dKFDLLrnBqmV)" stroke-opacity="1" stroke-linejoin="bevel" stroke-miterlimit="10"/><path fill="rgb(213,62,79)" stroke="rgb(213,62,79)" paint-order="fill" d="M 483.7773742675781 162.84249877929688 L 486.65673828125 162.84249877929688 L 486.65673828125 167.16212463378906 L 483.7773742675781 167.16212463378906 L 483.7773742675781 162.84249877929688 Z" fill-opacity="1" clip-path="url(#dKFDLLrnBqmV)" stroke-opacity="1" stroke-linejoin="bevel" stroke-miterlimit="10"/><path fill="rgb(213,62,79)" stroke="rgb(213,62,79)" paint-order="fill" d="M 483.845947265625 135.84481811523438 L 486.65673828125 135.84481811523438 L 486.65673828125 140.16444396972656 L 483.845947265625 140.16444396972656 L 483.845947265625 135.84481811523438 Z" fill-opacity="1" clip-path="url(#dKFDLLrnBqmV)" stroke-opacity="1" stroke-linejoin="bevel" stroke-miterlimit="10"/><path fill="rgb(213,62,79)" stroke="rgb(213,62,79)" paint-order="fill" d="M 486.65673828125 135.84481811523438 L 567.5526733398438 135.84481811523438 L 567.5526733398438 140.16444396972656 L 486.65673828125 140.16444396972656 L 486.65673828125 135.84481811523438 Z" fill-opacity="1" clip-path="url(#dKFDLLrnBqmV)" stroke-opacity="1" stroke-linejoin="bevel" stroke-miterlimit="10"/><path fill="rgb(213,62,79)" stroke="rgb(213,62,79)" paint-order="fill" d="M 567.5526733398438 135.84481811523438 L 570.2948608398438 135.84481811523438 L 570.2948608398438 140.16444396972656 L 567.5526733398438 140.16444396972656 L 567.5526733398438 135.84481811523438 Z" fill-opacity="1" clip-path="url(#dKFDLLrnBqmV)" stroke-opacity="1" stroke-linejoin="bevel" stroke-miterlimit="10"/><path fill="rgb(213,62,79)" stroke="rgb(213,62,79)" paint-order="fill" d="M 568.44384765625 125.04574584960938 L 570.2948608398438 125.04574584960938 L 570.2948608398438 129.36537170410156 L 568.44384765625 129.36537170410156 L 568.44384765625 125.04574584960938 Z" fill-opacity="1" clip-path="url(#dKFDLLrnBqmV)" stroke-opacity="1" stroke-linejoin="bevel" stroke-miterlimit="10"/><path fill="rgb(213,62,79)" stroke="rgb(213,62,79)" paint-order="fill" d="M 569.2665405273438 357.225830078125 L 570.911865234375 357.225830078125 L 570.911865234375 361.5454406738281 L 569.2665405273438 361.5454406738281 L 569.2665405273438 357.225830078125 Z" fill-opacity="1" clip-path="url(#dKFDLLrnBqmV)" stroke-opacity="1" stroke-linejoin="bevel" stroke-miterlimit="10"/><path fill="rgb(213,62,79)" stroke="rgb(213,62,79)" paint-order="fill" d="M 570.7747802734375 292.431396484375 L 571.3232421875 292.431396484375 L 571.3232421875 296.7510070800781 L 570.7747802734375 296.7510070800781 L 570.7747802734375 292.431396484375 Z" fill-opacity="1" clip-path="url(#dKFDLLrnBqmV)" stroke-opacity="1" stroke-linejoin="bevel" stroke-miterlimit="10"/><path fill="rgb(213,62,79)" stroke="rgb(213,62,79)" paint-order="fill" d="M 570.911865234375 357.225830078125 L 571.3917846679688 357.225830078125 L 571.3917846679688 361.5454406738281 L 570.911865234375 361.5454406738281 L 570.911865234375 357.225830078125 Z" fill-opacity="1" clip-path="url(#dKFDLLrnBqmV)" stroke-opacity="1" stroke-linejoin="bevel" stroke-miterlimit="10"/><path fill="rgb(213,62,79)" stroke="rgb(213,62,79)" paint-order="fill" d="M 570.2948608398438 125.04574584960938 L 572.0773315429688 125.04574584960938 L 572.0773315429688 129.36537170410156 L 570.2948608398438 129.36537170410156 L 570.2948608398438 125.04574584960938 Z" fill-opacity="1" clip-path="url(#dKFDLLrnBqmV)" stroke-opacity="1" stroke-linejoin="bevel" stroke-miterlimit="10"/><path fill="rgb(213,62,79)" stroke="rgb(213,62,79)" paint-order="fill" d="M 571.3917846679688 357.225830078125 L 572.4201049804688 357.225830078125 L 572.4201049804688 361.5454406738281 L 571.3917846679688 361.5454406738281 L 571.3917846679688 357.225830078125 Z" fill-opacity="1" clip-path="url(#dKFDLLrnBqmV)" stroke-opacity="1" stroke-linejoin="bevel" stroke-miterlimit="10"/><path fill="rgb(213,62,79)" stroke="rgb(213,62,79)" paint-order="fill" d="M 570.2948608398438 135.84481811523438 L 572.6257934570312 135.84481811523438 L 572.6257934570312 140.16444396972656 L 570.2948608398438 140.16444396972656 L 570.2948608398438 135.84481811523438 Z" fill-opacity="1" clip-path="url(#dKFDLLrnBqmV)" stroke-opacity="1" stroke-linejoin="bevel" stroke-miterlimit="10"/><path fill="rgb(213,62,79)" stroke="rgb(213,62,79)" paint-order="fill" d="M 571.3232421875 292.431396484375 L 574.0654296875 292.431396484375 L 574.0654296875 296.7510070800781 L 571.3232421875 296.7510070800781 L 571.3232421875 292.431396484375 Z" fill-opacity="1" clip-path="url(#dKFDLLrnBqmV)" stroke-opacity="1" stroke-linejoin="bevel" stroke-miterlimit="10"/><path fill="rgb(213,62,79)" stroke="rgb(213,62,79)" paint-order="fill" d="M 572.4201049804688 357.225830078125 L 574.134033203125 357.225830078125 L 574.134033203125 361.5454406738281 L 572.4201049804688 361.5454406738281 L 572.4201049804688 357.225830078125 Z" fill-opacity="1" clip-path="url(#dKFDLLrnBqmV)" stroke-opacity="1" stroke-linejoin="bevel" stroke-miterlimit="10"/><path fill="rgb(213,62,79)" stroke="rgb(213,62,79)" paint-order="fill" d="M 572.0773315429688 125.04574584960938 L 574.7510375976562 125.04574584960938 L 574.7510375976562 129.36537170410156 L 572.0773315429688 129.36537170410156 L 572.0773315429688 125.04574584960938 Z" fill-opacity="1" clip-path="url(#dKFDLLrnBqmV)" stroke-opacity="1" stroke-linejoin="bevel" stroke-miterlimit="10"/><path fill="rgb(213,62,79)" stroke="rgb(213,62,79)" paint-order="fill" d="M 574.134033203125 357.225830078125 L 575.162353515625 357.225830078125 L 575.162353515625 361.5454406738281 L 574.134033203125 361.5454406738281 L 574.134033203125 357.225830078125 Z" fill-opacity="1" clip-path="url(#dKFDLLrnBqmV)" stroke-opacity="1" stroke-linejoin="bevel" stroke-miterlimit="10"/><path fill="rgb(213,62,79)" stroke="rgb(213,62,79)" paint-order="fill" d="M 575.162353515625 357.225830078125 L 575.7108154296875 357.225830078125 L 575.7108154296875 361.5454406738281 L 575.162353515625 361.5454406738281 L 575.162353515625 357.225830078125 Z" fill-opacity="1" clip-path="url(#dKFDLLrnBqmV)" stroke-opacity="1" stroke-linejoin="bevel" stroke-miterlimit="10"/><path fill="rgb(213,62,79)" stroke="rgb(213,62,79)" paint-order="fill" d="M 574.0654296875 292.431396484375 L 576.0535888671875 292.431396484375 L 576.0535888671875 296.7510070800781 L 574.0654296875 296.7510070800781 L 574.0654296875 292.431396484375 Z" fill-opacity="1" clip-path="url(#dKFDLLrnBqmV)" stroke-opacity="1" stroke-linejoin="bevel" stroke-miterlimit="10"/><path fill="rgb(213,62,79)" stroke="rgb(213,62,79)" paint-order="fill" d="M 575.7108154296875 357.225830078125 L 576.7391357421875 357.225830078125 L 576.7391357421875 361.5454406738281 L 575.7108154296875 361.5454406738281 L 575.7108154296875 357.225830078125 Z" fill-opacity="1" clip-path="url(#dKFDLLrnBqmV)" stroke-opacity="1" stroke-linejoin="bevel" stroke-miterlimit="10"/><path fill="rgb(213,62,79)" stroke="rgb(213,62,79)" paint-order="fill" d="M 576.7391357421875 357.225830078125 L 576.8076782226562 357.225830078125 L 576.8076782226562 361.5454406738281 L 576.7391357421875 361.5454406738281 L 576.7391357421875 357.225830078125 Z" fill-opacity="1" clip-path="url(#dKFDLLrnBqmV)" stroke-opacity="1" stroke-linejoin="bevel" stroke-miterlimit="10"/><path fill="rgb(213,62,79)" stroke="rgb(213,62,79)" paint-order="fill" d="M 576.0535888671875 292.431396484375 L 576.8076782226562 292.431396484375 L 576.8076782226562 296.7510070800781 L 576.0535888671875 296.7510070800781 L 576.0535888671875 292.431396484375 Z" fill-opacity="1" clip-path="url(#dKFDLLrnBqmV)" stroke-opacity="1" stroke-linejoin="bevel" stroke-miterlimit="10"/><path fill="rgb(213,62,79)" stroke="rgb(213,62,79)" paint-order="fill" d="M 576.7391357421875 357.225830078125 L 576.8076782226562 357.225830078125 L 576.8076782226562 361.5454406738281 L 576.7391357421875 361.5454406738281 L 576.7391357421875 357.225830078125 Z" fill-opacity="1" clip-path="url(#dKFDLLrnBqmV)" stroke-opacity="1" stroke-linejoin="bevel" stroke-miterlimit="10"/><path fill="rgb(213,62,79)" stroke="rgb(213,62,79)" paint-order="fill" d="M 576.7391357421875 319.4290771484375 L 576.876220703125 319.4290771484375 L 576.876220703125 323.7486877441406 L 576.7391357421875 323.7486877441406 L 576.7391357421875 319.4290771484375 Z" fill-opacity="1" clip-path="url(#dKFDLLrnBqmV)" stroke-opacity="1" stroke-linejoin="bevel" stroke-miterlimit="10"/><path fill="rgb(213,62,79)" stroke="rgb(213,62,79)" paint-order="fill" d="M 576.8076782226562 357.225830078125 L 576.876220703125 357.225830078125 L 576.876220703125 361.5454406738281 L 576.8076782226562 361.5454406738281 L 576.8076782226562 357.225830078125 Z" fill-opacity="1" clip-path="url(#dKFDLLrnBqmV)" stroke-opacity="1" stroke-linejoin="bevel" stroke-miterlimit="10"/><path fill="rgb(213,62,79)" stroke="rgb(213,62,79)" paint-order="fill" d="M 576.876220703125 319.4290771484375 L 576.94482421875 319.4290771484375 L 576.94482421875 323.7486877441406 L 576.876220703125 323.7486877441406 L 576.876220703125 319.4290771484375 Z" fill-opacity="1" clip-path="url(#dKFDLLrnBqmV)" stroke-opacity="1" stroke-linejoin="bevel" stroke-miterlimit="10"/><path fill="rgb(213,62,79)" stroke="rgb(213,62,79)" paint-order="fill" d="M 576.876220703125 357.225830078125 L 576.94482421875 357.225830078125 L 576.94482421875 361.5454406738281 L 576.876220703125 361.5454406738281 L 576.876220703125 357.225830078125 Z" fill-opacity="1" clip-path="url(#dKFDLLrnBqmV)" stroke-opacity="1" stroke-linejoin="bevel" stroke-miterlimit="10"/><path fill="rgb(213,62,79)" stroke="rgb(213,62,79)" paint-order="fill" d="M 576.94482421875 341.0272216796875 L 577.0133666992188 341.0272216796875 L 577.0133666992188 345.3468322753906 L 576.94482421875 345.3468322753906 L 576.94482421875 341.0272216796875 Z" fill-opacity="1" clip-path="url(#dKFDLLrnBqmV)" stroke-opacity="1" stroke-linejoin="bevel" stroke-miterlimit="10"/><path fill="rgb(213,62,79)" stroke="rgb(213,62,79)" paint-order="fill" d="M 576.8076782226562 292.431396484375 L 576.94482421875 292.431396484375 L 576.94482421875 296.7510070800781 L 576.8076782226562 296.7510070800781 L 576.8076782226562 292.431396484375 Z" fill-opacity="1" clip-path="url(#dKFDLLrnBqmV)" stroke-opacity="1" stroke-linejoin="bevel" stroke-miterlimit="10"/><path fill="rgb(213,62,79)" stroke="rgb(213,62,79)" paint-order="fill" d="M 576.94482421875 357.225830078125 L 577.0133666992188 357.225830078125 L 577.0133666992188 361.5454406738281 L 576.94482421875 361.5454406738281 L 576.94482421875 357.225830078125 Z" fill-opacity="1" clip-path="url(#dKFDLLrnBqmV)" stroke-opacity="1" stroke-linejoin="bevel" stroke-miterlimit="10"/><path fill="rgb(213,62,79)" stroke="rgb(213,62,79)" paint-order="fill" d="M 576.94482421875 319.4290771484375 L 651.8078002929688 319.4290771484375 L 651.8078002929688 323.7486877441406 L 576.94482421875 323.7486877441406 L 576.94482421875 319.4290771484375 Z" fill-opacity="1" clip-path="url(#dKFDLLrnBqmV)" stroke-opacity="1" stroke-linejoin="bevel" stroke-miterlimit="10"/><path fill="rgb(213,62,79)" stroke="rgb(213,62,79)" paint-order="fill" d="M 486.65673828125 162.84249877929688 L 651.8078002929688 162.84249877929688 L 651.8078002929688 167.16212463378906 L 486.65673828125 167.16212463378906 L 486.65673828125 162.84249877929688 Z" fill-opacity="1" clip-path="url(#dKFDLLrnBqmV)" stroke-opacity="1" stroke-linejoin="bevel" stroke-miterlimit="10"/><path fill="rgb(213,62,79)" stroke="rgb(213,62,79)" paint-order="fill" d="M 571.5288696289062 146.64389038085938 L 651.8078002929688 146.64389038085938 L 651.8078002929688 150.96351623535156 L 571.5288696289062 150.96351623535156 L 571.5288696289062 146.64389038085938 Z" fill-opacity="1" clip-path="url(#dKFDLLrnBqmV)" stroke-opacity="1" stroke-linejoin="bevel" stroke-miterlimit="10"/><path fill="rgb(213,62,79)" stroke="rgb(213,62,79)" paint-order="fill" d="M 574.7510375976562 125.04574584960938 L 651.8078002929688 125.04574584960938 L 651.8078002929688 129.36537170410156 L 574.7510375976562 129.36537170410156 L 574.7510375976562 125.04574584960938 Z" fill-opacity="1" clip-path="url(#dKFDLLrnBqmV)" stroke-opacity="1" stroke-linejoin="bevel" stroke-miterlimit="10"/><path fill="rgb(213,62,79)" stroke="rgb(213,62,79)" paint-order="fill" d="M 568.512451171875 108.84713745117188 L 912.320068359375 108.84713745117188 L 912.320068359375 113.16676330566406 L 568.512451171875 113.16676330566406 L 568.512451171875 108.84713745117188 Z" fill-opacity="1" clip-path="url(#dKFDLLrnBqmV)" stroke-opacity="1" stroke-linejoin="bevel" stroke-miterlimit="10"/><path fill="rgb(213,62,79)" stroke="rgb(213,62,79)" paint-order="fill" d="M 912.320068359375 108.84713745117188 L 914.1025390625 108.84713745117188 L 914.1025390625 113.16676330566406 L 912.320068359375 113.16676330566406 L 912.320068359375 108.84713745117188 Z" fill-opacity="1" clip-path="url(#dKFDLLrnBqmV)" stroke-opacity="1" stroke-linejoin="bevel" stroke-miterlimit="10"/><path fill="rgb(213,62,79)" stroke="rgb(213,62,79)" paint-order="fill" d="M 914.1025390625 108.84713745117188 L 915.0623168945312 108.84713745117188 L 915.0623168945312 113.16676330566406 L 914.1025390625 113.16676330566406 L 914.1025390625 108.84713745117188 Z" fill-opacity="1" clip-path="url(#dKFDLLrnBqmV)" stroke-opacity="1" stroke-linejoin="bevel" stroke-miterlimit="10"/><path fill="rgb(213,62,79)" stroke="rgb(213,62,79)" paint-order="fill" d="M 913.5540771484375 125.04574584960938 L 915.4050903320312 125.04574584960938 L 915.4050903320312 129.36537170410156 L 913.5540771484375 129.36537170410156 L 913.5540771484375 125.04574584960938 Z" fill-opacity="1" clip-path="url(#dKFDLLrnBqmV)" stroke-opacity="1" stroke-linejoin="bevel" stroke-miterlimit="10"/><path fill="rgb(213,62,79)" stroke="rgb(213,62,79)" paint-order="fill" d="M 915.0623168945312 108.84713745117188 L 915.9535522460938 108.84713745117188 L 915.9535522460938 113.16676330566406 L 915.0623168945312 113.16676330566406 L 915.0623168945312 108.84713745117188 Z" fill-opacity="1" clip-path="url(#dKFDLLrnBqmV)" stroke-opacity="1" stroke-linejoin="bevel" stroke-miterlimit="10"/><path fill="rgb(213,62,79)" stroke="rgb(213,62,79)" paint-order="fill" d="M 915.4050903320312 125.04574584960938 L 916.7076416015625 125.04574584960938 L 916.7076416015625 129.36537170410156 L 915.4050903320312 129.36537170410156 L 915.4050903320312 125.04574584960938 Z" fill-opacity="1" clip-path="url(#dKFDLLrnBqmV)" stroke-opacity="1" stroke-linejoin="bevel" stroke-miterlimit="10"/><path fill="rgb(213,62,79)" stroke="rgb(213,62,79)" paint-order="fill" d="M 915.9535522460938 108.84713745117188 L 916.7076416015625 108.84713745117188 L 916.7076416015625 113.16676330566406 L 915.9535522460938 113.16676330566406 L 915.9535522460938 108.84713745117188 Z" fill-opacity="1" clip-path="url(#dKFDLLrnBqmV)" stroke-opacity="1" stroke-linejoin="bevel" stroke-miterlimit="10"/><path fill="rgb(213,62,79)" stroke="rgb(213,62,79)" paint-order="fill" d="M 917.0504150390625 114.24667358398438 L 917.8731079101562 114.24667358398438 L 917.8731079101562 118.56629943847656 L 917.0504150390625 118.56629943847656 L 917.0504150390625 114.24667358398438 Z" fill-opacity="1" clip-path="url(#dKFDLLrnBqmV)" stroke-opacity="1" stroke-linejoin="bevel" stroke-miterlimit="10"/><path fill="rgb(213,62,79)" stroke="rgb(213,62,79)" paint-order="fill" d="M 917.8731079101562 114.24667358398438 L 919.4498901367188 114.24667358398438 L 919.4498901367188 118.56629943847656 L 917.8731079101562 118.56629943847656 L 917.8731079101562 114.24667358398438 Z" fill-opacity="1" clip-path="url(#dKFDLLrnBqmV)" stroke-opacity="1" stroke-linejoin="bevel" stroke-miterlimit="10"/><path fill="rgb(213,62,79)" stroke="rgb(213,62,79)" paint-order="fill" d="M 919.7926635742188 98.04805755615234 L 920.9581298828125 98.04805755615234 L 920.9581298828125 102.36769104003906 L 919.7926635742188 102.36769104003906 L 919.7926635742188 98.04805755615234 Z" fill-opacity="1" clip-path="url(#dKFDLLrnBqmV)" stroke-opacity="1" stroke-linejoin="bevel" stroke-miterlimit="10"/><path fill="rgb(213,62,79)" stroke="rgb(213,62,79)" paint-order="fill" d="M 919.4498901367188 114.24667358398438 L 922.192138671875 114.24667358398438 L 922.192138671875 118.56629943847656 L 919.4498901367188 118.56629943847656 L 919.4498901367188 114.24667358398438 Z" fill-opacity="1" clip-path="url(#dKFDLLrnBqmV)" stroke-opacity="1" stroke-linejoin="bevel" stroke-miterlimit="10"/><path fill="rgb(213,62,79)" stroke="rgb(213,62,79)" paint-order="fill" d="M 920.9581298828125 98.04805755615234 L 922.3292236328125 98.04805755615234 L 922.3292236328125 102.36769104003906 L 920.9581298828125 102.36769104003906 L 920.9581298828125 98.04805755615234 Z" fill-opacity="1" clip-path="url(#dKFDLLrnBqmV)" stroke-opacity="1" stroke-linejoin="bevel" stroke-miterlimit="10"/><path fill="rgb(213,62,79)" stroke="rgb(213,62,79)" paint-order="fill" d="M 922.3292236328125 98.04805755615234 L 923.7689208984375 98.04805755615234 L 923.7689208984375 102.36769104003906 L 922.3292236328125 102.36769104003906 L 922.3292236328125 98.04805755615234 Z" fill-opacity="1" clip-path="url(#dKFDLLrnBqmV)" stroke-opacity="1" stroke-linejoin="bevel" stroke-miterlimit="10"/><path fill="rgb(213,62,79)" stroke="rgb(213,62,79)" paint-order="fill" d="M 922.192138671875 114.24667358398438 L 924.7972412109375 114.24667358398438 L 924.7972412109375 118.56629943847656 L 922.192138671875 118.56629943847656 L 922.192138671875 114.24667358398438 Z" fill-opacity="1" clip-path="url(#dKFDLLrnBqmV)" stroke-opacity="1" stroke-linejoin="bevel" stroke-miterlimit="10"/><path fill="rgb(213,62,79)" stroke="rgb(213,62,79)" paint-order="fill" d="M 923.7689208984375 98.04805755615234 L 925.4142456054688 98.04805755615234 L 925.4142456054688 102.36769104003906 L 923.7689208984375 102.36769104003906 L 923.7689208984375 98.04805755615234 Z" fill-opacity="1" clip-path="url(#dKFDLLrnBqmV)" stroke-opacity="1" stroke-linejoin="bevel" stroke-miterlimit="10"/><path fill="rgb(213,62,79)" stroke="rgb(213,62,79)" paint-order="fill" d="M 925.4142456054688 98.04805755615234 L 928.5678100585938 98.04805755615234 L 928.5678100585938 102.36769104003906 L 925.4142456054688 102.36769104003906 L 925.4142456054688 98.04805755615234 Z" fill-opacity="1" clip-path="url(#dKFDLLrnBqmV)" stroke-opacity="1" stroke-linejoin="bevel" stroke-miterlimit="10"/><path fill="rgb(213,62,79)" stroke="rgb(213,62,79)" paint-order="fill" d="M 486.65673828125 179.04110717773438 L 928.6363525390625 179.04110717773438 L 928.6363525390625 183.36074829101562 L 486.65673828125 183.36074829101562 L 486.65673828125 179.04110717773438 Z" fill-opacity="1" clip-path="url(#dKFDLLrnBqmV)" stroke-opacity="1" stroke-linejoin="bevel" stroke-miterlimit="10"/><path fill="rgb(213,62,79)" stroke="rgb(213,62,79)" paint-order="fill" d="M 486.65673828125 200.63925170898438 L 928.6363525390625 200.63925170898438 L 928.6363525390625 204.95889282226562 L 486.65673828125 204.95889282226562 L 486.65673828125 200.63925170898438 Z" fill-opacity="1" clip-path="url(#dKFDLLrnBqmV)" stroke-opacity="1" stroke-linejoin="bevel" stroke-miterlimit="10"/><path fill="rgb(213,62,79)" stroke="rgb(213,62,79)" paint-order="fill" d="M 572.6257934570312 135.84481811523438 L 928.6363525390625 135.84481811523438 L 928.6363525390625 140.16444396972656 L 572.6257934570312 140.16444396972656 L 572.6257934570312 135.84481811523438 Z" fill-opacity="1" clip-path="url(#dKFDLLrnBqmV)" stroke-opacity="1" stroke-linejoin="bevel" stroke-miterlimit="10"/><path fill="rgb(213,62,79)" stroke="rgb(213,62,79)" paint-order="fill" d="M 576.876220703125 346.4267578125 L 928.6363525390625 346.4267578125 L 928.6363525390625 350.7463684082031 L 576.876220703125 350.7463684082031 L 576.876220703125 346.4267578125 Z" fill-opacity="1" clip-path="url(#dKFDLLrnBqmV)" stroke-opacity="1" stroke-linejoin="bevel" stroke-miterlimit="10"/><path fill="rgb(213,62,79)" stroke="rgb(213,62,79)" paint-order="fill" d="M 576.94482421875 341.0272216796875 L 928.6363525390625 341.0272216796875 L 928.6363525390625 345.3468322753906 L 576.94482421875 345.3468322753906 L 576.94482421875 341.0272216796875 Z" fill-opacity="1" clip-path="url(#dKFDLLrnBqmV)" stroke-opacity="1" stroke-linejoin="bevel" stroke-miterlimit="10"/><path fill="rgb(213,62,79)" stroke="rgb(213,62,79)" paint-order="fill" d="M 576.94482421875 303.23046875 L 928.6363525390625 303.23046875 L 928.6363525390625 307.5500793457031 L 576.94482421875 307.5500793457031 L 576.94482421875 303.23046875 Z" fill-opacity="1" clip-path="url(#dKFDLLrnBqmV)" stroke-opacity="1" stroke-linejoin="bevel" stroke-miterlimit="10"/><path fill="rgb(213,62,79)" stroke="rgb(213,62,79)" paint-order="fill" d="M 576.94482421875 292.431396484375 L 928.6363525390625 292.431396484375 L 928.6363525390625 296.7510070800781 L 576.94482421875 296.7510070800781 L 576.94482421875 292.431396484375 Z" fill-opacity="1" clip-path="url(#dKFDLLrnBqmV)" stroke-opacity="1" stroke-linejoin="bevel" stroke-miterlimit="10"/><path fill="rgb(213,62,79)" stroke="rgb(213,62,79)" paint-order="fill" d="M 679.84716796875 254.63462829589844 L 928.6363525390625 254.63462829589844 L 928.6363525390625 258.9542541503906 L 679.84716796875 258.9542541503906 L 679.84716796875 254.63462829589844 Z" fill-opacity="1" clip-path="url(#dKFDLLrnBqmV)" stroke-opacity="1" stroke-linejoin="bevel" stroke-miterlimit="10"/><path fill="rgb(213,62,79)" stroke="rgb(213,62,79)" paint-order="fill" d="M 918.4901123046875 108.84713745117188 L 928.6363525390625 108.84713745117188 L 928.6363525390625 113.16676330566406 L 918.4901123046875 113.16676330566406 L 918.4901123046875 108.84713745117188 Z" fill-opacity="1" clip-path="url(#dKFDLLrnBqmV)" stroke-opacity="1" stroke-linejoin="bevel" stroke-miterlimit="10"/><path fill="rgb(213,62,79)" stroke="rgb(213,62,79)" paint-order="fill" d="M 924.7972412109375 114.24667358398438 L 928.6363525390625 114.24667358398438 L 928.6363525390625 118.56629943847656 L 924.7972412109375 118.56629943847656 L 924.7972412109375 114.24667358398438 Z" fill-opacity="1" clip-path="url(#dKFDLLrnBqmV)" stroke-opacity="1" stroke-linejoin="bevel" stroke-miterlimit="10"/><path fill="rgb(213,62,79)" stroke="rgb(213,62,79)" paint-order="fill" d="M 928.5678100585938 98.04805755615234 L 928.6363525390625 98.04805755615234 L 928.6363525390625 102.36769104003906 L 928.5678100585938 102.36769104003906 L 928.5678100585938 98.04805755615234 Z" fill-opacity="1" clip-path="url(#dKFDLLrnBqmV)" stroke-opacity="1" stroke-linejoin="bevel" stroke-miterlimit="10"/><path fill="none" stroke="rgb(0,0,0)" paint-order="fill" d="M 49.5 378.5 L 970.5 378.5" stroke-opacity="1" stroke-linejoin="bevel" stroke-miterlimit="10"/><path fill="none" stroke="rgb(0,0,0)" paint-order="fill" d="M 171.5 384.5 L 171.5 376.5 M 308.5 384.5 L 308.5 376.5 M 445.5 384.5 L 445.5 376.5 M 582.5 384.5 L 582.5 376.5 M 719.5 384.5 L 719.5 376.5 M 856.5 384.5 L 856.5 376.5" stroke-opacity="1" stroke-linejoin="bevel" stroke-miterlimit="10"/><path fill="none" stroke="rgb(0,0,0)" paint-order="fill" d="M 143.5 382.5 L 143.5 378.5 M 116.5 382.5 L 116.5 378.5 M 88.5 382.5 L 88.5 378.5 M 61.5 382.5 L 61.5 378.5 M 171.5 382.5 L 171.5 378.5 M 198.5 382.5 L 198.5 378.5 M 225.5 382.5 L 225.5 378.5 M 253.5 382.5 L 253.5 378.5 M 280.5 382.5 L 280.5 378.5 M 308.5 382.5 L 308.5 378.5 M 335.5 382.5 L 335.5 378.5 M 363.5 382.5 L 363.5 378.5 M 390.5 382.5 L 390.5 378.5 M 417.5 382.5 L 417.5 378.5 M 445.5 382.5 L 445.5 378.5 M 472.5 382.5 L 472.5 378.5 M 500.5 382.5 L 500.5 378.5 M 527.5 382.5 L 527.5 378.5 M 555.5 382.5 L 555.5 378.5 M 582.5 382.5 L 582.5 378.5 M 609.5 382.5 L 609.5 378.5 M 637.5 382.5 L 637.5 378.5 M 664.5 382.5 L 664.5 378.5 M 692.5 382.5 L 692.5 378.5 M 719.5 382.5 L 719.5 378.5 M 746.5 382.5 L 746.5 378.5 M 774.5 382.5 L 774.5 378.5 M 801.5 382.5 L 801.5 378.5 M 829.5 382.5 L 829.5 378.5 M 856.5 382.5 L 856.5 378.5 M 884.5 382.5 L 884.5 378.5 M 911.5 382.5 L 911.5 378.5 M 938.5 382.5 L 938.5 378.5 M 966.5 382.5 L 966.5 378.5" stroke-opacity="1" stroke-linejoin="bevel" stroke-miterlimit="10"/><text fill="rgb(68,68,68)" stroke="none" font-family="helvetica" font-size="11px" font-style="normal" font-weight="normal" text-decoration="normal" x="164.47642517089844" y="397" text-anchor="start" dominant-baseline="alphabetic" transform="matrix(1, 0, 0, 1, 0.5, 0.5)" fill-opacity="1">20</text><text fill="none" stroke="rgb(0,0,0)" font-family="helvetica" font-size="11px" font-style="normal" font-weight="normal" text-decoration="normal" x="164.47642517089844" y="397" text-anchor="start" dominant-baseline="alphabetic" transform="matrix(1, 0, 0, 1, 0.5, 0.5)" stroke-opacity="0" stroke-linejoin="bevel" stroke-miterlimit="10">20</text><text fill="rgb(68,68,68)" stroke="none" font-family="helvetica" font-size="11px" font-style="normal" font-weight="normal" text-decoration="normal" x="301.588134765625" y="397" text-anchor="start" dominant-baseline="alphabetic" transform="matrix(1, 0, 0, 1, 0.5, 0.5)" fill-opacity="1">40</text><text fill="none" stroke="rgb(0,0,0)" font-family="helvetica" font-size="11px" font-style="normal" font-weight="normal" text-decoration="normal" x="301.588134765625" y="397" text-anchor="start" dominant-baseline="alphabetic" transform="matrix(1, 0, 0, 1, 0.5, 0.5)" stroke-opacity="0" stroke-linejoin="bevel" stroke-miterlimit="10">40</text><text fill="rgb(68,68,68)" stroke="none" font-family="helvetica" font-size="11px" font-style="normal" font-weight="normal" text-decoration="normal" x="438.6998596191406" y="397" text-anchor="start" dominant-baseline="alphabetic" transform="matrix(1, 0, 0, 1, 0.5, 0.5)" fill-opacity="1">60</text><text fill="none" stroke="rgb(0,0,0)" font-family="helvetica" font-size="11px" font-style="normal" font-weight="normal" text-decoration="normal" x="438.6998596191406" y="397" text-anchor="start" dominant-baseline="alphabetic" transform="matrix(1, 0, 0, 1, 0.5, 0.5)" stroke-opacity="0" stroke-linejoin="bevel" stroke-miterlimit="10">60</text><text fill="rgb(68,68,68)" stroke="none" font-family="helvetica" font-size="11px" font-style="normal" font-weight="normal" text-decoration="normal" x="575.8115844726562" y="397" text-anchor="start" dominant-baseline="alphabetic" transform="matrix(1, 0, 0, 1, 0.5, 0.5)" fill-opacity="1">80</text><text fill="none" stroke="rgb(0,0,0)" font-family="helvetica" font-size="11px" font-style="normal" font-weight="normal" text-decoration="normal" x="575.8115844726562" y="397" text-anchor="start" dominant-baseline="alphabetic" transform="matrix(1, 0, 0, 1, 0.5, 0.5)" stroke-opacity="0" stroke-linejoin="bevel" stroke-miterlimit="10">80</text><text fill="rgb(68,68,68)" stroke="none" font-family="helvetica" font-size="11px" font-style="normal" font-weight="normal" text-decoration="normal" x="709.864501953125" y="397" text-anchor="start" dominant-baseline="alphabetic" transform="matrix(1, 0, 0, 1, 0.5, 0.5)" fill-opacity="1">100</text><text fill="none" stroke="rgb(0,0,0)" font-family="helvetica" font-size="11px" font-style="normal" font-weight="normal" text-decoration="normal" x="709.864501953125" y="397" text-anchor="start" dominant-baseline="alphabetic" transform="matrix(1, 0, 0, 1, 0.5, 0.5)" stroke-opacity="0" stroke-linejoin="bevel" stroke-miterlimit="10">100</text><text fill="rgb(68,68,68)" stroke="none" font-family="helvetica" font-size="11px" font-style="normal" font-weight="normal" text-decoration="normal" x="846.9761962890625" y="397" text-anchor="start" dominant-baseline="alphabetic" transform="matrix(1, 0, 0, 1, 0.5, 0.5)" fill-opacity="1">120</text><text fill="none" stroke="rgb(0,0,0)" font-family="helvetica" font-size="11px" font-style="normal" font-weight="normal" text-decoration="normal" x="846.9761962890625" y="397" text-anchor="start" dominant-baseline="alphabetic" transform="matrix(1, 0, 0, 1, 0.5, 0.5)" stroke-opacity="0" stroke-linejoin="bevel" stroke-miterlimit="10">120</text><text fill="rgb(68,68,68)" stroke="none" font-family="helvetica" font-size="13px" font-style="italic" font-weight="normal" text-decoration="normal" x="509.5" y="414" text-anchor="start" dominant-baseline="alphabetic" transform="matrix(1, 0, 0, 1, 0.5, 0.5)" fill-opacity="1"></text><text fill="none" stroke="rgb(0,0,0)" font-family="helvetica" font-size="13px" font-style="italic" font-weight="normal" text-decoration="normal" x="509.5" y="414" text-anchor="start" dominant-baseline="alphabetic" transform="matrix(1, 0, 0, 1, 0.5, 0.5)" stroke-opacity="0" stroke-linejoin="bevel" stroke-miterlimit="10"></text><path fill="none" stroke="rgb(0,0,0)" paint-order="fill" d="M 49.5 378.5 L 49.5 5.5" stroke-opacity="1" stroke-linejoin="bevel" stroke-miterlimit="10"/><path fill="none" stroke="rgb(0,0,0)" paint-order="fill" d="M 43.5 364.5 L 51.5 364.5 M 43.5 299.5 L 51.5 299.5 M 43.5 235.5 L 51.5 235.5 M 43.5 170.5 L 51.5 170.5 M 43.5 105.5 L 51.5 105.5 M 43.5 40.5 L 51.5 40.5" stroke-opacity="1" stroke-linejoin="bevel" stroke-miterlimit="10"/><path fill="none" stroke="rgb(0,0,0)" paint-order="fill" d="M 45.5 377.5 L 49.5 377.5 M 45.5 364.5 L 49.5 364.5 M 45.5 351.5 L 49.5 351.5 M 45.5 338.5 L 49.5 338.5 M 45.5 325.5 L 49.5 325.5 M 45.5 312.5 L 49.5 312.5 M 45.5 299.5 L 49.5 299.5 M 45.5 287.5 L 49.5 287.5 M 45.5 274.5 L 49.5 274.5 M 45.5 261.5 L 49.5 261.5 M 45.5 248.5 L 49.5 248.5 M 45.5 235.5 L 49.5 235.5 M 45.5 222.5 L 49.5 222.5 M 45.5 209.5 L 49.5 209.5 M 45.5 196.5 L 49.5 196.5 M 45.5 183.5 L 49.5 183.5 M 45.5 170.5 L 49.5 170.5 M 45.5 157.5 L 49.5 157.5 M 45.5 144.5 L 49.5 144.5 M 45.5 131.5 L 49.5 131.5 M 45.5 118.5 L 49.5 118.5 M 45.5 105.5 L 49.5 105.5 M 45.5 92.5 L 49.5 92.5 M 45.5 79.5 L 49.5 79.5 M 45.5 66.5 L 49.5 66.5 M 45.5 53.5 L 49.5 53.5 M 45.5 40.5 L 49.5 40.5 M 45.5 27.5 L 49.5 27.5 M 45.5 14.5 L 49.5 14.5" stroke-opacity="1" stroke-linejoin="bevel" stroke-miterlimit="10"/><text fill="rgb(68,68,68)" stroke="none" font-family="helvetica" font-size="11px" font-style="normal" font-weight="normal" text-decoration="normal" x="25.7646484375" y="368.2851867675781" text-anchor="start" dominant-baseline="alphabetic" transform="matrix(1, 0, 0, 1, 0.5, 0.5)" fill-opacity="1">24</text><text fill="none" stroke="rgb(0,0,0)" font-family="helvetica" font-size="11px" font-style="normal" font-weight="normal" text-decoration="normal" x="25.7646484375" y="368.2851867675781" text-anchor="start" dominant-baseline="alphabetic" transform="matrix(1, 0, 0, 1, 0.5, 0.5)" stroke-opacity="0" stroke-linejoin="bevel" stroke-miterlimit="10">24</text><text fill="rgb(68,68,68)" stroke="none" font-family="helvetica" font-size="11px" font-style="normal" font-weight="normal" text-decoration="normal" x="25.7646484375" y="303.49072265625" text-anchor="start" dominant-baseline="alphabetic" transform="matrix(1, 0, 0, 1, 0.5, 0.5)" fill-opacity="1">36</text><text fill="none" stroke="rgb(0,0,0)" font-family="helvetica" font-size="11px" font-style="normal" font-weight="normal" text-decoration="normal" x="25.7646484375" y="303.49072265625" text-anchor="start" dominant-baseline="alphabetic" transform="matrix(1, 0, 0, 1, 0.5, 0.5)" stroke-opacity="0" stroke-linejoin="bevel" stroke-miterlimit="10">36</text><text fill="rgb(68,68,68)" stroke="none" font-family="helvetica" font-size="11px" font-style="normal" font-weight="normal" text-decoration="normal" x="25.7646484375" y="238.6962890625" text-anchor="start" dominant-baseline="alphabetic" transform="matrix(1, 0, 0, 1, 0.5, 0.5)" fill-opacity="1">48</text><text fill="none" stroke="rgb(0,0,0)" font-family="helvetica" font-size="11px" font-style="normal" font-weight="normal" text-decoration="normal" x="25.7646484375" y="238.6962890625" text-anchor="start" dominant-baseline="alphabetic" transform="matrix(1, 0, 0, 1, 0.5, 0.5)" stroke-opacity="0" stroke-linejoin="bevel" stroke-miterlimit="10">48</text><text fill="rgb(68,68,68)" stroke="none" font-family="helvetica" font-size="11px" font-style="normal" font-weight="normal" text-decoration="normal" x="25.7646484375" y="173.90185546875" text-anchor="start" dominant-baseline="alphabetic" transform="matrix(1, 0, 0, 1, 0.5, 0.5)" fill-opacity="1">60</text><text fill="none" stroke="rgb(0,0,0)" font-family="helvetica" font-size="11px" font-style="normal" font-weight="normal" text-decoration="normal" x="25.7646484375" y="173.90185546875" text-anchor="start" dominant-baseline="alphabetic" transform="matrix(1, 0, 0, 1, 0.5, 0.5)" stroke-opacity="0" stroke-linejoin="bevel" stroke-miterlimit="10">60</text><text fill="rgb(68,68,68)" stroke="none" font-family="helvetica" font-size="11px" font-style="normal" font-weight="normal" text-decoration="normal" x="25.7646484375" y="109.10741424560547" text-anchor="start" dominant-baseline="alphabetic" transform="matrix(1, 0, 0, 1, 0.5, 0.5)" fill-opacity="1">72</text><text fill="none" stroke="rgb(0,0,0)" font-family="helvetica" font-size="11px" font-style="normal" font-weight="normal" text-decoration="normal" x="25.7646484375" y="109.10741424560547" text-anchor="start" dominant-baseline="alphabetic" transform="matrix(1, 0, 0, 1, 0.5, 0.5)" stroke-opacity="0" stroke-linejoin="bevel" stroke-miterlimit="10">72</text><text fill="rgb(68,68,68)" stroke="none" font-family="helvetica" font-size="11px" font-style="normal" font-weight="normal" text-decoration="normal" x="25.7646484375" y="44.31296920776367" text-anchor="start" dominant-baseline="alphabetic" transform="matrix(1, 0, 0, 1, 0.5, 0.5)" fill-opacity="1">84</text><text fill="none" stroke="rgb(0,0,0)" font-family="helvetica" font-size="11px" font-style="normal" font-weight="normal" text-decoration="normal" x="25.7646484375" y="44.31296920776367" text-anchor="start" dominant-baseline="alphabetic" transform="matrix(1, 0, 0, 1, 0.5, 0.5)" stroke-opacity="0" stroke-linejoin="bevel" stroke-miterlimit="10">84</text><text fill="rgb(68,68,68)" stroke="none" font-family="helvetica" font-size="13px" font-style="italic" font-weight="normal" text-decoration="normal" x="4.03466796875" y="188.5" text-anchor="start" dominant-baseline="alphabetic" transform="matrix(6.123233995736766e-17, -1, 1, 6.123233995736766e-17, -173.2353515625, 209.7646484375)" fill-opacity="1">pitch</text><text fill="none" stroke="rgb(0,0,0)" font-family="helvetica" font-size="13px" font-style="italic" font-weight="normal" text-decoration="normal" x="4.03466796875" y="188.5" text-anchor="start" dominant-baseline="alphabetic" transform="matrix(6.123233995736766e-17, -1, 1, 6.123233995736766e-17, -173.2353515625, 209.7646484375)" stroke-opacity="0" stroke-linejoin="bevel" stroke-miterlimit="10">pitch</text></svg>