<svg version="1.1" xmlns="http://www.w3.org/2000/svg" width="1000" height="400"><defs><clipPath id="KmVDSLpXQMvv"><path fill="none" stroke="none" d="M 49.5 5.5 L 970.5 5.5 L 970.5 378.5 L 49.5 378.5 L 49.5 5.5 Z"/></clipPath><clipPath id="goHtCkakeUbn"><path fill="none" stroke="none" d="M 49.5 5.5 L 970.5 5.5 L 970.5 378.5 L 49.5 378.5 L 49.5 5.5 Z"/></clipPath><clipPath id="hvTKUUNgMRpO"><path fill="none" stroke="none" d="M 49.5 5.5 L 970.5 5.5 L 970.5 378.5 L 49.5 378.5 L 49.5 5.5 Z"/></clipPath><clipPath id="SthJcbpSaire"><path fill="none" stroke="none" d="M 49.5 5.5 L 970.5 5.5 L 970.5 378.5 L 49.5 378.5 L 49.5 5.5 Z"/></clipPath></defs><path fill="none" stroke="rgb(229,229,229)" paint-order="fill" d="M 49.5 5.5 L 970.5 5.5 L 970.5 378.5 L 49.5 378.5 L 49.5 5.5 Z" stroke-opacity="1" stroke-linejoin="bevel" stroke-miterlimit="10"/><path fill="none" stroke="rgb(229,229,229)" paint-order="fill" d="M 84.5 378.5 L 84.5 5.5 M 256.5 378.5 L 256.5 5.5 M 428.5 378.5 L 428.5 5.5 M 599.5 378.5 L 599.5 5.5 M 771.5 378.5 L 771.5 5.5 M 943.5 378.5 L 943.5 5.5" stroke-opacity="1" stroke-linejoin="bevel" stroke-miterlimit="10" clip-path="url(#KmVDSLpXQMvv)"/><path fill="none" stroke="rgb(229,229,229)" paint-order="fill" d="M 49.5 209.5 L 970.5 209.5" stroke-opacity="1" stroke-linejoin="bevel" stroke-miterlimit="10" clip-path="url(#goHtCkakeUbn)"/><path fill="rgb(213,62,79)" stroke="rgb(213,62,79)" paint-order="fill" d="M 91.36363983154297 91.65676879882812 L 225.2998046875 91.65676879882812 L 225.2998046875 119.33766174316406 L 91.36363983154297 119.33766174316406 L 91.36363983154297 91.65676879882812 Z" fill-opacity="1" clip-path="url(#hvTKUUNgMRpO)" stroke-opacity="1" stroke-linejoin="bevel" stroke-miterlimit="10"/><path fill="rgb(213,62,79)" stroke="rgb(213,62,79)" paint-order="fill" d="M 686.52099609375 195.46011352539062 L 788.1751098632812 195.46011352539062 L 788.1751098632812 223.14100646972656 L 686.52099609375 223.14100646972656 L 686.52099609375 195.46011352539062 Z" fill-opacity="1" clip-path="url(#hvTKUUNgMRpO)" stroke-opacity="1" stroke-linejoin="bevel" stroke-miterlimit="10"/><path fill="rgb(213,62,79)" stroke="rgb(213,62,79)" paint-order="fill" d="M 686.52099609375 22.454545974731445 L 788.1751098632812 22.454545974731445 L 788.1751098632812 50.13543701171875 L 686.52099609375 50.13543701171875 L 686.52099609375 22.454545974731445 Z" fill-opacity="1" clip-path="url(#hvTKUUNgMRpO)" stroke-opacity="1" stroke-linejoin="bevel" stroke-miterlimit="10"/><path fill="rgb(213,62,79)" stroke="rgb(213,62,79)" paint-order="fill" d="M 686.52099609375 333.86456298828125 L 928.6363525390625 333.86456298828125 L 928.6363525390625 361.5454406738281 L 686.52099609375 361.5454406738281 L 686.52099609375 333.86456298828125 Z" fill-opacity="1" clip-path="url(#hvTKUUNgMRpO)" stroke-opacity="1" stroke-linejoin="bevel" stroke-miterlimit="10"/><path fill="none" stroke="rgb(0,0,0)" paint-order="fill" d="M 49.5 378.5 L 970.5 378.5" stroke-opacity="1" stroke-linejoin="bevel" stroke-miterlimit="10"/><path fill="none" stroke="rgb(0,0,0)" paint-order="fill" d="M 84.5 384.5 L 84.5 376.5 M 256.5 384.5 L 256.5 376.5 M 428.5 384.5 L 428.5 376.5 M 599.5 384.5 L 599.5 376.5 M 771.5 384.5 L 771.5 376.5 M 943.5 384.5 L 943.5 376.5" stroke-opacity="1" stroke-linejoin="bevel" stroke-miterlimit="10"/><path fill="none" stroke="rgb(0,0,0)" paint-order="fill" d="M 50.5 382.5 L 50.5 378.5 M 84.5 382.5 L 84.5 378.5 M 119.5 382.5 L 119.5 378.5 M 153.5 382.5 L 153.5 378.5 M 187.5 382.5 L 187.5 378.5 M 222.5 382.5 L 222.5 378.5 M 256.5 382.5 L 256.5 378.5 M 290.5 382.5 L 290.5 378.5 M 325.5 382.5 L 325.5 378.5 M 359.5 382.5 L 359.5 378.5 M 393.5 382.5 L 393.5 378.5 M 428.5 382.5 L 428.5 378.5 M 462.5 382.5 L 462.5 378.5 M 496.5 382.5 L 496.5 378.5 M 531.5 382.5 L 531.5 378.5 M 565.5 382.5 L 565.5 378.5 M 599.5 382.5 L 599.5 378.5 M 634.5 382.5 L 634.5 378.5 M 668.5 382.5 L 668.5 378.5 M 703.5 382.5 L 703.5 378.5 M 737.5 382.5 L 737.5 378.5 M 771.5 382.5 L 771.5 378.5 M 806.5 382.5 L 806.5 378.5 M 840.5 382.5 L 840.5 378.5 M 874.5 382.5 L 874.5 378.5 M 909.5 382.5 L 909.5 378.5 M 943.5 382.5 L 943.5 378.5" stroke-opacity="1" stroke-linejoin="bevel" stroke-miterlimit="10"/><text fill="rgb(68,68,68)" stroke="none" font-family="helvetica" font-size="11px" font-style="normal" font-weight="normal" text-decoration="normal" x="81.27970123291016" y="397" text-anchor="start" dominant-baseline="alphabetic" transform="matrix(1, 0, 0, 1, 0.5, 0.5)" fill-opacity="1">0</text><text fill="none" stroke="rgb(0,0,0)" font-family="helvetica" font-size="11px" font-style="normal" font-weight="normal" text-decoration="normal" x="81.27970123291016" y="397" text-anchor="start" dominant-baseline="alphabetic" transform="matrix(1, 0, 0, 1, 0.5, 0.5)" stroke-opacity="0" stroke-linejoin="bevel" stroke-miterlimit="10">0</text><text fill="rgb(68,68,68)" stroke="none" font-family="helvetica" font-size="11px" font-style="normal" font-weight="normal" text-decoration="normal" x="252.99273681640625" y="397" text-anchor="start" dominant-baseline="alphabetic" transform="matrix(1, 0, 0, 1, 0.5, 0.5)" fill-opacity="1">5</text><text fill="none" stroke="rgb(0,0,0)" font-family="helvetica" font-size="11px" font-style="normal" font-weight="normal" text-decoration="normal" x="252.99273681640625" y="397" text-anchor="start" dominant-baseline="alphabetic" transform="matrix(1, 0, 0, 1, 0.5, 0.5)" stroke-opacity="0" stroke-linejoin="bevel" stroke-miterlimit="10">5</text><text fill="rgb(68,68,68)" stroke="none" font-family="helvetica" font-size="11px" font-style="normal" font-weight="normal" text-decoration="normal" x="421.64691162109375" y="397" text-anchor="start" dominant-baseline="alphabetic" transform="matrix(1, 0, 0, 1, 0.5, 0.5)" fill-opacity="1">10</text><text fill="none" stroke="rgb(0,0,0)" font-family="helvetica" font-size="11px" font-style="normal" font-weight="normal" text-decoration="normal" x="421.64691162109375" y="397" text-anchor="start" dominant-baseline="alphabetic" transform="matrix(1, 0, 0, 1, 0.5, 0.5)" stroke-opacity="0" stroke-linejoin="bevel" stroke-miterlimit="10">10</text><text fill="rgb(68,68,68)" stroke="none" font-family="helvetica" font-size="11px" font-style="normal" font-weight="normal" text-decoration="normal" x="593.3599243164062" y="397" text-anchor="start" dominant-baseline="alphabetic" transform="matrix(1, 0, 0, 1, 0.5, 0.5)" fill-opacity="1">15</text><text fill="none" stroke="rgb(0,0,0)" font-family="helvetica" font-size="11px" font-style="normal" font-weight="normal" text-decoration="normal" x="593.3599243164062" y="397" text-anchor="start" dominant-baseline="alphabetic" transform="matrix(1, 0, 0, 1, 0.5, 0.5)" stroke-opacity="0" stroke-linejoin="bevel" stroke-miterlimit="10">15</text><text fill="rgb(68,68,68)" stroke="none" font-family="helvetica" font-size="11px" font-style="normal" font-weight="normal" text-decoration="normal" x="765.072998046875" y="397" text-anchor="start" dominant-baseline="alphabetic" transform="matrix(1, 0, 0, 1, 0.5, 0.5)" fill-opacity="1">20</text><text fill="none" stroke="rgb(0,0,0)" font-family="helvetica" font-size="11px" font-style="normal" font-weight="normal" text-decoration="normal" x="765.072998046875" y="397" text-anchor="start" dominant-baseline="alphabetic" transform="matrix(1, 0, 0, 1, 0.5, 0.5)" stroke-opacity="0" stroke-linejoin="bevel" stroke-miterlimit="10">20</text><text fill="rgb(68,68,68)" stroke="none" font-family="helvetica" font-size="11px" font-style="normal" font-weight="normal" text-decoration="normal" x="936.7860107421875" y="397" text-anchor="start" dominant-baseline="alphabetic" transform="matrix(1, 0, 0, 1, 0.5, 0.5)" fill-opacity="1">25</text><text fill="none" stroke="rgb(0,0,0)" font-family="helvetica" font-size="11px" font-style="normal" font-weight="normal" text-decoration="normal" x="936.7860107421875" y="397" text-anchor="start" dominant-baseline="alphabetic" transform="matrix(1, 0, 0, 1, 0.5, 0.5)" stroke-opacity="0" stroke-linejoin="bevel" stroke-miterlimit="10">25</text><text fill="rgb(68,68,68)" stroke="none" font-family="helvetica" font-size="13px" font-style="italic" font-weight="normal" text-decoration="normal" x="509.5" y="414" text-anchor="start" dominant-baseline="alphabetic" transform="matrix(1, 0, 0, 1, 0.5, 0.5)" fill-opacity="1"></text><text fill="none" stroke="rgb(0,0,0)" font-family="helvetica" font-size="13px" font-style="italic" font-weight="normal" text-decoration="normal" x="509.5" y="414" text-anchor="start" dominant-baseline="alphabetic" transform="matrix(1, 0, 0, 1, 0.5, 0.5)" stroke-opacity="0" stroke-linejoin="bevel" stroke-miterlimit="10"></text><path fill="none" stroke="rgb(0,0,0)" paint-order="fill" d="M 49.5 378.5 L 49.5 5.5" stroke-opacity="1" stroke-linejoin="bevel" stroke-miterlimit="10"/><path fill="none" stroke="rgb(0,0,0)" paint-order="fill" d="M 43.5 209.5 L 51.5 209.5" stroke-opacity="1" stroke-linejoin="bevel" stroke-miterlimit="10"/><path fill="none" stroke="rgb(0,0,0)" paint-order="fill" d="M 45.5 292.5 L 49.5 292.5 M 45.5 375.5 L 49.5 375.5 M 45.5 209.5 L 49.5 209.5 M 45.5 126.5 L 49.5 126.5 M 45.5 43.5 L 49.5 43.5" stroke-opacity="1" stroke-linejoin="bevel" stroke-miterlimit="10"/><text fill="rgb(68,68,68)" stroke="none" font-family="helvetica" font-size="11px" font-style="normal" font-weight="normal" text-decoration="normal" x="25.7646484375" y="212.80055236816406" text-anchor="start" dominant-baseline="alphabetic" transform="matrix(1, 0, 0, 1, 0.5, 0.5)" fill-opacity="1">84</text><text fill="none" stroke="rgb(0,0,0)" font-family="helvetica" font-size="11px" font-style="normal" font-weight="normal" text-decoration="normal" x="25.7646484375" y="212.80055236816406" text-anchor="start" dominant-baseline="alphabetic" transform="matrix(1, 0, 0, 1, 0.5, 0.5)" stroke-opacity="0" stroke-linejoin="bevel" stroke-miterlimit="10">84</text><text fill="rgb(68,68,68)" stroke="none" font-family="helvetica" font-size="13px" font-style="italic" font-weight="normal" text-decoration="normal" x="4.03466796875" y="188.5" text-anchor="start" dominant-baseline="alphabetic" transform="matrix(6.123233995736766e-17, -1, 1, 6.123233995736766e-17, -173.2353515625, 209.7646484375)" fill-opacity="1">pitch</text><text fill="none" stroke="rgb(0,0,0)" font-family="helvetica" font-size="13px" font-style="italic" font-weight="normal" text-decoration="normal" x="4.03466796875" y="188.5" text-anchor="start" dominant-baseline="alphabetic" transform="matrix(6.123233995736766e-17, -1, 1, 6.123233995736766e-17, -173.2353515625, 209.7646484375)" stroke-opacity="0" stroke-linejoin="bevel" stroke-miterlimit="10">pitch</text></svg>